<svg width="392" height="392" viewBox="0 0 392 392" fill="none" xmlns="http://www.w3.org/2000/svg">
<g opacity="0.33">
<circle opacity="0.48" cx="196.179" cy="196" r="171.154" stroke="url(#paint0_linear_3_18426)" stroke-width="6"/>
<circle opacity="0.48" cx="196.18" cy="196" r="135.467" transform="rotate(45 196.18 196)" stroke="url(#paint1_linear_3_18426)" stroke-width="6"/>
<circle opacity="0.48" cx="196.178" cy="196" r="92.3606" transform="rotate(105 196.178 196)" stroke="url(#paint2_linear_3_18426)" stroke-width="6"/>
</g>
<path d="M326.732 320.405V321.488H327.815H341.144C343 321.488 344.504 322.992 344.504 324.848V342.62C344.504 344.476 343 345.98 341.144 345.98H143.429C141.573 345.98 140.069 344.476 140.069 342.62C140.069 340.764 141.573 339.26 143.429 339.26H336.701H337.784V338.177V329.291V328.208H336.701H52.347H51.2637V329.291V338.177V339.26H52.347H107.885C109.741 339.26 111.245 340.764 111.245 342.62C111.245 344.476 109.741 345.98 107.885 345.98H47.904C46.0479 345.98 44.5442 344.476 44.5442 342.62V324.848C44.5442 322.992 46.0479 321.488 47.904 321.488H61.2331H62.3163V320.405V120.469C62.3163 118.612 63.82 117.109 65.6761 117.109H136.765H137.848V116.025V67.1522C137.848 65.2961 139.352 63.7924 141.208 63.7924H154.537H155.62V62.7091V49.38C155.62 47.524 157.124 46.0203 158.98 46.0203H225.625C227.481 46.0203 228.985 47.524 228.985 49.38V62.7091V63.7924H230.068H243.397C245.253 63.7924 246.757 65.2961 246.757 67.1522V71.5952V72.6784H247.84H301.157C303.013 72.6784 304.516 74.1822 304.516 76.0382V89.3673V90.4506H305.6H323.372C325.228 90.4506 326.732 91.9543 326.732 93.8103V142.684C326.732 144.54 325.228 146.043 323.372 146.043C321.516 146.043 320.012 144.54 320.012 142.684V98.2534V97.1701H318.929H247.84H246.757V98.2534V187.114V188.197H247.84H261.169C263.025 188.197 264.529 189.701 264.529 191.557V320.405V321.488H265.612H318.929H320.012V320.405V178.228C320.012 176.372 321.516 174.868 323.372 174.868C325.228 174.868 326.732 176.372 326.732 178.228V320.405ZM247.84 79.398H246.757V80.4813V89.3673V90.4506H247.84H296.714H297.797V89.3673V80.4813V79.398H296.714H247.84ZM163.423 52.7398H162.34V53.8231V62.7091V63.7924H163.423H221.182H222.265V62.7091V53.8231V52.7398H221.182H163.423ZM141.208 321.488H142.291V320.405V271.532V270.448H141.208H105.663H104.58V271.532V320.405V321.488H105.663H141.208ZM176.752 321.488H177.835V320.405V124.912V123.828H176.752H70.1191H69.0359V124.912V320.405V321.488H70.1191H96.7773H97.8605V320.405V267.089C97.8605 265.232 99.3643 263.729 101.22 263.729H145.651C147.507 263.729 149.01 265.232 149.01 267.089V320.405V321.488H150.094H176.752ZM144.567 116.025V117.109H145.651H181.195C183.051 117.109 184.555 118.612 184.555 120.469V187.114V188.197H185.638H238.954H240.038V187.114V71.5952V70.5119H238.954H145.651H144.567V71.5952V116.025ZM256.726 321.488H257.81V320.405V196V194.917H256.726H185.638H184.555V196V320.405V321.488H185.638H256.726Z" fill="#364E66" stroke="#8076F1" stroke-width="2.16651"/>
<path d="M91.252 151.57C91.252 153.426 89.7483 154.929 87.8922 154.929C86.0362 154.929 84.5325 153.426 84.5325 151.57V142.684C84.5325 140.828 86.0362 139.324 87.8922 139.324C89.7483 139.324 91.252 140.828 91.252 142.684V151.57Z" fill="#364E66" stroke="#8076F1" stroke-width="2.16651"/>
<path d="M114.947 151.57C114.947 153.426 113.444 154.929 111.588 154.929C109.731 154.929 108.228 153.426 108.228 151.57V142.684C108.228 140.828 109.731 139.324 111.588 139.324C113.444 139.324 114.947 140.828 114.947 142.684V151.57Z" fill="#364E66" stroke="#8076F1" stroke-width="2.16651"/>
<path d="M138.645 151.57C138.645 153.426 137.141 154.929 135.285 154.929C133.429 154.929 131.925 153.426 131.925 151.57V142.684C131.925 140.828 133.429 139.324 135.285 139.324C137.141 139.324 138.645 140.828 138.645 142.684V151.57Z" fill="#364E66" stroke="#8076F1" stroke-width="2.16651"/>
<path d="M162.34 151.57C162.34 153.426 160.836 154.929 158.98 154.929C157.124 154.929 155.62 153.426 155.62 151.57V142.684C155.62 140.828 157.124 139.324 158.98 139.324C160.836 139.324 162.34 140.828 162.34 142.684V151.57Z" fill="#364E66" stroke="#8076F1" stroke-width="2.16651"/>
<path d="M91.252 182.671C91.252 184.527 89.7483 186.031 87.8922 186.031C86.0362 186.031 84.5325 184.527 84.5325 182.671V173.785C84.5325 171.929 86.0362 170.425 87.8922 170.425C89.7483 170.425 91.252 171.929 91.252 173.785V182.671Z" fill="#364E66" stroke="#8076F1" stroke-width="2.16651"/>
<path d="M114.947 182.671C114.947 184.527 113.444 186.031 111.588 186.031C109.731 186.031 108.228 184.527 108.228 182.671V173.785C108.228 171.929 109.731 170.425 111.588 170.425C113.444 170.425 114.947 171.929 114.947 173.785V182.671Z" fill="#364E66" stroke="#8076F1" stroke-width="2.16651"/>
<path d="M138.645 182.671C138.645 184.527 137.141 186.031 135.285 186.031C133.429 186.031 131.925 184.527 131.925 182.671V173.785C131.925 171.929 133.429 170.425 135.285 170.425C137.141 170.425 138.645 171.929 138.645 173.785V182.671Z" fill="#364E66" stroke="#8076F1" stroke-width="2.16651"/>
<path d="M162.34 182.671C162.34 184.527 160.836 186.031 158.98 186.031C157.124 186.031 155.62 184.527 155.62 182.671V173.785C155.62 171.929 157.124 170.425 158.98 170.425C160.836 170.425 162.34 171.929 162.34 173.785V182.671Z" fill="#364E66" stroke="#8076F1" stroke-width="2.16651"/>
<path d="M91.252 213.772C91.252 215.628 89.7483 217.132 87.8922 217.132C86.0362 217.132 84.5325 215.628 84.5325 213.772V204.886C84.5325 203.03 86.0362 201.526 87.8922 201.526C89.7483 201.526 91.252 203.03 91.252 204.886V213.772Z" fill="#364E66" stroke="#8076F1" stroke-width="2.16651"/>
<path d="M114.947 213.772C114.947 215.628 113.444 217.132 111.588 217.132C109.731 217.132 108.228 215.628 108.228 213.772V204.886C108.228 203.03 109.731 201.526 111.588 201.526C113.444 201.526 114.947 203.03 114.947 204.886V213.772Z" fill="#364E66" stroke="#8076F1" stroke-width="2.16651"/>
<path d="M138.645 213.772C138.645 215.628 137.141 217.132 135.285 217.132C133.429 217.132 131.925 215.628 131.925 213.772V204.886C131.925 203.03 133.429 201.526 135.285 201.526C137.141 201.526 138.645 203.03 138.645 204.886V213.772Z" fill="#364E66" stroke="#8076F1" stroke-width="2.16651"/>
<path d="M162.34 213.772C162.34 215.628 160.836 217.132 158.98 217.132C157.124 217.132 155.62 215.628 155.62 213.772V204.886C155.62 203.03 157.124 201.526 158.98 201.526C160.836 201.526 162.34 203.03 162.34 204.886V213.772Z" fill="#364E66" stroke="#8076F1" stroke-width="2.16651"/>
<path d="M91.252 244.873C91.252 246.729 89.7483 248.233 87.8922 248.233C86.0362 248.233 84.5325 246.729 84.5325 244.873V235.987C84.5325 234.131 86.0362 232.628 87.8922 232.628C89.7483 232.628 91.252 234.131 91.252 235.987V244.873Z" fill="#364E66" stroke="#8076F1" stroke-width="2.16651"/>
<path d="M114.947 244.873C114.947 246.729 113.444 248.233 111.588 248.233C109.731 248.233 108.228 246.729 108.228 244.873V235.987C108.228 234.131 109.731 232.628 111.588 232.628C113.444 232.628 114.947 234.131 114.947 235.987V244.873Z" fill="#364E66" stroke="#8076F1" stroke-width="2.16651"/>
<path d="M138.645 244.873C138.645 246.729 137.141 248.233 135.285 248.233C133.429 248.233 131.925 246.729 131.925 244.873V235.987C131.925 234.131 133.429 232.628 135.285 232.628C137.141 232.628 138.645 234.131 138.645 235.987V244.873Z" fill="#364E66" stroke="#8076F1" stroke-width="2.16651"/>
<path d="M162.34 244.873C162.34 246.729 160.836 248.233 158.98 248.233C157.124 248.233 155.62 246.729 155.62 244.873V235.987C155.62 234.131 157.124 232.628 158.98 232.628C160.836 232.628 162.34 234.131 162.34 235.987V244.873Z" fill="#364E66" stroke="#8076F1" stroke-width="2.16651"/>
<path d="M228.986 173.785C228.986 175.641 227.483 177.145 225.627 177.145C223.771 177.145 222.267 175.641 222.267 173.785V84.9242C222.267 83.0682 223.771 81.5645 225.627 81.5645C227.483 81.5645 228.986 83.0682 228.986 84.9242V173.785Z" fill="#364E66" stroke="#8076F1" stroke-width="2.16651"/>
<path d="M206.772 173.785C206.772 175.641 205.268 177.145 203.412 177.145C201.556 177.145 200.052 175.641 200.052 173.785V84.9242C200.052 83.0682 201.556 81.5645 203.412 81.5645C205.268 81.5645 206.772 83.0682 206.772 84.9242V173.785Z" fill="#364E66" stroke="#8076F1" stroke-width="2.16651"/>
<path d="M181.195 81.5645C183.051 81.5645 184.555 83.0682 184.555 84.9242V102.696C184.555 104.552 183.051 106.056 181.195 106.056C179.339 106.056 177.835 104.552 177.835 102.696V84.9242C177.835 83.0682 179.339 81.5645 181.195 81.5645Z" fill="#364E66" stroke="#8076F1" stroke-width="2.16651"/>
<path d="M155.62 84.9242C155.62 83.0682 157.124 81.5645 158.98 81.5645C160.836 81.5645 162.34 83.0682 162.34 84.9242V102.696C162.34 104.552 160.836 106.056 158.98 106.056C157.124 106.056 155.62 104.552 155.62 102.696V84.9242Z" fill="#364E66" stroke="#8076F1" stroke-width="2.16651"/>
<path d="M243.399 217.132H198.968C197.112 217.132 195.609 215.628 195.609 213.772C195.609 211.916 197.112 210.412 198.968 210.412H243.399C245.255 210.412 246.758 211.916 246.758 213.772C246.758 215.628 245.255 217.132 243.399 217.132Z" fill="#364E66" stroke="#8076F1" stroke-width="2.16651"/>
<path d="M243.399 239.347H198.968C197.112 239.347 195.609 237.843 195.609 235.987C195.609 234.131 197.112 232.628 198.968 232.628H243.399C245.255 232.628 246.758 234.131 246.758 235.987C246.758 237.843 245.255 239.347 243.399 239.347Z" fill="#364E66" stroke="#8076F1" stroke-width="2.16651"/>
<path d="M243.399 261.562H198.968C197.112 261.562 195.609 260.058 195.609 258.202C195.609 256.346 197.112 254.843 198.968 254.843H243.399C245.255 254.843 246.758 256.346 246.758 258.202C246.758 260.058 245.255 261.562 243.399 261.562Z" fill="#364E66" stroke="#8076F1" stroke-width="2.16651"/>
<path d="M243.399 283.777H198.968C197.112 283.777 195.609 282.274 195.609 280.418C195.609 278.562 197.112 277.058 198.968 277.058H243.399C245.255 277.058 246.758 278.562 246.758 280.418C246.758 282.274 245.255 283.777 243.399 283.777Z" fill="#364E66" stroke="#8076F1" stroke-width="2.16651"/>
<path d="M243.399 305.993H198.968C197.112 305.993 195.609 304.489 195.609 302.633C195.609 300.777 197.112 299.273 198.968 299.273H243.399C245.255 299.273 246.758 300.777 246.758 302.633C246.758 304.489 245.255 305.993 243.399 305.993Z" fill="#364E66" stroke="#8076F1" stroke-width="2.16651"/>
<path d="M261.17 108.223C263.026 108.223 264.529 109.726 264.529 111.582V120.468C264.529 122.325 263.026 123.828 261.17 123.828C259.314 123.828 257.81 122.325 257.81 120.468V111.582C257.81 109.726 259.314 108.223 261.17 108.223Z" fill="#364E66" stroke="#8076F1" stroke-width="2.16651"/>
<path d="M283.386 108.223C285.242 108.223 286.746 109.726 286.746 111.582V120.468C286.746 122.325 285.242 123.828 283.386 123.828C281.53 123.828 280.027 122.325 280.027 120.468V111.582C280.027 109.726 281.53 108.223 283.386 108.223Z" fill="#364E66" stroke="#8076F1" stroke-width="2.16651"/>
<path d="M305.601 108.223C307.457 108.223 308.961 109.726 308.961 111.582V120.468C308.961 122.325 307.457 123.828 305.601 123.828C303.745 123.828 302.241 122.325 302.241 120.468V111.582C302.241 109.726 303.745 108.223 305.601 108.223Z" fill="#364E66" stroke="#8076F1" stroke-width="2.16651"/>
<path d="M257.81 142.684C257.81 140.828 259.314 139.324 261.17 139.324C263.026 139.324 264.529 140.828 264.529 142.684V151.57C264.529 153.426 263.026 154.929 261.17 154.929C259.314 154.929 257.81 153.426 257.81 151.57V142.684Z" fill="#364E66" stroke="#8076F1" stroke-width="2.16651"/>
<path d="M283.386 139.324C285.242 139.324 286.746 140.828 286.746 142.684V151.57C286.746 153.426 285.242 154.929 283.386 154.929C281.53 154.929 280.027 153.426 280.027 151.57V142.684C280.027 140.828 281.53 139.324 283.386 139.324Z" fill="#364E66" stroke="#8076F1" stroke-width="2.16651"/>
<path d="M305.601 139.324C307.457 139.324 308.961 140.828 308.961 142.684V151.57C308.961 153.426 307.457 154.929 305.601 154.929C303.745 154.929 302.241 153.426 302.241 151.57V142.684C302.241 140.828 303.745 139.324 305.601 139.324Z" fill="#364E66" stroke="#8076F1" stroke-width="2.16651"/>
<path d="M283.386 170.425C285.242 170.425 286.746 171.929 286.746 173.785V182.671C286.746 184.527 285.242 186.031 283.386 186.031C281.53 186.031 280.027 184.527 280.027 182.671V173.785C280.027 171.929 281.53 170.425 283.386 170.425Z" fill="#364E66" stroke="#8076F1" stroke-width="2.16651"/>
<path d="M305.601 170.425C307.457 170.425 308.961 171.929 308.961 173.785V182.671C308.961 184.527 307.457 186.031 305.601 186.031C303.745 186.031 302.241 184.527 302.241 182.671V173.785C302.241 171.929 303.745 170.425 305.601 170.425Z" fill="#364E66" stroke="#8076F1" stroke-width="2.16651"/>
<path d="M283.386 201.526C285.242 201.526 286.746 203.03 286.746 204.886V213.772C286.746 215.628 285.242 217.132 283.386 217.132C281.53 217.132 280.027 215.628 280.027 213.772V204.886C280.027 203.03 281.53 201.526 283.386 201.526Z" fill="#364E66" stroke="#8076F1" stroke-width="2.16651"/>
<path d="M305.601 201.526C307.457 201.526 308.961 203.03 308.961 204.886V213.772C308.961 215.628 307.457 217.132 305.601 217.132C303.745 217.132 302.241 215.628 302.241 213.772V204.886C302.241 203.03 303.745 201.526 305.601 201.526Z" fill="#364E66" stroke="#8076F1" stroke-width="2.16651"/>
<path d="M283.386 232.628C285.242 232.628 286.746 234.131 286.746 235.987V244.873C286.746 246.729 285.242 248.233 283.386 248.233C281.53 248.233 280.027 246.729 280.027 244.873V235.987C280.027 234.131 281.53 232.628 283.386 232.628Z" fill="#364E66" stroke="#8076F1" stroke-width="2.16651"/>
<path d="M305.601 232.628C307.457 232.628 308.961 234.131 308.961 235.987V244.873C308.961 246.729 307.457 248.233 305.601 248.233C303.745 248.233 302.241 246.729 302.241 244.873V235.987C302.241 234.131 303.745 232.628 305.601 232.628Z" fill="#364E66" stroke="#8076F1" stroke-width="2.16651"/>
<path d="M283.386 263.729C285.242 263.729 286.746 265.232 286.746 267.088V275.975C286.746 277.831 285.242 279.334 283.386 279.334C281.53 279.334 280.027 277.831 280.027 275.975V267.088C280.027 265.232 281.53 263.729 283.386 263.729Z" fill="#364E66" stroke="#8076F1" stroke-width="2.16651"/>
<path d="M305.601 263.729C307.457 263.729 308.961 265.232 308.961 267.088V275.975C308.961 277.831 307.457 279.334 305.601 279.334C303.745 279.334 302.241 277.831 302.241 275.975V267.088C302.241 265.232 303.745 263.729 305.601 263.729Z" fill="#364E66" stroke="#8076F1" stroke-width="2.16651"/>
<path d="M280.027 298.19C280.027 296.334 281.53 294.83 283.386 294.83C285.242 294.83 286.746 296.334 286.746 298.19V307.076C286.746 308.932 285.242 310.436 283.386 310.436C281.53 310.436 280.027 308.932 280.027 307.076V298.19Z" fill="#364E66" stroke="#8076F1" stroke-width="2.16651"/>
<path d="M302.241 298.19C302.241 296.334 303.745 294.83 305.601 294.83C307.457 294.83 308.961 296.334 308.961 298.19V307.076C308.961 308.932 307.457 310.436 305.601 310.436C303.745 310.436 302.241 308.932 302.241 307.076V298.19Z" fill="#364E66" stroke="#8076F1" stroke-width="2.16651"/>
<path d="M326.732 160.456C326.732 162.311 325.228 163.816 323.373 163.816C321.517 163.816 320.013 162.311 320.013 160.456C320.013 158.6 321.517 157.096 323.373 157.096C325.228 157.096 326.732 158.6 326.732 160.456Z" fill="#364E66" stroke="#8076F1" stroke-width="2.16651"/>
<path d="M129.018 342.62C129.018 344.476 127.513 345.98 125.658 345.98C123.802 345.98 122.298 344.476 122.298 342.62C122.298 340.764 123.802 339.26 125.658 339.26C127.513 339.26 129.018 340.764 129.018 342.62Z" fill="#364E66" stroke="#8076F1" stroke-width="2.16651"/>
<g clip-path="url(#clip0_3_18426)">
<path d="M64.4485 179.977C64.4485 224.224 100.317 260.093 144.564 260.093C188.811 260.093 224.68 224.224 224.68 179.977C224.68 135.73 188.811 99.8613 144.564 99.8613C100.317 99.8613 64.4485 135.73 64.4485 179.977Z" stroke="white" stroke-width="11.5547" stroke-linecap="round" stroke-linejoin="round"/>
<path d="M87.9121 236.629L32.402 292.139" stroke="white" stroke-width="11.5547" stroke-linecap="round" stroke-linejoin="round"/>
</g>
<defs>
<linearGradient id="paint0_linear_3_18426" x1="370.333" y1="196" x2="22.0254" y2="196" gradientUnits="userSpaceOnUse">
<stop stop-color="#9857FF"/>
<stop offset="0.516855" stop-color="white"/>
<stop offset="1" stop-color="#9857FF"/>
</linearGradient>
<linearGradient id="paint1_linear_3_18426" x1="334.646" y1="196" x2="57.7131" y2="196" gradientUnits="userSpaceOnUse">
<stop stop-color="#9857FF"/>
<stop offset="0.516855" stop-color="white"/>
<stop offset="1" stop-color="#9857FF"/>
</linearGradient>
<linearGradient id="paint2_linear_3_18426" x1="291.539" y1="196" x2="100.818" y2="196" gradientUnits="userSpaceOnUse">
<stop stop-color="#9857FF"/>
<stop offset="0.516855" stop-color="white"/>
<stop offset="1" stop-color="#9857FF"/>
</linearGradient>
<clipPath id="clip0_3_18426">
<rect width="256.37" height="256.37" fill="white" transform="translate(256.727 67.8151) rotate(90)"/>
</clipPath>
</defs>
</svg>
