<svg width="392" height="392" viewBox="0 0 392 392" fill="none" xmlns="http://www.w3.org/2000/svg">
<g opacity="0.33">
<circle opacity="0.48" cx="195.822" cy="196" r="171.154" stroke="url(#paint0_linear_3_18482)" stroke-width="6"/>
<circle opacity="0.48" cx="195.82" cy="196" r="135.467" transform="rotate(45 195.82 196)" stroke="url(#paint1_linear_3_18482)" stroke-width="6"/>
<circle opacity="0.48" cx="195.821" cy="196" r="92.3606" transform="rotate(105 195.821 196)" stroke="url(#paint2_linear_3_18482)" stroke-width="6"/>
</g>
<mask id="path-4-inside-1_3_18482" fill="white">
<path fill-rule="evenodd" clip-rule="evenodd" d="M133.803 230.129L137.503 216.291C130.559 210.918 126.099 202.453 126.099 192.975V175.183C124.375 162.866 128.582 152.83 137.959 146.798C148.401 140.107 162.949 140.107 173.39 146.798C182.768 152.83 186.975 162.866 185.251 175.183V192.975C185.251 202.453 180.791 210.918 173.847 216.291L177.597 230.129H186.113C204.462 230.129 219.466 245.133 219.466 263.482V291.005H293.723V117.298H85.751V291.005H91.8842V263.482C91.8842 245.133 106.888 230.129 125.237 230.129H133.803ZM216.526 296.834H82.8111C81.2398 296.834 79.9219 295.516 79.9219 293.894V80.0928C79.9219 78.5215 81.2398 77.2036 82.8111 77.2036H296.613C298.235 77.2036 299.552 78.5215 299.552 80.0928V293.894C299.552 295.516 298.235 296.834 296.613 296.834H216.526ZM293.723 111.469V83.0327H85.751V111.469H293.723ZM278.618 142.49H232.34C228.488 142.49 228.488 136.66 232.34 136.66H278.618C282.471 136.66 282.471 142.49 278.618 142.49ZM278.618 160.94H204.462C200.61 160.94 200.61 155.111 204.462 155.111H278.618C282.471 155.111 282.471 160.94 278.618 160.94ZM278.618 179.39H204.462C200.61 179.39 200.61 173.561 204.462 173.561H278.618C282.471 173.561 282.471 179.39 278.618 179.39ZM278.618 197.841H204.462C200.61 197.841 200.61 192.012 204.462 192.012H278.618C282.471 192.012 282.471 197.841 278.618 197.841ZM278.618 216.291H204.462C200.61 216.291 200.61 210.462 204.462 210.462H278.618C282.471 210.462 282.471 216.291 278.618 216.291ZM278.618 234.742H232.34C228.488 234.742 228.488 228.912 232.34 228.912H278.618C282.471 228.912 282.471 234.742 278.618 234.742ZM278.618 253.192H232.34C228.488 253.192 228.488 247.363 232.34 247.363H278.618C282.471 247.363 282.471 253.192 278.618 253.192ZM278.618 271.642H232.34C228.488 271.642 228.488 265.813 232.34 265.813H278.618C282.471 265.813 282.471 271.642 278.618 271.642ZM172.072 232.207L168.676 219.586C160.516 223.59 150.834 223.59 142.673 219.586L139.277 232.207L155.7 248.579L172.072 232.207ZM97.764 291.005H115.809V259.629C115.809 255.777 121.638 255.777 121.638 259.629V291.005H189.712V259.629C189.712 255.777 195.541 255.777 195.541 259.629V291.005H213.586V263.482C213.586 248.326 201.269 236.009 186.113 236.009H176.533L157.728 254.814C156.613 255.929 154.737 255.929 153.622 254.814L134.817 236.009H125.237C110.081 236.009 97.764 248.326 97.764 263.482V291.005ZM142.217 212.54C142.369 212.642 142.572 212.743 142.724 212.895C146.424 215.328 150.885 216.747 155.7 216.747C168.778 216.747 179.422 206.103 179.422 192.975V182.33C178.915 175.031 173.492 170.824 163.557 170.216C161.276 173.004 155.447 178.579 146.222 176.755C146.12 176.755 146.019 176.704 145.917 176.704C144.853 176.349 135.324 173.916 131.928 182.837V192.975C131.928 201.085 135.983 208.232 142.217 212.54ZM131.776 173.409C136.844 169.608 143.535 169.912 147.489 171.027C155.345 172.548 159.603 165.755 159.654 165.654C160.211 164.792 161.175 164.235 162.239 164.285C170.957 164.539 176.381 166.972 179.777 170.114C179.828 139.094 128.075 140.107 131.776 173.409ZM115.454 100.165H100.704C96.8516 100.165 96.8516 94.3361 100.704 94.3361H115.454C119.306 94.3361 119.306 100.165 115.454 100.165ZM141.964 100.165H127.163C123.311 100.165 123.311 94.3361 127.163 94.3361H141.964C145.765 94.3361 145.765 100.165 141.964 100.165ZM168.423 100.165H153.673C149.82 100.165 149.82 94.3361 153.673 94.3361H168.423C172.275 94.3361 172.275 100.165 168.423 100.165ZM278.77 100.165H198.937C195.085 100.165 195.085 94.3361 198.937 94.3361H278.77C282.623 94.3361 282.623 100.165 278.77 100.165Z"/>
</mask>
<path fill-rule="evenodd" clip-rule="evenodd" d="M133.803 230.129L137.503 216.291C130.559 210.918 126.099 202.453 126.099 192.975V175.183C124.375 162.866 128.582 152.83 137.959 146.798C148.401 140.107 162.949 140.107 173.39 146.798C182.768 152.83 186.975 162.866 185.251 175.183V192.975C185.251 202.453 180.791 210.918 173.847 216.291L177.597 230.129H186.113C204.462 230.129 219.466 245.133 219.466 263.482V291.005H293.723V117.298H85.751V291.005H91.8842V263.482C91.8842 245.133 106.888 230.129 125.237 230.129H133.803ZM216.526 296.834H82.8111C81.2398 296.834 79.9219 295.516 79.9219 293.894V80.0928C79.9219 78.5215 81.2398 77.2036 82.8111 77.2036H296.613C298.235 77.2036 299.552 78.5215 299.552 80.0928V293.894C299.552 295.516 298.235 296.834 296.613 296.834H216.526ZM293.723 111.469V83.0327H85.751V111.469H293.723ZM278.618 142.49H232.34C228.488 142.49 228.488 136.66 232.34 136.66H278.618C282.471 136.66 282.471 142.49 278.618 142.49ZM278.618 160.94H204.462C200.61 160.94 200.61 155.111 204.462 155.111H278.618C282.471 155.111 282.471 160.94 278.618 160.94ZM278.618 179.39H204.462C200.61 179.39 200.61 173.561 204.462 173.561H278.618C282.471 173.561 282.471 179.39 278.618 179.39ZM278.618 197.841H204.462C200.61 197.841 200.61 192.012 204.462 192.012H278.618C282.471 192.012 282.471 197.841 278.618 197.841ZM278.618 216.291H204.462C200.61 216.291 200.61 210.462 204.462 210.462H278.618C282.471 210.462 282.471 216.291 278.618 216.291ZM278.618 234.742H232.34C228.488 234.742 228.488 228.912 232.34 228.912H278.618C282.471 228.912 282.471 234.742 278.618 234.742ZM278.618 253.192H232.34C228.488 253.192 228.488 247.363 232.34 247.363H278.618C282.471 247.363 282.471 253.192 278.618 253.192ZM278.618 271.642H232.34C228.488 271.642 228.488 265.813 232.34 265.813H278.618C282.471 265.813 282.471 271.642 278.618 271.642ZM172.072 232.207L168.676 219.586C160.516 223.59 150.834 223.59 142.673 219.586L139.277 232.207L155.7 248.579L172.072 232.207ZM97.764 291.005H115.809V259.629C115.809 255.777 121.638 255.777 121.638 259.629V291.005H189.712V259.629C189.712 255.777 195.541 255.777 195.541 259.629V291.005H213.586V263.482C213.586 248.326 201.269 236.009 186.113 236.009H176.533L157.728 254.814C156.613 255.929 154.737 255.929 153.622 254.814L134.817 236.009H125.237C110.081 236.009 97.764 248.326 97.764 263.482V291.005ZM142.217 212.54C142.369 212.642 142.572 212.743 142.724 212.895C146.424 215.328 150.885 216.747 155.7 216.747C168.778 216.747 179.422 206.103 179.422 192.975V182.33C178.915 175.031 173.492 170.824 163.557 170.216C161.276 173.004 155.447 178.579 146.222 176.755C146.12 176.755 146.019 176.704 145.917 176.704C144.853 176.349 135.324 173.916 131.928 182.837V192.975C131.928 201.085 135.983 208.232 142.217 212.54ZM131.776 173.409C136.844 169.608 143.535 169.912 147.489 171.027C155.345 172.548 159.603 165.755 159.654 165.654C160.211 164.792 161.175 164.235 162.239 164.285C170.957 164.539 176.381 166.972 179.777 170.114C179.828 139.094 128.075 140.107 131.776 173.409ZM115.454 100.165H100.704C96.8516 100.165 96.8516 94.3361 100.704 94.3361H115.454C119.306 94.3361 119.306 100.165 115.454 100.165ZM141.964 100.165H127.163C123.311 100.165 123.311 94.3361 127.163 94.3361H141.964C145.765 94.3361 145.765 100.165 141.964 100.165ZM168.423 100.165H153.673C149.82 100.165 149.82 94.3361 153.673 94.3361H168.423C172.275 94.3361 172.275 100.165 168.423 100.165ZM278.77 100.165H198.937C195.085 100.165 195.085 94.3361 198.937 94.3361H278.77C282.623 94.3361 282.623 100.165 278.77 100.165Z" fill="#364E66" stroke="#8076F1" stroke-width="2" mask="url(#path-4-inside-1_3_18482)"/>
<path d="M195.82 12.8643V70.9154" stroke="white" stroke-width="11" stroke-linecap="round" stroke-linejoin="round"/>
<path d="M318.961 63.8767L277.908 104.93" stroke="white" stroke-width="11" stroke-linecap="round" stroke-linejoin="round"/>
<path d="M369.975 187.018H311.924" stroke="white" stroke-width="11" stroke-linecap="round" stroke-linejoin="round"/>
<path d="M318.961 310.158L277.908 269.105" stroke="white" stroke-width="11" stroke-linecap="round" stroke-linejoin="round"/>
<path d="M195.82 361.171V303.12" stroke="white" stroke-width="11" stroke-linecap="round" stroke-linejoin="round"/>
<path d="M72.6797 310.158L113.733 269.105" stroke="white" stroke-width="11" stroke-linecap="round" stroke-linejoin="round"/>
<path d="M21.668 187.018H79.7191" stroke="white" stroke-width="11" stroke-linecap="round" stroke-linejoin="round"/>
<path d="M72.6797 63.8767L113.733 104.93" stroke="white" stroke-width="11" stroke-linecap="round" stroke-linejoin="round"/>
<defs>
<linearGradient id="paint0_linear_3_18482" x1="369.976" y1="196" x2="21.668" y2="196" gradientUnits="userSpaceOnUse">
<stop stop-color="#9857FF"/>
<stop offset="0.516855" stop-color="white"/>
<stop offset="1" stop-color="#9857FF"/>
</linearGradient>
<linearGradient id="paint1_linear_3_18482" x1="334.287" y1="196" x2="57.3537" y2="196" gradientUnits="userSpaceOnUse">
<stop stop-color="#9857FF"/>
<stop offset="0.516855" stop-color="white"/>
<stop offset="1" stop-color="#9857FF"/>
</linearGradient>
<linearGradient id="paint2_linear_3_18482" x1="291.181" y1="196" x2="100.46" y2="196" gradientUnits="userSpaceOnUse">
<stop stop-color="#9857FF"/>
<stop offset="0.516855" stop-color="white"/>
<stop offset="1" stop-color="#9857FF"/>
</linearGradient>
</defs>
</svg>
