<svg width="54" height="52" viewBox="0 0 54 52" fill="none" xmlns="http://www.w3.org/2000/svg">
<g id="Group 3">
<path id="Rectangle 2" d="M0 6.9538C0 3.39513 2.88487 0.510254 6.44355 0.510254H24.6536C29.7904 0.510254 33.9547 4.67451 33.9547 9.81138V43.8221C33.9547 48.0616 30.5179 51.4983 26.2785 51.4983C22.039 51.4983 18.6022 48.0616 18.6022 43.8221V32.4478V22.6985C18.6022 17.5616 14.438 13.3974 9.30113 13.3974H6.44355C2.88488 13.3974 0 10.5125 0 6.9538Z" fill="url(#paint0_linear_92_490)"/>
<path id="Intersect" fill-rule="evenodd" clip-rule="evenodd" d="M10.7019 13.3973C16.7159 12.8931 33.8987 15.8067 33.8987 31.0471L33.9547 30.9726V9.81138C33.9547 4.67451 29.7904 0.510254 24.6536 0.510254H6.44355C2.88487 0.510254 0 3.39513 0 6.9538C0 10.5125 2.88488 13.3974 6.44355 13.3974H9.30113C9.65814 13.3974 10.0105 13.4175 10.357 13.4566L10.7019 13.3973Z" fill="url(#paint1_linear_92_490)"/>
<rect id="Rectangle 3" x="38.2839" y="0.501465" width="15.7161" height="15.7161" rx="7.85807" fill="url(#paint2_linear_92_490)"/>
</g>
<defs>
<linearGradient id="paint0_linear_92_490" x1="21.9081" y1="12.4448" x2="46.7147" y2="24.9219" gradientUnits="userSpaceOnUse">
<stop stop-color="#EF6F9F"/>
<stop offset="0.69" stop-color="#FFB55C"/>
</linearGradient>
<linearGradient id="paint1_linear_92_490" x1="3.12792" y1="-2.77675" x2="39.9523" y2="15.0991" gradientUnits="userSpaceOnUse">
<stop stop-color="#FFB55C"/>
<stop offset="1" stop-color="#EF6F9F"/>
</linearGradient>
<linearGradient id="paint2_linear_92_490" x1="38.2839" y1="0.276949" x2="56.804" y2="4.84175" gradientUnits="userSpaceOnUse">
<stop stop-color="#FFB55C"/>
<stop offset="1" stop-color="#EF6F9F"/>
</linearGradient>
</defs>
</svg>
