<svg width="25" height="25" viewBox="0 0 25 25" fill="none" xmlns="http://www.w3.org/2000/svg">
<path d="M22.8125 8.38393C22.7423 8.30375 22.6558 8.23946 22.5588 8.19533C22.4618 8.1512 22.3566 8.12824 22.25 8.12799H18.0903L13.0625 2.38393C12.9921 2.30412 12.9056 2.24021 12.8086 2.19643C12.7116 2.15265 12.6064 2.13 12.5 2.13C12.3936 2.13 12.2884 2.15265 12.1914 2.19643C12.0944 2.24021 12.0079 2.30412 11.9375 2.38393L6.90968 8.12799H2.74999C2.6431 8.12798 2.53744 8.15082 2.4401 8.19498C2.34276 8.23914 2.25598 8.30359 2.18558 8.38402C2.11518 8.46445 2.06279 8.559 2.03191 8.66134C2.00104 8.76367 1.99239 8.87142 2.00655 8.97736L3.41936 19.5767C3.46865 19.9365 3.64626 20.2663 3.91949 20.5054C4.19272 20.7445 4.54316 20.8768 4.90624 20.878H20.0937C20.4568 20.8768 20.8073 20.7445 21.0805 20.5054C21.3537 20.2663 21.5313 19.9365 21.5806 19.5767L22.9934 8.97736C23.0073 8.87127 22.9984 8.76342 22.9672 8.66106C22.936 8.5587 22.8832 8.46421 22.8125 8.38393ZM8.14999 17.878C8.1247 17.8794 8.09934 17.8794 8.07405 17.878C7.88748 17.8789 7.70725 17.8103 7.56857 17.6855C7.42989 17.5607 7.34271 17.3886 7.32405 17.203L6.79905 11.953C6.77916 11.7551 6.83871 11.5574 6.96459 11.4033C7.09047 11.2493 7.27238 11.1516 7.4703 11.1317C7.66822 11.1118 7.86593 11.1714 8.01995 11.2973C8.17396 11.4232 8.27166 11.6051 8.29155 11.803L8.81655 17.053C8.83756 17.2508 8.77913 17.4488 8.65413 17.6035C8.52912 17.7582 8.34778 17.857 8.14999 17.878ZM13.25 17.128C13.25 17.3269 13.171 17.5177 13.0303 17.6583C12.8897 17.799 12.6989 17.878 12.5 17.878C12.3011 17.878 12.1103 17.799 11.9697 17.6583C11.829 17.5177 11.75 17.3269 11.75 17.128V11.878C11.75 11.6791 11.829 11.4883 11.9697 11.3477C12.1103 11.207 12.3011 11.128 12.5 11.128C12.6989 11.128 12.8897 11.207 13.0303 11.3477C13.171 11.4883 13.25 11.6791 13.25 11.878V17.128ZM8.9028 8.12799L12.5 4.01705L16.0972 8.12799H8.9028ZM18.1962 11.953L17.6712 17.203C17.6527 17.3878 17.5661 17.5592 17.4285 17.6839C17.2908 17.8086 17.1117 17.8778 16.9259 17.878C16.9006 17.8794 16.8753 17.8794 16.85 17.878C16.752 17.8681 16.6569 17.8391 16.5701 17.7925C16.4833 17.7459 16.4066 17.6826 16.3443 17.6064C16.2819 17.5301 16.2352 17.4423 16.2068 17.348C16.1784 17.2537 16.1689 17.1547 16.1787 17.0567L16.7037 11.8067C16.7236 11.6088 16.8213 11.4269 16.9753 11.301C17.1294 11.1751 17.3271 11.1156 17.525 11.1355C17.7229 11.1554 17.9048 11.2531 18.0307 11.4071C18.1566 11.5611 18.2161 11.7588 18.1962 11.9567V11.953Z" fill="white"/>
</svg>
