<svg width="33" height="32" viewBox="0 0 33 32" fill="none" xmlns="http://www.w3.org/2000/svg">
<path opacity="0.2" d="M19.6216 10C19.6216 10.5933 19.4456 11.1734 19.116 11.6667C18.7863 12.1601 18.3178 12.5446 17.7696 12.7716C17.2215 12.9987 16.6183 13.0581 16.0363 12.9424C15.4544 12.8266 14.9198 12.5409 14.5003 12.1213C14.0807 11.7018 13.795 11.1672 13.6792 10.5853C13.5635 10.0033 13.6229 9.40013 13.8499 8.85195C14.077 8.30377 14.4615 7.83524 14.9549 7.50559C15.4482 7.17595 16.0282 7 16.6216 7C17.4172 7 18.1803 7.31607 18.7429 7.87868C19.3055 8.44129 19.6216 9.20435 19.6216 10ZM5.62158 19C5.02824 19 4.44822 19.1759 3.95487 19.5056C3.46153 19.8352 3.07701 20.3038 2.84994 20.8519C2.62288 21.4001 2.56347 22.0033 2.67923 22.5853C2.79498 23.1672 3.08071 23.7018 3.50026 24.1213C3.91982 24.5409 4.45437 24.8266 5.03631 24.9424C5.61826 25.0581 6.22146 24.9987 6.76963 24.7716C7.31781 24.5446 7.78635 24.1601 8.11599 23.6667C8.44564 23.1734 8.62158 22.5933 8.62158 22C8.62158 21.2044 8.30551 20.4413 7.7429 19.8787C7.18029 19.3161 6.41723 19 5.62158 19ZM27.6216 19C27.0282 19 26.4482 19.1759 25.9549 19.5056C25.4615 19.8352 25.077 20.3038 24.8499 20.8519C24.6229 21.4001 24.5635 22.0033 24.6792 22.5853C24.795 23.1672 25.0807 23.7018 25.5003 24.1213C25.9198 24.5409 26.4544 24.8266 27.0363 24.9424C27.6183 25.0581 28.2215 24.9987 28.7696 24.7716C29.3178 24.5446 29.7863 24.1601 30.116 23.6667C30.4456 23.1734 30.6216 22.5933 30.6216 22C30.6216 21.2044 30.3055 20.4413 29.7429 19.8787C29.1803 19.3161 28.4172 19 27.6216 19Z" fill="white"/>
<path d="M28.2553 18.0512C27.5128 15.1634 25.7289 12.652 23.2466 11H30.6216C30.8868 11 31.1412 10.8946 31.3287 10.7071C31.5162 10.5195 31.6216 10.2652 31.6216 9.99997C31.6216 9.73475 31.5162 9.4804 31.3287 9.29286C31.1412 9.10533 30.8868 8.99997 30.6216 8.99997H20.4966C20.2763 8.13955 19.7759 7.37693 19.0743 6.83233C18.3727 6.28773 17.5098 5.99213 16.6216 5.99213C15.7334 5.99213 14.8705 6.28773 14.1689 6.83233C13.4673 7.37693 12.9669 8.13955 12.7466 8.99997H2.62158C2.35637 8.99997 2.10201 9.10533 1.91448 9.29286C1.72694 9.4804 1.62158 9.73475 1.62158 9.99997C1.62158 10.2652 1.72694 10.5195 1.91448 10.7071C2.10201 10.8946 2.35637 11 2.62158 11H9.99658C7.51428 12.652 5.73036 15.1634 4.98783 18.0512C4.02767 18.2044 3.15619 18.7021 2.53634 19.4512C1.91648 20.2003 1.5907 21.1495 1.61991 22.1214C1.64912 23.0933 2.03132 24.0212 2.69504 24.7318C3.35876 25.4423 4.25856 25.8867 5.22619 25.982C6.19382 26.0773 7.16302 25.8168 7.95256 25.2494C8.7421 24.6819 9.29793 23.8463 9.5161 22.8988C9.73428 21.9513 9.59986 20.9568 9.138 20.1012C8.67613 19.2456 7.91843 18.5875 7.00658 18.25C7.43593 16.7696 8.19921 15.4075 9.23768 14.2685C10.2761 13.1295 11.5621 12.2439 12.9966 11.68C13.3175 12.372 13.8297 12.9578 14.4726 13.3684C15.1156 13.7789 15.8625 13.9971 16.6253 13.9971C17.3882 13.9971 18.1351 13.7789 18.778 13.3684C19.421 12.9578 19.9331 12.372 20.2541 11.68C21.6872 12.2449 22.9716 13.1309 24.0088 14.2698C25.0459 15.4088 25.808 16.7704 26.2366 18.25C25.3243 18.5863 24.5658 19.2435 24.1028 20.0985C23.6399 20.9535 23.5042 21.9479 23.7212 22.8957C23.9382 23.8435 24.493 24.6798 25.2819 25.2482C26.0707 25.8167 27.0396 26.0783 28.0074 25.9842C28.9751 25.8902 29.8755 25.4468 30.5401 24.7371C31.2047 24.0273 31.588 23.0998 31.6184 22.128C31.6488 21.1562 31.3241 20.2065 30.7052 19.4567C30.0862 18.7068 29.2153 18.2081 28.2553 18.0537V18.0512ZM7.62158 22C7.62158 22.3955 7.50429 22.7822 7.28452 23.1111C7.06476 23.44 6.7524 23.6964 6.38695 23.8477C6.0215 23.9991 5.61937 24.0387 5.2314 23.9615C4.84344 23.8844 4.48708 23.6939 4.20737 23.4142C3.92767 23.1345 3.73718 22.7781 3.66001 22.3902C3.58284 22.0022 3.62245 21.6001 3.77383 21.2346C3.9252 20.8692 4.18155 20.5568 4.51044 20.337C4.83934 20.1173 5.22602 20 5.62158 20C6.15202 20 6.66073 20.2107 7.0358 20.5858C7.41087 20.9608 7.62158 21.4695 7.62158 22ZM16.6216 12C16.226 12 15.8393 11.8827 15.5104 11.6629C15.1815 11.4431 14.9252 11.1308 14.7738 10.7653C14.6225 10.3999 14.5828 9.99775 14.66 9.60979C14.7372 9.22183 14.9277 8.86546 15.2074 8.58576C15.4871 8.30605 15.8434 8.11557 16.2314 8.0384C16.6194 7.96123 17.0215 8.00084 17.387 8.15221C17.7524 8.30359 18.0648 8.55993 18.2845 8.88883C18.5043 9.21773 18.6216 9.60441 18.6216 9.99997C18.6216 10.5304 18.4109 11.0391 18.0358 11.4142C17.6607 11.7893 17.152 12 16.6216 12ZM27.6216 24C27.226 24 26.8393 23.8827 26.5104 23.6629C26.1815 23.4431 25.9252 23.1308 25.7738 22.7653C25.6224 22.3999 25.5828 21.9978 25.66 21.6098C25.7372 21.2218 25.9277 20.8655 26.2074 20.5858C26.4871 20.3061 26.8434 20.1156 27.2314 20.0384C27.6194 19.9612 28.0215 20.0008 28.387 20.1522C28.7524 20.3036 29.0648 20.5599 29.2845 20.8888C29.5043 21.2177 29.6216 21.6044 29.6216 22C29.6216 22.5304 29.4109 23.0391 29.0358 23.4142C28.6607 23.7893 28.152 24 27.6216 24Z" fill="white"/>
</svg>
