<svg width="35" height="35" viewBox="0 0 35 35" fill="none" xmlns="http://www.w3.org/2000/svg">
<path d="M24.9176 5.67169H10.1891C9.77061 5.67169 9.36923 5.83795 9.07328 6.13389C8.77734 6.42984 8.61108 6.83122 8.61108 7.24975V30.3945C8.61113 30.4884 8.6363 30.5806 8.68398 30.6614C8.73165 30.7423 8.8001 30.8089 8.88222 30.8544C8.96434 30.8999 9.05713 30.9226 9.15097 30.9201C9.24482 30.9176 9.33629 30.8901 9.41589 30.8403L17.5534 25.7551L25.6922 30.8403C25.7754 30.8924 25.8715 30.9202 25.9697 30.9205C26.0589 30.9203 26.1466 30.8977 26.2248 30.8548C26.3069 30.8092 26.3754 30.7425 26.423 30.6616C26.4706 30.5807 26.4957 30.4884 26.4957 30.3945V7.24975C26.4957 6.83122 26.3294 6.42984 26.0335 6.13389C25.7375 5.83795 25.3362 5.67169 24.9176 5.67169ZM10.1891 6.72373H24.9176C25.0571 6.72373 25.1909 6.77915 25.2896 6.87779C25.3882 6.97644 25.4437 7.11024 25.4437 7.24975V23.1329L17.8309 18.3763C17.7473 18.3241 17.6507 18.2964 17.5521 18.2964C17.4535 18.2964 17.3569 18.3241 17.2733 18.3763L9.66312 23.1329V7.24975C9.66312 7.11024 9.71854 6.97644 9.81719 6.87779C9.91583 6.77915 10.0496 6.72373 10.1891 6.72373ZM17.8309 24.6886C17.7473 24.6363 17.6507 24.6086 17.5521 24.6086C17.4535 24.6086 17.3569 24.6363 17.2733 24.6886L9.66312 29.4451V24.3743L17.5534 19.4428L25.4437 24.3743V29.4451L17.8309 24.6886Z" fill="#E3E3E3"/>
</svg>
