<svg width="56" height="57" viewBox="0 0 56 57" fill="none" xmlns="http://www.w3.org/2000/svg">
<path d="M50.75 19.7684V12.5802C50.75 11.652 50.3812 10.7617 49.7249 10.1054C49.0685 9.44898 48.1783 9.08023 47.25 9.08023H8.75C7.82174 9.08023 6.9315 9.44898 6.27513 10.1054C5.61875 10.7617 5.25 11.652 5.25 12.5802V40.5802C5.25 41.5085 5.61875 42.3987 6.27513 43.0551C6.9315 43.7115 7.82174 44.0802 8.75 44.0802H33.25V49.3302C33.2498 49.6287 33.3259 49.9222 33.4711 50.183C33.6163 50.4437 33.8258 50.663 34.0797 50.8199C34.3335 50.9769 34.6233 51.0663 34.9214 51.0797C35.2196 51.0931 35.5162 51.03 35.7831 50.8965L42 47.7859L48.2169 50.8965C48.4838 51.03 48.7804 51.0931 49.0786 51.0797C49.3767 51.0663 49.6665 50.9769 49.9203 50.8199C50.1742 50.663 50.3837 50.4437 50.5289 50.183C50.6741 49.9222 50.7502 49.6287 50.75 49.3302V36.8921C52.9934 34.6069 54.2503 31.5325 54.2503 28.3302C54.2503 25.1279 52.9934 22.0535 50.75 19.7684ZM28 31.8302H15.75C15.2859 31.8302 14.8408 31.6459 14.5126 31.3177C14.1844 30.9895 14 30.5444 14 30.0802C14 29.6161 14.1844 29.171 14.5126 28.8428C14.8408 28.5146 15.2859 28.3302 15.75 28.3302H28C28.4641 28.3302 28.9093 28.5146 29.2374 28.8428C29.5656 29.171 29.75 29.6161 29.75 30.0802C29.75 30.5444 29.5656 30.9895 29.2374 31.3177C28.9093 31.6459 28.4641 31.8302 28 31.8302ZM28 24.8302H15.75C15.2859 24.8302 14.8408 24.6459 14.5126 24.3177C14.1844 23.9895 14 23.5444 14 23.0802C14 22.6161 14.1844 22.171 14.5126 21.8428C14.8408 21.5146 15.2859 21.3302 15.75 21.3302H28C28.4641 21.3302 28.9093 21.5146 29.2374 21.8428C29.5656 22.171 29.75 22.6161 29.75 23.0802C29.75 23.5444 29.5656 23.9895 29.2374 24.3177C28.9093 24.6459 28.4641 24.8302 28 24.8302ZM47.25 46.4996L42.7831 44.264C42.54 44.1423 42.2719 44.079 42 44.079C41.7281 44.079 41.46 44.1423 41.2169 44.264L36.75 46.4996V39.3968C38.3905 40.176 40.1839 40.5802 42 40.5802C43.8161 40.5802 45.6095 40.176 47.25 39.3968V46.4996ZM42 37.0802C40.2694 37.0802 38.5777 36.5671 37.1388 35.6056C35.6998 34.6441 34.5783 33.2776 33.9161 31.6787C33.2538 30.0799 33.0805 28.3205 33.4181 26.6232C33.7557 24.9259 34.5891 23.3668 35.8128 22.143C37.0365 20.9193 38.5956 20.086 40.293 19.7484C41.9903 19.4107 43.7496 19.584 45.3485 20.2463C46.9473 20.9086 48.3139 22.0301 49.2754 23.469C50.2368 24.9079 50.75 26.5996 50.75 28.3302C50.75 30.6509 49.8281 32.8765 48.1872 34.5174C46.5462 36.1584 44.3206 37.0802 42 37.0802Z" fill="#D0D0D0"/>
</svg>
