<svg width="35" height="35" viewBox="0 0 35 35" fill="none" xmlns="http://www.w3.org/2000/svg">
<path d="M22.5447 10.9739C21.6952 8.80631 20.1156 7.00327 18.0786 5.87601C16.0416 4.74876 13.6749 4.36802 11.3871 4.79952C9.09931 5.23101 7.03393 6.44766 5.54746 8.23948C4.06098 10.0313 3.24669 12.2858 3.24512 14.614V23.2933C3.24512 23.642 3.38367 23.9765 3.63028 24.2231C3.8769 24.4698 4.21139 24.6083 4.56016 24.6083H12.3623C13.1023 26.4693 14.3835 28.0656 16.0402 29.1908C17.6969 30.3161 19.653 30.9186 21.6557 30.9205H30.335C30.6838 30.9205 31.0183 30.782 31.2649 30.5354C31.5115 30.2887 31.6501 29.9542 31.6501 29.6055V20.9262C31.6495 18.4298 30.7147 16.0241 29.0296 14.1823C27.3445 12.3405 25.0312 11.196 22.5447 10.9739ZM4.29715 23.2933V14.614C4.29715 12.8453 4.82161 11.1164 5.8042 9.64589C6.7868 8.17533 8.18339 7.02918 9.81739 6.35235C11.4514 5.67553 13.2494 5.49845 14.984 5.84349C16.7187 6.18853 18.312 7.0402 19.5626 8.2908C20.8132 9.54141 21.6649 11.1348 22.0099 12.8694C22.355 14.604 22.1779 16.402 21.5011 18.036C20.8242 19.67 19.6781 21.0666 18.2075 22.0492C16.737 23.0318 15.0081 23.5563 13.2395 23.5563H4.56016C4.49041 23.5563 4.42351 23.5286 4.37419 23.4792C4.32486 23.4299 4.29715 23.363 4.29715 23.2933ZM30.598 29.6055C30.598 29.6752 30.5703 29.7421 30.521 29.7915C30.4717 29.8408 30.4048 29.8685 30.335 29.8685H21.6557C19.9352 29.8667 18.2516 29.3698 16.8058 28.437C15.36 27.5043 14.2133 26.1751 13.5025 24.6083C15.0092 24.5688 16.4875 24.1889 17.8267 23.4973C19.1659 22.8056 20.3313 21.8199 21.2356 20.6141C22.14 19.4083 22.76 18.0136 23.0491 16.5343C23.3382 15.0551 23.2889 13.5295 22.905 12.072C25.039 12.3731 26.9925 13.4347 28.406 15.0616C29.8195 16.6884 30.5979 18.771 30.598 20.9262V29.6055Z" fill="#E3E3E3"/>
</svg>
