<svg width="30" height="30" viewBox="0 0 30 30" fill="none" xmlns="http://www.w3.org/2000/svg">
<path d="M27.2401 11.375C27.2401 10.8943 27.0492 10.4332 26.7092 10.0933C26.3693 9.75343 25.9083 9.56247 25.4276 9.56247H21.8026V5.93747C21.8026 5.45676 21.6117 4.99575 21.2717 4.65584C20.9318 4.31593 20.4708 4.12497 19.9901 4.12497H5.49011C5.00941 4.12497 4.54839 4.31593 4.20848 4.65584C3.86857 4.99575 3.67761 5.45676 3.67761 5.93747V20.4375C3.67814 20.608 3.72676 20.7749 3.81788 20.919C3.909 21.0631 4.03892 21.1785 4.19272 21.2521C4.34652 21.3257 4.51796 21.3544 4.68734 21.335C4.85672 21.3155 5.01717 21.2486 5.15027 21.1421L9.11511 17.9453V21.3437C9.11511 21.8244 9.30607 22.2854 9.64598 22.6254C9.98589 22.9653 10.4469 23.1562 10.9276 23.1562H21.5296L25.7675 26.5796C25.9278 26.7093 26.1276 26.7804 26.3339 26.7812C26.5742 26.7812 26.8047 26.6857 26.9747 26.5158C27.1446 26.3458 27.2401 26.1153 27.2401 25.875V11.375ZM22.42 21.5454C22.2596 21.4157 22.0598 21.3445 21.8536 21.3437H10.9276V17.7187H19.9901C20.4708 17.7187 20.9318 17.5278 21.2717 17.1878C21.6117 16.8479 21.8026 16.3869 21.8026 15.9062V11.375H25.4276V23.9775L22.42 21.5454Z" fill="white"/>
</svg>
