<svg width="25" height="25" viewBox="0 0 25 25" fill="none" xmlns="http://www.w3.org/2000/svg">
<path d="M23.0337 9.15068L10.9962 21.1882C10.7149 21.4693 10.3335 21.6272 9.93587 21.6272C9.53821 21.6272 9.15683 21.4693 8.87556 21.1882L2.16118 14.4382C1.88037 14.1569 1.72266 13.7758 1.72266 13.3783C1.72266 12.9809 1.88037 12.5997 2.16118 12.3185L4.03618 10.4435C4.3173 10.1635 4.69788 10.0064 5.09462 10.0064C5.49135 10.0064 5.87193 10.1635 6.15306 10.4435L9.97337 14.1485L19.0446 5.18881C19.3258 4.90858 19.7066 4.75122 20.1035 4.75122C20.5005 4.75122 20.8813 4.90858 21.1624 5.18881L23.0327 7.02068C23.1734 7.16007 23.2851 7.32592 23.3613 7.50868C23.4375 7.69143 23.4768 7.88747 23.4769 8.08549C23.477 8.28351 23.4379 8.47958 23.3618 8.6624C23.2857 8.84523 23.1742 9.01118 23.0337 9.15068Z" fill="black"/>
</svg>
