<svg width="33" height="32" viewBox="0 0 33 32" fill="none" xmlns="http://www.w3.org/2000/svg">
<path opacity="0.2" d="M30.1404 16L24.1404 21H8.14044L2.14044 16L8.14044 11H24.1404L30.1404 16Z" fill="white"/>
<path d="M8.78045 11.7687L3.70295 16L8.78045 20.2312C8.88425 20.3143 8.97044 20.4173 9.03398 20.5341C9.09751 20.6509 9.13711 20.7792 9.15045 20.9115C9.1638 21.0438 9.15063 21.1775 9.1117 21.3046C9.07278 21.4317 9.00889 21.5499 8.92377 21.652C8.83866 21.7542 8.73402 21.8383 8.61599 21.8996C8.49795 21.9608 8.36889 21.9979 8.23636 22.0086C8.10382 22.0194 7.97047 22.0036 7.84411 21.9622C7.71775 21.9208 7.60092 21.8546 7.50045 21.7675L1.50045 16.7675C1.38786 16.6736 1.29728 16.5562 1.23513 16.4234C1.17297 16.2907 1.14075 16.1459 1.14075 15.9993C1.14075 15.8528 1.17297 15.708 1.23513 15.5753C1.29728 15.4425 1.38786 15.3251 1.50045 15.2312L7.50045 10.2312C7.70433 10.0615 7.96729 9.97969 8.23149 10.0038C8.49568 10.028 8.73946 10.1561 8.9092 10.36C9.07894 10.5639 9.16073 10.8268 9.13658 11.091C9.11244 11.3552 8.98433 11.599 8.78045 11.7687ZM30.7804 15.2312L24.7804 10.2312C24.6795 10.1472 24.563 10.0838 24.4375 10.0448C24.3121 10.0058 24.1802 9.99188 24.0494 10.0038C23.9186 10.0158 23.7914 10.0534 23.6751 10.1145C23.5589 10.1756 23.4557 10.259 23.3717 10.36C23.202 10.5639 23.1202 10.8268 23.1443 11.091C23.1685 11.3552 23.2966 11.599 23.5004 11.7687L28.5779 16L23.5004 20.2312C23.3966 20.3143 23.3104 20.4173 23.2469 20.5341C23.1834 20.6509 23.1438 20.7792 23.1304 20.9115C23.1171 21.0438 23.1303 21.1775 23.1692 21.3046C23.2081 21.4317 23.272 21.5499 23.3571 21.652C23.4422 21.7542 23.5469 21.8383 23.6649 21.8996C23.7829 21.9608 23.912 21.9979 24.0445 22.0086C24.1771 22.0194 24.3104 22.0036 24.4368 21.9622C24.5631 21.9208 24.68 21.8546 24.7804 21.7675L30.7804 16.7675C30.893 16.6736 30.9836 16.5562 31.0458 16.4234C31.1079 16.2907 31.1401 16.1459 31.1401 15.9993C31.1401 15.8528 31.1079 15.708 31.0458 15.5753C30.9836 15.4425 30.893 15.3251 30.7804 15.2312ZM20.4817 4.05997C20.3583 4.01515 20.2272 3.99509 20.096 4.00093C19.9648 4.00676 19.836 4.03838 19.7171 4.09398C19.5981 4.14958 19.4912 4.22807 19.4026 4.32497C19.3139 4.42187 19.2453 4.53528 19.2004 4.65872L11.2004 26.6587C11.1554 26.7822 11.1352 26.9134 11.141 27.0448C11.1467 27.1761 11.1783 27.305 11.2339 27.4241C11.2895 27.5432 11.3681 27.6502 11.4651 27.739C11.5621 27.8277 11.6756 27.8964 11.7992 27.9412C11.9088 27.9802 12.0242 28 12.1404 28C12.3458 28 12.5462 27.9368 12.7144 27.8189C12.8826 27.701 13.0104 27.5343 13.0804 27.3412L21.0804 5.34122C21.1253 5.21778 21.1453 5.08672 21.1395 4.95552C21.1337 4.82433 21.102 4.69556 21.0464 4.57659C20.9908 4.45761 20.9123 4.35075 20.8155 4.26211C20.7186 4.17347 20.6051 4.10478 20.4817 4.05997Z" fill="white"/>
</svg>
