<svg width="219" height="130" viewBox="0 0 219 130" fill="none" xmlns="http://www.w3.org/2000/svg">
<path opacity="0.2" d="M29.5784 19V22C29.5784 22.2652 29.473 22.5196 29.2855 22.7071C29.0979 22.8947 28.8436 23 28.5784 23H4.57837C4.31315 23 4.0588 22.8947 3.87126 22.7071C3.68373 22.5196 3.57837 22.2652 3.57837 22V19.1413C3.57837 11.9563 9.34712 6.02502 16.5321 6.00002C18.2432 5.99393 19.9386 6.3257 21.5212 6.97628C23.1038 7.62687 24.5424 8.58347 25.7544 9.79124C26.9665 10.999 27.9282 12.4342 28.5844 14.0144C29.2406 15.5947 29.5784 17.2889 29.5784 19Z" fill="white"/>
<path d="M26.4609 9.08374C25.1646 7.78456 23.624 6.75483 21.9279 6.05393C20.2317 5.35303 18.4136 4.99484 16.5784 4.99999H16.5284C8.83712 5.02624 2.57837 11.375 2.57837 19.1412V22C2.57837 22.5304 2.78908 23.0391 3.16416 23.4142C3.53923 23.7893 4.04794 24 4.57837 24H28.5784C29.1088 24 29.6175 23.7893 29.9926 23.4142C30.3677 23.0391 30.5784 22.5304 30.5784 22V19C30.5835 17.1567 30.2221 15.3308 29.5153 13.6285C28.8084 11.9261 27.7701 10.3812 26.4609 9.08374ZM28.5784 22H15.5421L22.3871 12.5875C22.5433 12.373 22.6078 12.1053 22.5666 11.8432C22.5253 11.5811 22.3816 11.3461 22.1671 11.19C21.9526 11.0338 21.6849 10.9693 21.4228 11.0106C21.1607 11.0518 20.9258 11.1955 20.7696 11.41L13.0684 22H4.57837V19.1412C4.57837 18.7562 4.59712 18.3762 4.63212 18H7.57837C7.84359 18 8.09794 17.8946 8.28548 17.7071C8.47301 17.5196 8.57837 17.2652 8.57837 17C8.57837 16.7348 8.47301 16.4804 8.28548 16.2929C8.09794 16.1054 7.84359 16 7.57837 16H4.98712C6.27712 11.1425 10.4871 7.46999 15.5784 7.04249V9.99999C15.5784 10.2652 15.6837 10.5196 15.8713 10.7071C16.0588 10.8946 16.3132 11 16.5784 11C16.8436 11 17.0979 10.8946 17.2855 10.7071C17.473 10.5196 17.5784 10.2652 17.5784 9.99999V7.04124C20.0592 7.25002 22.4139 8.22412 24.3172 9.82894C26.2206 11.4338 27.5785 13.5901 28.2034 16H25.5784C25.3132 16 25.0588 16.1054 24.8713 16.2929C24.6837 16.4804 24.5784 16.7348 24.5784 17C24.5784 17.2652 24.6837 17.5196 24.8713 17.7071C25.0588 17.8946 25.3132 18 25.5784 18H28.5371C28.5634 18.3312 28.5784 18.6637 28.5784 19V22Z" fill="white"/>
<path d="M2.74007 50.9022H9.77711C11.4942 50.9022 13.0197 51.2395 14.3535 51.9141C15.6873 52.5733 16.7222 53.5162 17.4581 54.7427C18.194 55.9538 18.5619 57.3567 18.5619 58.9511C18.5619 60.5455 18.194 61.956 17.4581 63.1825C16.7222 64.3937 15.6873 65.3366 14.3535 66.0111C13.0197 66.6704 11.4942 67 9.77711 67H2.74007V50.9022ZM9.63913 64.4703C10.8196 64.4703 11.8545 64.248 12.7437 63.8034C13.6482 63.3435 14.3382 62.6996 14.8134 61.8717C15.304 61.0285 15.5493 60.0549 15.5493 58.9511C15.5493 57.8473 15.304 56.8814 14.8134 56.0535C14.3382 55.2103 13.6482 54.5664 12.7437 54.1218C11.8545 53.6618 10.8196 53.4319 9.63913 53.4319H5.72967V64.4703H9.63913ZM33.4678 54.7197V67H30.7312V65.4132C30.2559 65.9958 29.6657 66.4327 28.9604 66.724C28.2705 67.0153 27.504 67.161 26.6608 67.161C25.4649 67.161 24.3917 66.9003 23.4412 66.3791C22.506 65.8578 21.7701 65.1219 21.2335 64.1714C20.7122 63.2208 20.4516 62.117 20.4516 60.8598C20.4516 59.6027 20.7122 58.5065 21.2335 57.5713C21.7701 56.6208 22.506 55.8849 23.4412 55.3636C24.3917 54.8423 25.4649 54.5817 26.6608 54.5817C27.458 54.5817 28.1862 54.7197 28.8455 54.9956C29.52 55.2716 30.1026 55.6779 30.5932 56.2145V54.7197H33.4678ZM26.9827 64.7003C28.0406 64.7003 28.9144 64.3477 29.6044 63.6425C30.2943 62.9372 30.6392 62.0097 30.6392 60.8598C30.6392 59.71 30.2943 58.7825 29.6044 58.0772C28.9144 57.372 28.0406 57.0194 26.9827 57.0194C25.9249 57.0194 25.051 57.372 24.3611 58.0772C23.6865 58.7825 23.3492 59.71 23.3492 60.8598C23.3492 62.0097 23.6865 62.9372 24.3611 63.6425C25.051 64.3477 25.9249 64.7003 26.9827 64.7003ZM41.0234 67.161C40.0268 67.161 39.0533 67.0307 38.1028 66.77C37.1522 66.5094 36.3933 66.1798 35.8261 65.7812L36.9299 63.5965C37.4819 63.9644 38.1411 64.2634 38.9077 64.4933C39.6896 64.708 40.4561 64.8153 41.2073 64.8153C42.9244 64.8153 43.783 64.363 43.783 63.4585C43.783 63.0292 43.5607 62.7303 43.1161 62.5616C42.6868 62.393 41.9892 62.232 41.0234 62.0787C40.0115 61.9254 39.1836 61.7491 38.5397 61.5497C37.9111 61.3504 37.3592 61.0055 36.8839 60.5149C36.424 60.009 36.194 59.3114 36.194 58.4222C36.194 57.257 36.677 56.3295 37.6428 55.6396C38.624 54.9343 39.9425 54.5817 41.5983 54.5817C42.4415 54.5817 43.2847 54.6814 44.1279 54.8807C44.9712 55.0646 45.6611 55.3176 46.1977 55.6396L45.0938 57.8243C44.0513 57.211 42.8785 56.9044 41.5753 56.9044C40.7321 56.9044 40.0882 57.0347 39.6436 57.2953C39.2143 57.5406 38.9996 57.8702 38.9996 58.2842C38.9996 58.7441 39.2296 59.0737 39.6896 59.2731C40.1648 59.457 40.8931 59.6333 41.8743 59.802C42.8555 59.9553 43.6603 60.1316 44.2889 60.3309C44.9175 60.5302 45.4541 60.8675 45.8987 61.3428C46.3586 61.818 46.5886 62.4926 46.5886 63.3665C46.5886 64.5163 46.0903 65.4362 45.0938 66.1261C44.0973 66.816 42.7405 67.161 41.0234 67.161ZM56.0322 54.5817C57.5807 54.5817 58.8225 55.034 59.7577 55.9385C60.6929 56.8431 61.1605 58.1845 61.1605 59.963V67H58.2859V60.3309C58.2859 59.2577 58.033 58.4528 57.527 57.9162C57.0211 57.3643 56.3005 57.0884 55.3653 57.0884C54.3075 57.0884 53.4719 57.4103 52.8587 58.0542C52.2454 58.6828 51.9388 59.595 51.9388 60.7908V67H49.0642V49.9363H51.9388V56.1455C52.4141 55.6396 52.9966 55.2563 53.6866 54.9956C54.3918 54.7197 55.1737 54.5817 56.0322 54.5817ZM71.6142 54.5817C72.8101 54.5817 73.8756 54.8423 74.8108 55.3636C75.7613 55.8849 76.5049 56.6208 77.0415 57.5713C77.5781 58.5218 77.8464 59.618 77.8464 60.8598C77.8464 62.1017 77.5781 63.2055 77.0415 64.1714C76.5049 65.1219 75.7613 65.8578 74.8108 66.3791C73.8756 66.9003 72.8101 67.161 71.6142 67.161C70.771 67.161 69.9968 67.0153 69.2915 66.724C68.6016 66.4327 68.019 65.9958 67.5438 65.4132V67H64.8072V49.9363H67.6818V56.2145C68.1724 55.6779 68.7473 55.2716 69.4065 54.9956C70.0811 54.7197 70.817 54.5817 71.6142 54.5817ZM71.2923 64.7003C72.3501 64.7003 73.2163 64.3477 73.8909 63.6425C74.5808 62.9372 74.9258 62.0097 74.9258 60.8598C74.9258 59.71 74.5808 58.7825 73.8909 58.0772C73.2163 57.372 72.3501 57.0194 71.2923 57.0194C70.6024 57.0194 69.9814 57.1803 69.4295 57.5023C68.8776 57.8089 68.4407 58.2535 68.1187 58.8361C67.7967 59.4187 67.6358 60.0933 67.6358 60.8598C67.6358 61.6264 67.7967 62.301 68.1187 62.8836C68.4407 63.4661 68.8776 63.9184 69.4295 64.2404C69.9814 64.547 70.6024 64.7003 71.2923 64.7003ZM86.0918 67.161C84.85 67.161 83.7308 66.8927 82.7343 66.3561C81.7377 65.8195 80.9559 65.0759 80.3886 64.1254C79.8367 63.1595 79.5607 62.071 79.5607 60.8598C79.5607 59.6487 79.8367 58.5678 80.3886 57.6173C80.9559 56.6667 81.7377 55.9232 82.7343 55.3866C83.7308 54.85 84.85 54.5817 86.0918 54.5817C87.349 54.5817 88.4758 54.85 89.4724 55.3866C90.4689 55.9232 91.2431 56.6667 91.795 57.6173C92.3623 58.5678 92.6459 59.6487 92.6459 60.8598C92.6459 62.071 92.3623 63.1595 91.795 64.1254C91.2431 65.0759 90.4689 65.8195 89.4724 66.3561C88.4758 66.8927 87.349 67.161 86.0918 67.161ZM86.0918 64.7003C87.1497 64.7003 88.0236 64.3477 88.7135 63.6425C89.4034 62.9372 89.7483 62.0097 89.7483 60.8598C89.7483 59.71 89.4034 58.7825 88.7135 58.0772C88.0236 57.372 87.1497 57.0194 86.0918 57.0194C85.034 57.0194 84.1601 57.372 83.4702 58.0772C82.7956 58.7825 82.4583 59.71 82.4583 60.8598C82.4583 62.0097 82.7956 62.9372 83.4702 63.6425C84.1601 64.3477 85.034 64.7003 86.0918 64.7003ZM107.399 54.7197V67H104.663V65.4132C104.187 65.9958 103.597 66.4327 102.892 66.724C102.202 67.0153 101.435 67.161 100.592 67.161C99.3962 67.161 98.323 66.9003 97.3725 66.3791C96.4373 65.8578 95.7014 65.1219 95.1648 64.1714C94.6435 63.2208 94.3829 62.117 94.3829 60.8598C94.3829 59.6027 94.6435 58.5065 95.1648 57.5713C95.7014 56.6208 96.4373 55.8849 97.3725 55.3636C98.323 54.8423 99.3962 54.5817 100.592 54.5817C101.389 54.5817 102.118 54.7197 102.777 54.9956C103.451 55.2716 104.034 55.6779 104.525 56.2145V54.7197H107.399ZM100.914 64.7003C101.972 64.7003 102.846 64.3477 103.536 63.6425C104.226 62.9372 104.571 62.0097 104.571 60.8598C104.571 59.71 104.226 58.7825 103.536 58.0772C102.846 57.372 101.972 57.0194 100.914 57.0194C99.8562 57.0194 98.9823 57.372 98.2924 58.0772C97.6178 58.7825 97.2805 59.71 97.2805 60.8598C97.2805 62.0097 97.6178 62.9372 98.2924 63.6425C98.9823 64.3477 99.8562 64.7003 100.914 64.7003ZM113.897 56.5134C114.725 55.2256 116.181 54.5817 118.266 54.5817V57.3183C118.021 57.2723 117.799 57.2493 117.599 57.2493C116.48 57.2493 115.606 57.579 114.978 58.2382C114.349 58.8821 114.035 59.8173 114.035 61.0438V67H111.16V54.7197H113.897V56.5134ZM132.62 49.9363V67H129.86V65.4132C129.385 65.9958 128.795 66.4327 128.089 66.724C127.4 67.0153 126.633 67.161 125.79 67.161C124.609 67.161 123.544 66.9003 122.593 66.3791C121.658 65.8578 120.922 65.1219 120.386 64.1714C119.849 63.2055 119.581 62.1017 119.581 60.8598C119.581 59.618 119.849 58.5218 120.386 57.5713C120.922 56.6208 121.658 55.8849 122.593 55.3636C123.544 54.8423 124.609 54.5817 125.79 54.5817C126.602 54.5817 127.346 54.7197 128.02 54.9956C128.695 55.2716 129.27 55.6855 129.745 56.2375V49.9363H132.62ZM126.135 64.7003C126.825 64.7003 127.446 64.547 127.997 64.2404C128.549 63.9184 128.986 63.4661 129.308 62.8836C129.63 62.301 129.791 61.6264 129.791 60.8598C129.791 60.0933 129.63 59.4187 129.308 58.8361C128.986 58.2535 128.549 57.8089 127.997 57.5023C127.446 57.1803 126.825 57.0194 126.135 57.0194C125.445 57.0194 124.824 57.1803 124.272 57.5023C123.72 57.8089 123.283 58.2535 122.961 58.8361C122.639 59.4187 122.478 60.0933 122.478 60.8598C122.478 61.6264 122.639 62.301 122.961 62.8836C123.283 63.4661 123.72 63.9184 124.272 64.2404C124.824 64.547 125.445 64.7003 126.135 64.7003ZM140.175 67.161C139.178 67.161 138.205 67.0307 137.254 66.77C136.304 66.5094 135.545 66.1798 134.978 65.7812L136.081 63.5965C136.633 63.9644 137.293 64.2634 138.059 64.4933C138.841 64.708 139.608 64.8153 140.359 64.8153C142.076 64.8153 142.934 64.363 142.934 63.4585C142.934 63.0292 142.712 62.7303 142.268 62.5616C141.838 62.393 141.141 62.232 140.175 62.0787C139.163 61.9254 138.335 61.7491 137.691 61.5497C137.063 61.3504 136.511 61.0055 136.035 60.5149C135.575 60.009 135.346 59.3114 135.346 58.4222C135.346 57.257 135.828 56.3295 136.794 55.6396C137.776 54.9343 139.094 54.5817 140.75 54.5817C141.593 54.5817 142.436 54.6814 143.279 54.8807C144.123 55.0646 144.813 55.3176 145.349 55.6396L144.245 57.8243C143.203 57.211 142.03 56.9044 140.727 56.9044C139.884 56.9044 139.24 57.0347 138.795 57.2953C138.366 57.5406 138.151 57.8702 138.151 58.2842C138.151 58.7441 138.381 59.0737 138.841 59.2731C139.316 59.457 140.045 59.6333 141.026 59.802C142.007 59.9553 142.812 60.1316 143.44 60.3309C144.069 60.5302 144.606 60.8675 145.05 61.3428C145.51 61.818 145.74 62.4926 145.74 63.3665C145.74 64.5163 145.242 65.4362 144.245 66.1261C143.249 66.816 141.892 67.161 140.175 67.161Z" fill="white"/>
<path d="M2.40237 100.383V89.1829H6.59437C7.5437 89.1829 8.3597 89.3376 9.04237 89.6469C9.72504 89.9456 10.2477 90.3829 10.6104 90.9589C10.9837 91.5243 11.1704 92.2123 11.1704 93.0229C11.1704 93.8123 10.9837 94.4949 10.6104 95.0709C10.2477 95.6363 9.72504 96.0736 9.04237 96.3829C8.3597 96.6923 7.5437 96.8469 6.59437 96.8469H3.05837L3.58637 96.2869V100.383H2.40237ZM3.58637 96.3829L3.05837 95.8069H6.56237C7.68237 95.8069 8.53037 95.5669 9.10637 95.0869C9.69304 94.5963 9.98637 93.9083 9.98637 93.0229C9.98637 92.1269 9.69304 91.4336 9.10637 90.9429C8.53037 90.4523 7.68237 90.2069 6.56237 90.2069H3.05837L3.58637 89.6469V96.3829ZM17.0116 100.463C16.137 100.463 15.369 100.282 14.7076 99.9189C14.0463 99.5456 13.529 99.0389 13.1556 98.3989C12.7823 97.7483 12.5956 97.0069 12.5956 96.1749C12.5956 95.3429 12.7716 94.6069 13.1236 93.9669C13.4863 93.3269 13.977 92.8256 14.5956 92.4629C15.225 92.0896 15.929 91.9029 16.7076 91.9029C17.497 91.9029 18.1956 92.0843 18.8036 92.4469C19.4223 92.7989 19.9076 93.3003 20.2596 93.9509C20.6116 94.5909 20.7876 95.3323 20.7876 96.1749C20.7876 96.2283 20.7823 96.2869 20.7716 96.3509C20.7716 96.4043 20.7716 96.4629 20.7716 96.5269H13.4596V95.6789H20.1636L19.7156 96.0149C19.7156 95.4069 19.5823 94.8683 19.3156 94.3989C19.0596 93.9189 18.7076 93.5456 18.2596 93.2789C17.8116 93.0123 17.2943 92.8789 16.7076 92.8789C16.1316 92.8789 15.6143 93.0123 15.1556 93.2789C14.697 93.5456 14.3396 93.9189 14.0836 94.3989C13.8276 94.8789 13.6996 95.4283 13.6996 96.0469V96.2229C13.6996 96.8629 13.8383 97.4283 14.1156 97.9189C14.4036 98.3989 14.7983 98.7776 15.2996 99.0549C15.8116 99.3216 16.393 99.4549 17.0436 99.4549C17.5556 99.4549 18.0303 99.3643 18.4676 99.1829C18.9156 99.0016 19.2996 98.7243 19.6196 98.3509L20.2596 99.0869C19.8863 99.5349 19.417 99.8763 18.8516 100.111C18.297 100.346 17.6836 100.463 17.0116 100.463ZM23.0999 100.383V91.9829H24.1879V94.2709L24.0759 93.8709C24.3105 93.2309 24.7052 92.7456 25.2599 92.4149C25.8145 92.0736 26.5025 91.9029 27.3239 91.9029V93.0069C27.2812 93.0069 27.2385 93.0069 27.1959 93.0069C27.1532 92.9963 27.1105 92.9909 27.0679 92.9909C26.1825 92.9909 25.4892 93.2629 24.9879 93.8069C24.4865 94.3403 24.2359 95.1029 24.2359 96.0949V100.383H23.0999ZM31.7465 100.463C31.0532 100.463 30.3972 100.367 29.7785 100.175C29.1598 99.9723 28.6745 99.7216 28.3225 99.4229L28.8345 98.5269C29.1758 98.7829 29.6132 99.0069 30.1465 99.1989C30.6798 99.3803 31.2398 99.4709 31.8265 99.4709C32.6265 99.4709 33.2025 99.3483 33.5545 99.1029C33.9065 98.8469 34.0825 98.5109 34.0825 98.0949C34.0825 97.7856 33.9812 97.5456 33.7785 97.3749C33.5865 97.1936 33.3305 97.0603 33.0105 96.9749C32.6905 96.8789 32.3332 96.7989 31.9385 96.7349C31.5438 96.6709 31.1492 96.5963 30.7545 96.5109C30.3705 96.4256 30.0185 96.3029 29.6985 96.1429C29.3785 95.9723 29.1172 95.7429 28.9145 95.4549C28.7225 95.1669 28.6265 94.7829 28.6265 94.3029C28.6265 93.8443 28.7545 93.4336 29.0105 93.0709C29.2665 92.7083 29.6398 92.4256 30.1305 92.2229C30.6318 92.0096 31.2398 91.9029 31.9545 91.9029C32.4985 91.9029 33.0425 91.9776 33.5865 92.1269C34.1305 92.2656 34.5785 92.4523 34.9305 92.6869L34.4345 93.5989C34.0612 93.3429 33.6612 93.1616 33.2345 93.0549C32.8078 92.9376 32.3812 92.8789 31.9545 92.8789C31.1972 92.8789 30.6372 93.0123 30.2745 93.2789C29.9225 93.5349 29.7465 93.8656 29.7465 94.2709C29.7465 94.5909 29.8425 94.8416 30.0345 95.0229C30.2372 95.2043 30.4985 95.3483 30.8185 95.4549C31.1492 95.5509 31.5065 95.6309 31.8905 95.6949C32.2852 95.7589 32.6745 95.8389 33.0585 95.9349C33.4532 96.0203 33.8105 96.1429 34.1305 96.3029C34.4612 96.4523 34.7225 96.6709 34.9145 96.9589C35.1172 97.2363 35.2185 97.6043 35.2185 98.0629C35.2185 98.5536 35.0798 98.9803 34.8025 99.3429C34.5358 99.6949 34.1412 99.9723 33.6185 100.175C33.1065 100.367 32.4825 100.463 31.7465 100.463ZM40.727 100.463C39.9163 100.463 39.1857 100.282 38.535 99.9189C37.895 99.5456 37.3883 99.0389 37.015 98.3989C36.6417 97.7483 36.455 97.0069 36.455 96.1749C36.455 95.3323 36.6417 94.5909 37.015 93.9509C37.3883 93.3109 37.895 92.8096 38.535 92.4469C39.175 92.0843 39.9057 91.9029 40.727 91.9029C41.559 91.9029 42.295 92.0843 42.935 92.4469C43.5857 92.8096 44.0923 93.3109 44.455 93.9509C44.8283 94.5909 45.015 95.3323 45.015 96.1749C45.015 97.0069 44.8283 97.7483 44.455 98.3989C44.0923 99.0389 43.5857 99.5456 42.935 99.9189C42.2843 100.282 41.5483 100.463 40.727 100.463ZM40.727 99.4549C41.335 99.4549 41.8737 99.3216 42.343 99.0549C42.8123 98.7776 43.1803 98.3936 43.447 97.9029C43.7243 97.4016 43.863 96.8256 43.863 96.1749C43.863 95.5136 43.7243 94.9376 43.447 94.4469C43.1803 93.9563 42.8123 93.5776 42.343 93.3109C41.8737 93.0336 41.3403 92.8949 40.743 92.8949C40.1457 92.8949 39.6123 93.0336 39.143 93.3109C38.6737 93.5776 38.3003 93.9563 38.023 94.4469C37.7457 94.9376 37.607 95.5136 37.607 96.1749C37.607 96.8256 37.7457 97.4016 38.023 97.9029C38.3003 98.3936 38.6737 98.7776 39.143 99.0549C39.6123 99.3216 40.1403 99.4549 40.727 99.4549ZM51.6222 91.9029C52.3049 91.9029 52.9022 92.0363 53.4142 92.3029C53.9369 92.5589 54.3422 92.9536 54.6302 93.4869C54.9289 94.0203 55.0782 94.6923 55.0782 95.5029V100.383H53.9422V95.6149C53.9422 94.7296 53.7182 94.0629 53.2702 93.6149C52.8329 93.1563 52.2142 92.9269 51.4142 92.9269C50.8169 92.9269 50.2942 93.0496 49.8462 93.2949C49.4089 93.5296 49.0676 93.8763 48.8222 94.3349C48.5876 94.7829 48.4702 95.3269 48.4702 95.9669V100.383H47.3342V91.9829H48.4222V94.2869L48.2462 93.8549C48.5129 93.2469 48.9396 92.7723 49.5262 92.4309C50.1129 92.0789 50.8116 91.9029 51.6222 91.9029ZM63.4107 100.383V98.5269L63.3627 98.2229V95.1189C63.3627 94.4043 63.1601 93.8549 62.7547 93.4709C62.3601 93.0869 61.7681 92.8949 60.9787 92.8949C60.4347 92.8949 59.9174 92.9856 59.4267 93.1669C58.9361 93.3483 58.5201 93.5883 58.1787 93.8869L57.6667 93.0389C58.0934 92.6763 58.6054 92.3989 59.2027 92.2069C59.8001 92.0043 60.4294 91.9029 61.0907 91.9029C62.1787 91.9029 63.0161 92.1749 63.6027 92.7189C64.2001 93.2523 64.4987 94.0683 64.4987 95.1669V100.383H63.4107ZM60.5147 100.463C59.8854 100.463 59.3361 100.362 58.8667 100.159C58.4081 99.9456 58.0561 99.6576 57.8107 99.2949C57.5654 98.9216 57.4427 98.4949 57.4427 98.0149C57.4427 97.5776 57.5441 97.1829 57.7467 96.8309C57.9601 96.4683 58.3014 96.1803 58.7707 95.9669C59.2507 95.7429 59.8907 95.6309 60.6907 95.6309H63.5867V96.4789H60.7227C59.9121 96.4789 59.3467 96.6229 59.0267 96.9109C58.7174 97.1989 58.5627 97.5563 58.5627 97.9829C58.5627 98.4629 58.7494 98.8469 59.1227 99.1349C59.4961 99.4229 60.0187 99.5669 60.6907 99.5669C61.3307 99.5669 61.8801 99.4229 62.3387 99.1349C62.8081 98.8363 63.1494 98.4096 63.3627 97.8549L63.6187 98.6389C63.4054 99.1936 63.0321 99.6363 62.4987 99.9669C61.9761 100.298 61.3147 100.463 60.5147 100.463ZM67.5842 100.383V88.5109H68.7202V100.383H67.5842ZM71.8811 100.383V91.9829H73.0171V100.383H71.8811ZM72.4571 90.1269C72.2225 90.1269 72.0251 90.0469 71.8651 89.8869C71.7051 89.7269 71.6251 89.5349 71.6251 89.3109C71.6251 89.0869 71.7051 88.9003 71.8651 88.7509C72.0251 88.5909 72.2225 88.5109 72.4571 88.5109C72.6918 88.5109 72.8891 88.5856 73.0491 88.7349C73.2091 88.8843 73.2891 89.0709 73.2891 89.2949C73.2891 89.5296 73.2091 89.7269 73.0491 89.8869C72.8998 90.0469 72.7025 90.1269 72.4571 90.1269ZM75.266 100.383V99.6309L80.866 92.5429L81.106 92.9269H75.362V91.9829H82.002V92.7189L76.418 99.8229L76.13 99.4389H82.114V100.383H75.266ZM87.7772 100.463C86.9026 100.463 86.1346 100.282 85.4732 99.9189C84.8119 99.5456 84.2946 99.0389 83.9212 98.3989C83.5479 97.7483 83.3612 97.0069 83.3612 96.1749C83.3612 95.3429 83.5372 94.6069 83.8892 93.9669C84.2519 93.3269 84.7426 92.8256 85.3612 92.4629C85.9906 92.0896 86.6946 91.9029 87.4732 91.9029C88.2626 91.9029 88.9612 92.0843 89.5692 92.4469C90.1879 92.7989 90.6732 93.3003 91.0252 93.9509C91.3772 94.5909 91.5532 95.3323 91.5532 96.1749C91.5532 96.2283 91.5479 96.2869 91.5372 96.3509C91.5372 96.4043 91.5372 96.4629 91.5372 96.5269H84.2252V95.6789H90.9292L90.4812 96.0149C90.4812 95.4069 90.3479 94.8683 90.0812 94.3989C89.8252 93.9189 89.4732 93.5456 89.0252 93.2789C88.5772 93.0123 88.0599 92.8789 87.4732 92.8789C86.8972 92.8789 86.3799 93.0123 85.9212 93.2789C85.4626 93.5456 85.1052 93.9189 84.8492 94.3989C84.5932 94.8789 84.4652 95.4283 84.4652 96.0469V96.2229C84.4652 96.8629 84.6039 97.4283 84.8812 97.9189C85.1692 98.3989 85.5639 98.7776 86.0652 99.0549C86.5772 99.3216 87.1586 99.4549 87.8092 99.4549C88.3212 99.4549 88.7959 99.3643 89.2332 99.1829C89.6812 99.0016 90.0652 98.7243 90.3852 98.3509L91.0252 99.0869C90.6519 99.5349 90.1826 99.8763 89.6172 100.111C89.0626 100.346 88.4492 100.463 87.7772 100.463ZM97.2095 100.463C96.4095 100.463 95.6895 100.282 95.0495 99.9189C94.4202 99.5563 93.9242 99.0549 93.5615 98.4149C93.1988 97.7643 93.0175 97.0176 93.0175 96.1749C93.0175 95.3216 93.1988 94.5749 93.5615 93.9349C93.9242 93.2949 94.4202 92.7989 95.0495 92.4469C95.6895 92.0843 96.4095 91.9029 97.2095 91.9029C97.9455 91.9029 98.6015 92.0683 99.1775 92.3989C99.7642 92.7296 100.228 93.2149 100.569 93.8549C100.921 94.4843 101.097 95.2576 101.097 96.1749C101.097 97.0816 100.927 97.8549 100.585 98.4949C100.244 99.1349 99.7802 99.6256 99.1935 99.9669C98.6175 100.298 97.9562 100.463 97.2095 100.463ZM97.2895 99.4549C97.8868 99.4549 98.4202 99.3216 98.8895 99.0549C99.3695 98.7776 99.7428 98.3936 100.009 97.9029C100.287 97.4016 100.425 96.8256 100.425 96.1749C100.425 95.5136 100.287 94.9376 100.009 94.4469C99.7428 93.9563 99.3695 93.5776 98.8895 93.3109C98.4202 93.0336 97.8868 92.8949 97.2895 92.8949C96.7028 92.8949 96.1748 93.0336 95.7055 93.3109C95.2362 93.5776 94.8628 93.9563 94.5855 94.4469C94.3082 94.9376 94.1695 95.5136 94.1695 96.1749C94.1695 96.8256 94.3082 97.4016 94.5855 97.9029C94.8628 98.3936 95.2362 98.7776 95.7055 99.0549C96.1748 99.3216 96.7028 99.4549 97.2895 99.4549ZM100.457 100.383V97.8549L100.569 96.1589L100.409 94.4629V88.5109H101.545V100.383H100.457ZM113.649 100.479C112.219 100.479 111.094 100.068 110.273 99.2469C109.451 98.4256 109.041 97.2096 109.041 95.5989V89.1829H110.225V95.5509C110.225 96.8736 110.523 97.8496 111.121 98.4789C111.718 99.1083 112.561 99.4229 113.649 99.4229C114.747 99.4229 115.595 99.1083 116.193 98.4789C116.79 97.8496 117.089 96.8736 117.089 95.5509V89.1829H118.241V95.5989C118.241 97.2096 117.83 98.4256 117.009 99.2469C116.198 100.068 115.078 100.479 113.649 100.479ZM123.825 100.463C123.131 100.463 122.475 100.367 121.857 100.175C121.238 99.9723 120.753 99.7216 120.401 99.4229L120.913 98.5269C121.254 98.7829 121.691 99.0069 122.225 99.1989C122.758 99.3803 123.318 99.4709 123.905 99.4709C124.705 99.4709 125.281 99.3483 125.633 99.1029C125.985 98.8469 126.161 98.5109 126.161 98.0949C126.161 97.7856 126.059 97.5456 125.857 97.3749C125.665 97.1936 125.409 97.0603 125.089 96.9749C124.769 96.8789 124.411 96.7989 124.017 96.7349C123.622 96.6709 123.227 96.5963 122.833 96.5109C122.449 96.4256 122.097 96.3029 121.777 96.1429C121.457 95.9723 121.195 95.7429 120.993 95.4549C120.801 95.1669 120.705 94.7829 120.705 94.3029C120.705 93.8443 120.833 93.4336 121.089 93.0709C121.345 92.7083 121.718 92.4256 122.209 92.2229C122.71 92.0096 123.318 91.9029 124.033 91.9029C124.577 91.9029 125.121 91.9776 125.665 92.1269C126.209 92.2656 126.657 92.4523 127.009 92.6869L126.513 93.5989C126.139 93.3429 125.739 93.1616 125.313 93.0549C124.886 92.9376 124.459 92.8789 124.033 92.8789C123.275 92.8789 122.715 93.0123 122.353 93.2789C122.001 93.5349 121.825 93.8656 121.825 94.2709C121.825 94.5909 121.921 94.8416 122.113 95.0229C122.315 95.2043 122.577 95.3483 122.897 95.4549C123.227 95.5509 123.585 95.6309 123.969 95.6949C124.363 95.7589 124.753 95.8389 125.137 95.9349C125.531 96.0203 125.889 96.1429 126.209 96.3029C126.539 96.4523 126.801 96.6709 126.993 96.9589C127.195 97.2363 127.297 97.6043 127.297 98.0629C127.297 98.5536 127.158 98.9803 126.881 99.3429C126.614 99.6949 126.219 99.9723 125.697 100.175C125.185 100.367 124.561 100.463 123.825 100.463ZM132.949 100.463C132.074 100.463 131.306 100.282 130.645 99.9189C129.984 99.5456 129.466 99.0389 129.093 98.3989C128.72 97.7483 128.533 97.0069 128.533 96.1749C128.533 95.3429 128.709 94.6069 129.061 93.9669C129.424 93.3269 129.914 92.8256 130.533 92.4629C131.162 92.0896 131.866 91.9029 132.645 91.9029C133.434 91.9029 134.133 92.0843 134.741 92.4469C135.36 92.7989 135.845 93.3003 136.197 93.9509C136.549 94.5909 136.725 95.3323 136.725 96.1749C136.725 96.2283 136.72 96.2869 136.709 96.3509C136.709 96.4043 136.709 96.4629 136.709 96.5269H129.397V95.6789H136.101L135.653 96.0149C135.653 95.4069 135.52 94.8683 135.253 94.3989C134.997 93.9189 134.645 93.5456 134.197 93.2789C133.749 93.0123 133.232 92.8789 132.645 92.8789C132.069 92.8789 131.552 93.0123 131.093 93.2789C130.634 93.5456 130.277 93.9189 130.021 94.3989C129.765 94.8789 129.637 95.4283 129.637 96.0469V96.2229C129.637 96.8629 129.776 97.4283 130.053 97.9189C130.341 98.3989 130.736 98.7776 131.237 99.0549C131.749 99.3216 132.33 99.4549 132.981 99.4549C133.493 99.4549 133.968 99.3643 134.405 99.1829C134.853 99.0016 135.237 98.7243 135.557 98.3509L136.197 99.0869C135.824 99.5349 135.354 99.8763 134.789 100.111C134.234 100.346 133.621 100.463 132.949 100.463ZM139.037 100.383V91.9829H140.125V94.2709L140.013 93.8709C140.248 93.2309 140.643 92.7456 141.197 92.4149C141.752 92.0736 142.44 91.9029 143.261 91.9029V93.0069C143.219 93.0069 143.176 93.0069 143.133 93.0069C143.091 92.9963 143.048 92.9909 143.005 92.9909C142.12 92.9909 141.427 93.2629 140.925 93.8069C140.424 94.3403 140.173 95.1029 140.173 96.0949V100.383H139.037ZM149.887 100.383V89.1829H154.079C155.028 89.1829 155.844 89.3376 156.527 89.6469C157.209 89.9456 157.732 90.3829 158.095 90.9589C158.468 91.5243 158.655 92.2123 158.655 93.0229C158.655 93.8123 158.468 94.4949 158.095 95.0709C157.732 95.6363 157.209 96.0736 156.527 96.3829C155.844 96.6923 155.028 96.8469 154.079 96.8469H150.543L151.071 96.2869V100.383H149.887ZM151.071 96.3829L150.543 95.8069H154.047C155.167 95.8069 156.015 95.5669 156.591 95.0869C157.177 94.5963 157.471 93.9083 157.471 93.0229C157.471 92.1269 157.177 91.4336 156.591 90.9429C156.015 90.4523 155.167 90.2069 154.047 90.2069H150.543L151.071 89.6469V96.3829ZM160.756 100.383V91.9829H161.844V94.2709L161.732 93.8709C161.967 93.2309 162.361 92.7456 162.916 92.4149C163.471 92.0736 164.159 91.9029 164.98 91.9029V93.0069C164.937 93.0069 164.895 93.0069 164.852 93.0069C164.809 92.9963 164.767 92.9909 164.724 92.9909C163.839 92.9909 163.145 93.2629 162.644 93.8069C162.143 94.3403 161.892 95.1029 161.892 96.0949V100.383H160.756ZM170.399 100.463C169.588 100.463 168.858 100.282 168.207 99.9189C167.567 99.5456 167.06 99.0389 166.687 98.3989C166.314 97.7483 166.127 97.0069 166.127 96.1749C166.127 95.3323 166.314 94.5909 166.687 93.9509C167.06 93.3109 167.567 92.8096 168.207 92.4469C168.847 92.0843 169.578 91.9029 170.399 91.9029C171.231 91.9029 171.967 92.0843 172.607 92.4469C173.258 92.8096 173.764 93.3109 174.127 93.9509C174.5 94.5909 174.687 95.3323 174.687 96.1749C174.687 97.0069 174.5 97.7483 174.127 98.3989C173.764 99.0389 173.258 99.5456 172.607 99.9189C171.956 100.282 171.22 100.463 170.399 100.463ZM170.399 99.4549C171.007 99.4549 171.546 99.3216 172.015 99.0549C172.484 98.7776 172.852 98.3936 173.119 97.9029C173.396 97.4016 173.535 96.8256 173.535 96.1749C173.535 95.5136 173.396 94.9376 173.119 94.4469C172.852 93.9563 172.484 93.5776 172.015 93.3109C171.546 93.0336 171.012 92.8949 170.415 92.8949C169.818 92.8949 169.284 93.0336 168.815 93.3109C168.346 93.5776 167.972 93.9563 167.695 94.4469C167.418 94.9376 167.279 95.5136 167.279 96.1749C167.279 96.8256 167.418 97.4016 167.695 97.9029C167.972 98.3936 168.346 98.7776 168.815 99.0549C169.284 99.3216 169.812 99.4549 170.399 99.4549ZM177.198 100.383V90.9269C177.198 90.1803 177.417 89.5776 177.854 89.1189C178.291 88.6603 178.921 88.4309 179.742 88.4309C180.062 88.4309 180.371 88.4736 180.67 88.5589C180.969 88.6443 181.219 88.7776 181.422 88.9589L181.038 89.8069C180.878 89.6683 180.691 89.5669 180.478 89.5029C180.265 89.4283 180.035 89.3909 179.79 89.3909C179.31 89.3909 178.942 89.5243 178.686 89.7909C178.43 90.0576 178.302 90.4523 178.302 90.9749V92.2549L178.334 92.7829V100.383H177.198ZM175.694 92.9269V91.9829H180.894V92.9269H175.694ZM182.43 100.383V91.9829H183.566V100.383H182.43ZM183.006 90.1269C182.771 90.1269 182.574 90.0469 182.414 89.8869C182.254 89.7269 182.174 89.5349 182.174 89.3109C182.174 89.0869 182.254 88.9003 182.414 88.7509C182.574 88.5909 182.771 88.5109 183.006 88.5109C183.241 88.5109 183.438 88.5856 183.598 88.7349C183.758 88.8843 183.838 89.0709 183.838 89.2949C183.838 89.5296 183.758 89.7269 183.598 89.8869C183.449 90.0469 183.251 90.1269 183.006 90.1269ZM186.756 100.383V88.5109H187.892V100.383H186.756ZM194.621 100.463C193.746 100.463 192.978 100.282 192.317 99.9189C191.656 99.5456 191.138 99.0389 190.765 98.3989C190.392 97.7483 190.205 97.0069 190.205 96.1749C190.205 95.3429 190.381 94.6069 190.733 93.9669C191.096 93.3269 191.586 92.8256 192.205 92.4629C192.834 92.0896 193.538 91.9029 194.317 91.9029C195.106 91.9029 195.805 92.0843 196.413 92.4469C197.032 92.7989 197.517 93.3003 197.869 93.9509C198.221 94.5909 198.397 95.3323 198.397 96.1749C198.397 96.2283 198.392 96.2869 198.381 96.3509C198.381 96.4043 198.381 96.4629 198.381 96.5269H191.069V95.6789H197.773L197.325 96.0149C197.325 95.4069 197.192 94.8683 196.925 94.3989C196.669 93.9189 196.317 93.5456 195.869 93.2789C195.421 93.0123 194.904 92.8789 194.317 92.8789C193.741 92.8789 193.224 93.0123 192.765 93.2789C192.306 93.5456 191.949 93.9189 191.693 94.3989C191.437 94.8789 191.309 95.4283 191.309 96.0469V96.2229C191.309 96.8629 191.448 97.4283 191.725 97.9189C192.013 98.3989 192.408 98.7776 192.909 99.0549C193.421 99.3216 194.002 99.4549 194.653 99.4549C195.165 99.4549 195.64 99.3643 196.077 99.1829C196.525 99.0016 196.909 98.7243 197.229 98.3509L197.869 99.0869C197.496 99.5349 197.026 99.8763 196.461 100.111C195.906 100.346 195.293 100.463 194.621 100.463ZM202.965 100.463C202.272 100.463 201.616 100.367 200.997 100.175C200.379 99.9723 199.893 99.7216 199.541 99.4229L200.053 98.5269C200.395 98.7829 200.832 99.0069 201.365 99.1989C201.899 99.3803 202.459 99.4709 203.045 99.4709C203.845 99.4709 204.421 99.3483 204.773 99.1029C205.125 98.8469 205.301 98.5109 205.301 98.0949C205.301 97.7856 205.2 97.5456 204.997 97.3749C204.805 97.1936 204.549 97.0603 204.229 96.9749C203.909 96.8789 203.552 96.7989 203.157 96.7349C202.763 96.6709 202.368 96.5963 201.973 96.5109C201.589 96.4256 201.237 96.3029 200.917 96.1429C200.597 95.9723 200.336 95.7429 200.133 95.4549C199.941 95.1669 199.845 94.7829 199.845 94.3029C199.845 93.8443 199.973 93.4336 200.229 93.0709C200.485 92.7083 200.859 92.4256 201.349 92.2229C201.851 92.0096 202.459 91.9029 203.173 91.9029C203.717 91.9029 204.261 91.9776 204.805 92.1269C205.349 92.2656 205.797 92.4523 206.149 92.6869L205.653 93.5989C205.28 93.3429 204.88 93.1616 204.453 93.0549C204.027 92.9376 203.6 92.8789 203.173 92.8789C202.416 92.8789 201.856 93.0123 201.493 93.2789C201.141 93.5349 200.965 93.8656 200.965 94.2709C200.965 94.5909 201.061 94.8416 201.253 95.0229C201.456 95.2043 201.717 95.3483 202.037 95.4549C202.368 95.5509 202.725 95.6309 203.109 95.6949C203.504 95.7589 203.893 95.8389 204.277 95.9349C204.672 96.0203 205.029 96.1429 205.349 96.3029C205.68 96.4523 205.941 96.6709 206.133 96.9589C206.336 97.2363 206.437 97.6043 206.437 98.0629C206.437 98.5536 206.299 98.9803 206.021 99.3429C205.755 99.6949 205.36 99.9723 204.837 100.175C204.325 100.367 203.701 100.463 202.965 100.463ZM0.610369 123.383L5.73037 112.183H6.89837L12.0184 123.383H10.7704L6.06637 112.871H6.54637L1.84237 123.383H0.610369ZM2.62637 120.391L2.97837 119.431H9.49037L9.84237 120.391H2.62637ZM17.9191 114.903C18.6018 114.903 19.1991 115.036 19.7111 115.303C20.2338 115.559 20.6391 115.954 20.9271 116.487C21.2258 117.02 21.3751 117.692 21.3751 118.503V123.383H20.2391V118.615C20.2391 117.73 20.0151 117.063 19.5671 116.615C19.1298 116.156 18.5111 115.927 17.7111 115.927C17.1138 115.927 16.5911 116.05 16.1431 116.295C15.7058 116.53 15.3645 116.876 15.1191 117.335C14.8845 117.783 14.7671 118.327 14.7671 118.967V123.383H13.6311V114.983H14.7191V117.287L14.5431 116.855C14.8098 116.247 15.2365 115.772 15.8231 115.431C16.4098 115.079 17.1085 114.903 17.9191 114.903ZM27.7876 123.463C26.9876 123.463 26.2676 123.282 25.6276 122.919C24.9983 122.556 24.5023 122.055 24.1396 121.415C23.777 120.764 23.5956 120.018 23.5956 119.175C23.5956 118.322 23.777 117.575 24.1396 116.935C24.5023 116.295 24.9983 115.799 25.6276 115.447C26.2676 115.084 26.9876 114.903 27.7876 114.903C28.5236 114.903 29.1796 115.068 29.7556 115.399C30.3423 115.73 30.8063 116.215 31.1476 116.855C31.4996 117.484 31.6756 118.258 31.6756 119.175C31.6756 120.082 31.505 120.855 31.1636 121.495C30.8223 122.135 30.3583 122.626 29.7716 122.967C29.1956 123.298 28.5343 123.463 27.7876 123.463ZM27.8676 122.455C28.465 122.455 28.9983 122.322 29.4676 122.055C29.9476 121.778 30.321 121.394 30.5876 120.903C30.865 120.402 31.0036 119.826 31.0036 119.175C31.0036 118.514 30.865 117.938 30.5876 117.447C30.321 116.956 29.9476 116.578 29.4676 116.311C28.9983 116.034 28.465 115.895 27.8676 115.895C27.281 115.895 26.753 116.034 26.2836 116.311C25.8143 116.578 25.441 116.956 25.1636 117.447C24.8863 117.938 24.7476 118.514 24.7476 119.175C24.7476 119.826 24.8863 120.402 25.1636 120.903C25.441 121.394 25.8143 121.778 26.2836 122.055C26.753 122.322 27.281 122.455 27.8676 122.455ZM31.0356 123.383V120.855L31.1476 119.159L30.9876 117.463V111.511H32.1236V123.383H31.0356ZM39.7149 123.383V112.183H44.2749C45.4695 112.183 46.5149 112.423 47.4109 112.903C48.3175 113.372 49.0215 114.028 49.5229 114.871C50.0242 115.714 50.2749 116.684 50.2749 117.783C50.2749 118.882 50.0242 119.852 49.5229 120.695C49.0215 121.538 48.3175 122.199 47.4109 122.679C46.5149 123.148 45.4695 123.383 44.2749 123.383H39.7149ZM40.8989 122.359H44.2109C45.2029 122.359 46.0615 122.167 46.7869 121.783C47.5229 121.388 48.0935 120.85 48.4989 120.167C48.9042 119.474 49.1069 118.679 49.1069 117.783C49.1069 116.876 48.9042 116.082 48.4989 115.399C48.0935 114.716 47.5229 114.183 46.7869 113.799C46.0615 113.404 45.2029 113.207 44.2109 113.207H40.8989V122.359ZM57.9576 123.383V121.527L57.9096 121.223V118.119C57.9096 117.404 57.707 116.855 57.3016 116.471C56.907 116.087 56.315 115.895 55.5256 115.895C54.9816 115.895 54.4643 115.986 53.9736 116.167C53.483 116.348 53.067 116.588 52.7256 116.887L52.2136 116.039C52.6403 115.676 53.1523 115.399 53.7496 115.207C54.347 115.004 54.9763 114.903 55.6376 114.903C56.7256 114.903 57.563 115.175 58.1496 115.719C58.747 116.252 59.0456 117.068 59.0456 118.167V123.383H57.9576ZM55.0616 123.463C54.4323 123.463 53.883 123.362 53.4136 123.159C52.955 122.946 52.603 122.658 52.3576 122.295C52.1123 121.922 51.9896 121.495 51.9896 121.015C51.9896 120.578 52.091 120.183 52.2936 119.831C52.507 119.468 52.8483 119.18 53.3176 118.967C53.7976 118.743 54.4376 118.631 55.2376 118.631H58.1336V119.479H55.2696C54.459 119.479 53.8936 119.623 53.5736 119.911C53.2643 120.199 53.1096 120.556 53.1096 120.983C53.1096 121.463 53.2963 121.847 53.6696 122.135C54.043 122.423 54.5656 122.567 55.2376 122.567C55.8776 122.567 56.427 122.423 56.8856 122.135C57.355 121.836 57.6963 121.41 57.9096 120.855L58.1656 121.639C57.9523 122.194 57.579 122.636 57.0456 122.967C56.523 123.298 55.8616 123.463 55.0616 123.463ZM64.3871 123.463C63.6938 123.463 63.0378 123.367 62.4191 123.175C61.8005 122.972 61.3151 122.722 60.9631 122.423L61.4751 121.527C61.8165 121.783 62.2538 122.007 62.7871 122.199C63.3205 122.38 63.8805 122.471 64.4671 122.471C65.2671 122.471 65.8431 122.348 66.1951 122.103C66.5471 121.847 66.7231 121.511 66.7231 121.095C66.7231 120.786 66.6218 120.546 66.4191 120.375C66.2271 120.194 65.9711 120.06 65.6511 119.975C65.3311 119.879 64.9738 119.799 64.5791 119.735C64.1845 119.671 63.7898 119.596 63.3951 119.511C63.0111 119.426 62.6591 119.303 62.3391 119.143C62.0191 118.972 61.7578 118.743 61.5551 118.455C61.3631 118.167 61.2671 117.783 61.2671 117.303C61.2671 116.844 61.3951 116.434 61.6511 116.071C61.9071 115.708 62.2805 115.426 62.7711 115.223C63.2725 115.01 63.8805 114.903 64.5951 114.903C65.1391 114.903 65.6831 114.978 66.2271 115.127C66.7711 115.266 67.2191 115.452 67.5711 115.687L67.0751 116.599C66.7018 116.343 66.3018 116.162 65.8751 116.055C65.4485 115.938 65.0218 115.879 64.5951 115.879C63.8378 115.879 63.2778 116.012 62.9151 116.279C62.5631 116.535 62.3871 116.866 62.3871 117.271C62.3871 117.591 62.4831 117.842 62.6751 118.023C62.8778 118.204 63.1391 118.348 63.4591 118.455C63.7898 118.551 64.1471 118.631 64.5311 118.695C64.9258 118.759 65.3151 118.839 65.6991 118.935C66.0938 119.02 66.4511 119.143 66.7711 119.303C67.1018 119.452 67.3631 119.671 67.5551 119.959C67.7578 120.236 67.8591 120.604 67.8591 121.063C67.8591 121.554 67.7205 121.98 67.4431 122.343C67.1765 122.695 66.7818 122.972 66.2591 123.175C65.7471 123.367 65.1231 123.463 64.3871 123.463ZM74.2316 114.903C74.9143 114.903 75.5116 115.036 76.0236 115.303C76.5463 115.559 76.9516 115.954 77.2396 116.487C77.5383 117.02 77.6876 117.692 77.6876 118.503V123.383H76.5516V118.615C76.5516 117.73 76.3276 117.063 75.8796 116.615C75.4423 116.156 74.8236 115.927 74.0236 115.927C73.4263 115.927 72.9036 116.05 72.4556 116.295C72.0183 116.53 71.677 116.876 71.4316 117.335C71.197 117.783 71.0796 118.327 71.0796 118.967V123.383H69.9436V111.511H71.0796V117.287L70.8556 116.855C71.1223 116.247 71.549 115.772 72.1356 115.431C72.7223 115.079 73.421 114.903 74.2316 114.903ZM85.0921 123.463C84.3561 123.463 83.6948 123.298 83.1081 122.967C82.5215 122.626 82.0575 122.135 81.7161 121.495C81.3748 120.855 81.2041 120.082 81.2041 119.175C81.2041 118.258 81.3748 117.484 81.7161 116.855C82.0681 116.215 82.5375 115.73 83.1241 115.399C83.7108 115.068 84.3668 114.903 85.0921 114.903C85.8921 114.903 86.6068 115.084 87.2361 115.447C87.8761 115.799 88.3775 116.295 88.7401 116.935C89.1028 117.575 89.2841 118.322 89.2841 119.175C89.2841 120.018 89.1028 120.764 88.7401 121.415C88.3775 122.055 87.8761 122.556 87.2361 122.919C86.6068 123.282 85.8921 123.463 85.0921 123.463ZM80.7561 123.383V111.511H81.8921V117.463L81.7321 119.159L81.8441 120.855V123.383H80.7561ZM85.0121 122.455C85.6095 122.455 86.1428 122.322 86.6121 122.055C87.0815 121.778 87.4548 121.394 87.7321 120.903C88.0095 120.402 88.1481 119.826 88.1481 119.175C88.1481 118.514 88.0095 117.938 87.7321 117.447C87.4548 116.956 87.0815 116.578 86.6121 116.311C86.1428 116.034 85.6095 115.895 85.0121 115.895C84.4148 115.895 83.8761 116.034 83.3961 116.311C82.9268 116.578 82.5535 116.956 82.2761 117.447C82.0095 117.938 81.8761 118.514 81.8761 119.175C81.8761 119.826 82.0095 120.402 82.2761 120.903C82.5535 121.394 82.9268 121.778 83.3961 122.055C83.8761 122.322 84.4148 122.455 85.0121 122.455ZM95.0239 123.463C94.2132 123.463 93.4825 123.282 92.8319 122.919C92.1919 122.546 91.6852 122.039 91.3119 121.399C90.9385 120.748 90.7519 120.007 90.7519 119.175C90.7519 118.332 90.9385 117.591 91.3119 116.951C91.6852 116.311 92.1919 115.81 92.8319 115.447C93.4719 115.084 94.2025 114.903 95.0239 114.903C95.8559 114.903 96.5919 115.084 97.2319 115.447C97.8825 115.81 98.3892 116.311 98.7519 116.951C99.1252 117.591 99.3119 118.332 99.3119 119.175C99.3119 120.007 99.1252 120.748 98.7519 121.399C98.3892 122.039 97.8825 122.546 97.2319 122.919C96.5812 123.282 95.8452 123.463 95.0239 123.463ZM95.0239 122.455C95.6319 122.455 96.1705 122.322 96.6399 122.055C97.1092 121.778 97.4772 121.394 97.7439 120.903C98.0212 120.402 98.1599 119.826 98.1599 119.175C98.1599 118.514 98.0212 117.938 97.7439 117.447C97.4772 116.956 97.1092 116.578 96.6399 116.311C96.1705 116.034 95.6372 115.895 95.0399 115.895C94.4425 115.895 93.9092 116.034 93.4399 116.311C92.9705 116.578 92.5972 116.956 92.3199 117.447C92.0425 117.938 91.9039 118.514 91.9039 119.175C91.9039 119.826 92.0425 120.402 92.3199 120.903C92.5972 121.394 92.9705 121.778 93.4399 122.055C93.9092 122.322 94.4372 122.455 95.0239 122.455ZM106.848 123.383V121.527L106.8 121.223V118.119C106.8 117.404 106.598 116.855 106.192 116.471C105.798 116.087 105.206 115.895 104.416 115.895C103.872 115.895 103.355 115.986 102.864 116.167C102.374 116.348 101.958 116.588 101.616 116.887L101.104 116.039C101.531 115.676 102.043 115.399 102.64 115.207C103.238 115.004 103.867 114.903 104.528 114.903C105.616 114.903 106.454 115.175 107.04 115.719C107.638 116.252 107.936 117.068 107.936 118.167V123.383H106.848ZM103.952 123.463C103.323 123.463 102.774 123.362 102.304 123.159C101.846 122.946 101.494 122.658 101.248 122.295C101.003 121.922 100.88 121.495 100.88 121.015C100.88 120.578 100.982 120.183 101.184 119.831C101.398 119.468 101.739 119.18 102.208 118.967C102.688 118.743 103.328 118.631 104.128 118.631H107.024V119.479H104.16C103.35 119.479 102.784 119.623 102.464 119.911C102.155 120.199 102 120.556 102 120.983C102 121.463 102.187 121.847 102.56 122.135C102.934 122.423 103.456 122.567 104.128 122.567C104.768 122.567 105.318 122.423 105.776 122.135C106.246 121.836 106.587 121.41 106.8 120.855L107.056 121.639C106.843 122.194 106.47 122.636 105.936 122.967C105.414 123.298 104.752 123.463 103.952 123.463ZM111.022 123.383V114.983H112.11V117.271L111.998 116.871C112.232 116.231 112.627 115.746 113.182 115.415C113.736 115.074 114.424 114.903 115.246 114.903V116.007C115.203 116.007 115.16 116.007 115.118 116.007C115.075 115.996 115.032 115.991 114.99 115.991C114.104 115.991 113.411 116.263 112.91 116.807C112.408 117.34 112.158 118.103 112.158 119.095V123.383H111.022ZM120.584 123.463C119.784 123.463 119.064 123.282 118.424 122.919C117.795 122.556 117.299 122.055 116.936 121.415C116.574 120.764 116.392 120.018 116.392 119.175C116.392 118.322 116.574 117.575 116.936 116.935C117.299 116.295 117.795 115.799 118.424 115.447C119.064 115.084 119.784 114.903 120.584 114.903C121.32 114.903 121.976 115.068 122.552 115.399C123.139 115.73 123.603 116.215 123.944 116.855C124.296 117.484 124.472 118.258 124.472 119.175C124.472 120.082 124.302 120.855 123.96 121.495C123.619 122.135 123.155 122.626 122.568 122.967C121.992 123.298 121.331 123.463 120.584 123.463ZM120.664 122.455C121.262 122.455 121.795 122.322 122.264 122.055C122.744 121.778 123.118 121.394 123.384 120.903C123.662 120.402 123.8 119.826 123.8 119.175C123.8 118.514 123.662 117.938 123.384 117.447C123.118 116.956 122.744 116.578 122.264 116.311C121.795 116.034 121.262 115.895 120.664 115.895C120.078 115.895 119.55 116.034 119.08 116.311C118.611 116.578 118.238 116.956 117.96 117.447C117.683 117.938 117.544 118.514 117.544 119.175C117.544 119.826 117.683 120.402 117.96 120.903C118.238 121.394 118.611 121.778 119.08 122.055C119.55 122.322 120.078 122.455 120.664 122.455ZM123.832 123.383V120.855L123.944 119.159L123.784 117.463V111.511H124.92V123.383H123.832ZM130.34 123.463C129.647 123.463 128.991 123.367 128.372 123.175C127.754 122.972 127.268 122.722 126.916 122.423L127.428 121.527C127.77 121.783 128.207 122.007 128.74 122.199C129.274 122.38 129.834 122.471 130.42 122.471C131.22 122.471 131.796 122.348 132.148 122.103C132.5 121.847 132.676 121.511 132.676 121.095C132.676 120.786 132.575 120.546 132.372 120.375C132.18 120.194 131.924 120.06 131.604 119.975C131.284 119.879 130.927 119.799 130.532 119.735C130.138 119.671 129.743 119.596 129.348 119.511C128.964 119.426 128.612 119.303 128.292 119.143C127.972 118.972 127.711 118.743 127.508 118.455C127.316 118.167 127.22 117.783 127.22 117.303C127.22 116.844 127.348 116.434 127.604 116.071C127.86 115.708 128.234 115.426 128.724 115.223C129.226 115.01 129.834 114.903 130.548 114.903C131.092 114.903 131.636 114.978 132.18 115.127C132.724 115.266 133.172 115.452 133.524 115.687L133.028 116.599C132.655 116.343 132.255 116.162 131.828 116.055C131.402 115.938 130.975 115.879 130.548 115.879C129.791 115.879 129.231 116.012 128.868 116.279C128.516 116.535 128.34 116.866 128.34 117.271C128.34 117.591 128.436 117.842 128.628 118.023C128.831 118.204 129.092 118.348 129.412 118.455C129.743 118.551 130.1 118.631 130.484 118.695C130.879 118.759 131.268 118.839 131.652 118.935C132.047 119.02 132.404 119.143 132.724 119.303C133.055 119.452 133.316 119.671 133.508 119.959C133.711 120.236 133.812 120.604 133.812 121.063C133.812 121.554 133.674 121.98 133.396 122.343C133.13 122.695 132.735 122.972 132.212 123.175C131.7 123.367 131.076 123.463 130.34 123.463Z" fill="white" fill-opacity="0.85"/>
</svg>
