<svg width="23" height="22" viewBox="0 0 23 22" fill="none" xmlns="http://www.w3.org/2000/svg">
<path d="M19.9439 4.44723C19.865 4.26454 19.7339 4.10922 19.567 4.00076C19.4002 3.8923 19.205 3.83553 19.006 3.83758H3.99917C3.80097 3.8376 3.60705 3.89518 3.44096 4.00332C3.27487 4.11147 3.14376 4.26552 3.06357 4.44677C2.98338 4.62802 2.95755 4.82865 2.98923 5.0243C3.0209 5.21995 3.10872 5.40219 3.24201 5.54887L3.24627 5.55313L9.02134 11.7187C9.08064 11.7821 9.11357 11.8656 9.11343 11.9524V18.5033C9.11316 18.6887 9.16324 18.8707 9.25833 19.0298C9.35342 19.1889 9.48994 19.3192 9.65332 19.4067C9.81669 19.4943 10.0008 19.5358 10.1859 19.5269C10.3711 19.5179 10.5503 19.4589 10.7045 19.356L13.433 17.5373C13.5735 17.4438 13.6886 17.317 13.7682 17.1682C13.8478 17.0195 13.8893 16.8533 13.8892 16.6846V11.9524C13.8891 11.8656 13.922 11.7821 13.9813 11.7187L19.7606 5.54887C19.8961 5.40359 19.9857 5.22161 20.0183 5.02568C20.0509 4.82974 20.025 4.62855 19.9439 4.44723ZM19.2618 5.08673L13.4842 11.2557C13.3065 11.4455 13.2077 11.6958 13.2079 11.9558V16.6872C13.2079 16.7433 13.1941 16.7987 13.1676 16.8482C13.1412 16.8977 13.1029 16.9399 13.0561 16.9711L10.3276 18.7898C10.2761 18.8242 10.2161 18.8439 10.1542 18.8468C10.0923 18.8497 10.0307 18.8357 9.97622 18.8062C9.92168 18.7768 9.87621 18.733 9.84468 18.6796C9.81315 18.6263 9.79676 18.5653 9.79727 18.5033V11.9524C9.79745 11.6924 9.69868 11.4421 9.521 11.2523L3.74763 5.08843C3.7038 5.03954 3.67501 4.97903 3.66473 4.91417C3.65445 4.84931 3.66311 4.78286 3.68967 4.72281C3.71623 4.66275 3.75956 4.61164 3.81447 4.57561C3.86937 4.53958 3.9335 4.52017 3.99917 4.51971H19.006C19.0717 4.51964 19.136 4.53856 19.1912 4.57419C19.2465 4.60981 19.2902 4.66063 19.3172 4.72052C19.3442 4.78041 19.3534 4.84683 19.3436 4.9118C19.3337 4.97677 19.3053 5.03751 19.2618 5.08673Z" fill="white"/>
<path d="M19.2618 5.08673L13.4842 11.2557C13.3065 11.4455 13.2077 11.6958 13.2079 11.9558V16.6872C13.2079 16.7433 13.1941 16.7987 13.1676 16.8482C13.1412 16.8977 13.1029 16.9399 13.0561 16.9711L10.3276 18.7898C10.2761 18.8242 10.2161 18.8439 10.1542 18.8468C10.0923 18.8497 10.0307 18.8357 9.97622 18.8062C9.92168 18.7768 9.87621 18.733 9.84468 18.6796C9.81315 18.6263 9.79676 18.5653 9.79727 18.5033V11.9524C9.79745 11.6924 9.69868 11.4421 9.521 11.2523L3.74763 5.08843C3.7038 5.03954 3.67501 4.97903 3.66473 4.91417C3.65445 4.84931 3.66311 4.78286 3.68967 4.72281C3.71623 4.66275 3.75956 4.61164 3.81447 4.57561C3.86937 4.53958 3.9335 4.52017 3.99917 4.51971H19.006C19.0717 4.51964 19.136 4.53856 19.1912 4.57419C19.2465 4.60981 19.2902 4.66063 19.3172 4.72052C19.3442 4.78041 19.3534 4.84683 19.3436 4.9118C19.3337 4.97677 19.3053 5.03751 19.2618 5.08673Z" fill="white"/>
</svg>
