<svg width="33" height="32" viewBox="0 0 33 32" fill="none" xmlns="http://www.w3.org/2000/svg">
<path opacity="0.2" d="M29.5784 19V22C29.5784 22.2652 29.473 22.5196 29.2855 22.7071C29.0979 22.8947 28.8436 23 28.5784 23H4.57837C4.31315 23 4.0588 22.8947 3.87126 22.7071C3.68373 22.5196 3.57837 22.2652 3.57837 22V19.1413C3.57837 11.9563 9.34712 6.02502 16.5321 6.00002C18.2432 5.99393 19.9386 6.3257 21.5212 6.97628C23.1038 7.62687 24.5424 8.58347 25.7544 9.79124C26.9665 10.999 27.9282 12.4342 28.5844 14.0144C29.2406 15.5947 29.5784 17.2889 29.5784 19Z" fill="white"/>
<path d="M26.4609 9.08374C25.1646 7.78456 23.624 6.75483 21.9279 6.05393C20.2317 5.35303 18.4136 4.99484 16.5784 4.99999H16.5284C8.83712 5.02624 2.57837 11.375 2.57837 19.1412V22C2.57837 22.5304 2.78908 23.0391 3.16416 23.4142C3.53923 23.7893 4.04794 24 4.57837 24H28.5784C29.1088 24 29.6175 23.7893 29.9926 23.4142C30.3677 23.0391 30.5784 22.5304 30.5784 22V19C30.5835 17.1567 30.2221 15.3308 29.5153 13.6285C28.8084 11.9261 27.7701 10.3812 26.4609 9.08374ZM28.5784 22H15.5421L22.3871 12.5875C22.5433 12.373 22.6078 12.1053 22.5666 11.8432C22.5253 11.5811 22.3816 11.3461 22.1671 11.19C21.9526 11.0338 21.6849 10.9693 21.4228 11.0106C21.1607 11.0518 20.9258 11.1955 20.7696 11.41L13.0684 22H4.57837V19.1412C4.57837 18.7562 4.59712 18.3762 4.63212 18H7.57837C7.84359 18 8.09794 17.8946 8.28548 17.7071C8.47301 17.5196 8.57837 17.2652 8.57837 17C8.57837 16.7348 8.47301 16.4804 8.28548 16.2929C8.09794 16.1054 7.84359 16 7.57837 16H4.98712C6.27712 11.1425 10.4871 7.46999 15.5784 7.04249V9.99999C15.5784 10.2652 15.6837 10.5196 15.8713 10.7071C16.0588 10.8946 16.3132 11 16.5784 11C16.8436 11 17.0979 10.8946 17.2855 10.7071C17.473 10.5196 17.5784 10.2652 17.5784 9.99999V7.04124C20.0592 7.25002 22.4139 8.22412 24.3172 9.82894C26.2206 11.4338 27.5785 13.5901 28.2034 16H25.5784C25.3132 16 25.0588 16.1054 24.8713 16.2929C24.6837 16.4804 24.5784 16.7348 24.5784 17C24.5784 17.2652 24.6837 17.5196 24.8713 17.7071C25.0588 17.8946 25.3132 18 25.5784 18H28.5371C28.5634 18.3312 28.5784 18.6637 28.5784 19V22Z" fill="white"/>
</svg>
