<svg width="30" height="30" viewBox="0 0 30 30" fill="none" xmlns="http://www.w3.org/2000/svg">
<path d="M15.2744 3.21872C12.9443 3.21872 10.6665 3.90968 8.72911 5.20422C6.79169 6.49876 5.28166 8.33874 4.38996 10.4915C3.49827 12.6442 3.26496 15.013 3.71954 17.2984C4.17412 19.5837 5.29618 21.6829 6.94382 23.3306C8.59145 24.9782 10.6907 26.1003 12.976 26.5548C15.2613 27.0094 17.6302 26.7761 19.7829 25.8844C21.9356 24.9927 23.7756 23.4827 25.0702 21.5453C26.3647 19.6079 27.0557 17.3301 27.0557 15C27.0557 11.8754 25.8144 8.87878 23.605 6.66937C21.3956 4.45995 18.399 3.21872 15.2744 3.21872ZM15.2744 24.0625C13.8055 24.0623 12.3586 23.7051 11.0583 23.0215C9.75812 22.338 8.64355 21.3486 7.81061 20.1387C6.97767 18.9287 6.45134 17.5344 6.27695 16.0758C6.10257 14.6173 6.28535 13.1382 6.80955 11.7659C7.33376 10.3937 8.18368 9.16948 9.28611 8.19867C10.3885 7.22787 11.7104 6.53959 13.1379 6.19314C14.5654 5.84668 16.0558 5.85242 17.4806 6.20986C18.9054 6.56731 20.2219 7.26574 21.3168 8.24501C21.4915 8.40645 21.5957 8.63009 21.607 8.86768C21.6182 9.10527 21.5356 9.33776 21.377 9.51499C21.2183 9.69221 20.9964 9.79997 20.759 9.81499C20.5216 9.83002 20.2879 9.75112 20.1081 9.59532C18.8999 8.51463 17.3643 7.87003 15.7468 7.76449C14.1292 7.65895 12.5229 8.09857 11.1845 9.01311C9.84608 9.92765 8.85277 11.2643 8.36324 12.8097C7.87371 14.355 7.9162 16.0198 8.48391 17.5382C9.05163 19.0566 10.1118 20.3409 11.4951 21.1859C12.8784 22.031 14.5051 22.3881 16.1152 22.2002C17.7253 22.0123 19.2259 21.2902 20.3775 20.1493C21.529 19.0084 22.265 17.5145 22.4678 15.9062H15.2744C15.0341 15.9062 14.8036 15.8107 14.6336 15.6408C14.4636 15.4708 14.3682 15.2403 14.3682 15C14.3682 14.7596 14.4636 14.5291 14.6336 14.3592C14.8036 14.1892 15.0341 14.0937 15.2744 14.0937H23.4307C23.671 14.0937 23.9015 14.1892 24.0715 14.3592C24.2414 14.5291 24.3369 14.7596 24.3369 15C24.3342 17.4027 23.3786 19.7062 21.6796 21.4051C19.9806 23.1041 17.6771 24.0598 15.2744 24.0625Z" fill="white"/>
</svg>
