<svg width="25" height="26" viewBox="0 0 25 26" fill="none" xmlns="http://www.w3.org/2000/svg">
<path d="M12.1809 14.8125V11.1875L24.1292 11.1875C24.2181 11.7787 24.2642 12.3839 24.2642 13C24.2642 19.6734 18.8543 25.0833 12.1809 25.0833C5.50743 25.0833 0.0975342 19.6734 0.0975342 13C0.0975342 6.32652 5.50743 0.916626 12.1809 0.916626C15.5176 0.916626 18.5384 2.2691 20.7251 4.45575L18.1618 7.01901C16.6312 5.48836 14.5166 4.54163 12.1809 4.54163C7.50946 4.54163 3.72253 8.32855 3.72253 13C3.72253 17.6714 7.50946 21.4583 12.1809 21.4583C16.2301 21.4583 19.6148 18.6129 20.4445 14.8125H12.1809Z" fill="white"/>
</svg>
