<svg width="56" height="57" viewBox="0 0 56 57" fill="none" xmlns="http://www.w3.org/2000/svg">
<path d="M50.75 26.5802V28.3302C50.75 31.3246 50.1589 34.2896 49.0105 37.055C47.8622 39.8205 46.1792 42.332 44.0581 44.4456C41.937 46.5592 39.4195 48.2333 36.65 49.3718C33.8805 50.5103 30.9134 51.0909 27.9191 51.0802C16.1066 51.0387 6.48156 41.8796 5.36156 30.3471C5.34942 30.1969 5.37629 30.0461 5.43956 29.9093C5.50284 29.7725 5.60037 29.6543 5.72272 29.5663C5.84507 29.4783 5.98808 29.4234 6.13789 29.4069C6.2877 29.3904 6.43924 29.4128 6.57781 29.4721C8.15184 30.1329 9.89816 30.2634 11.5529 29.8438C13.2076 29.4243 14.6809 28.4776 15.75 27.1468C16.4505 28.018 17.3288 28.7296 18.3263 29.2342C19.3238 29.7389 20.4175 30.0249 21.5343 30.0731C22.6511 30.1214 23.7654 29.9307 24.8027 29.514C25.8399 29.0973 26.7764 28.464 27.5494 27.6565C28.2578 28.8074 29.221 29.7803 30.3647 30.5002C29.085 31.4793 28.0481 32.7401 27.3345 34.1847C26.6209 35.6293 26.2498 37.219 26.25 38.8302C26.2491 39.0729 26.2988 39.3131 26.3957 39.5356C26.4927 39.7581 26.6349 39.9579 26.8132 40.1225C26.9916 40.2871 27.2022 40.4128 27.4318 40.4916C27.6613 40.5704 27.9047 40.6006 28.1466 40.5802C28.5907 40.5324 29.001 40.3208 29.2975 39.9867C29.594 39.6526 29.7553 39.22 29.75 38.7734C29.765 36.9267 30.5091 35.1608 31.8203 33.8603C33.1314 32.5599 34.9033 31.8302 36.75 31.8302C36.9899 31.8308 37.2274 31.782 37.4476 31.6868C37.6678 31.5917 37.8662 31.4524 38.0303 31.2774C38.1944 31.1024 38.3208 30.8955 38.4016 30.6696C38.4824 30.4438 38.5159 30.2037 38.5 29.9643C38.4608 29.5145 38.2531 29.0961 37.9184 28.793C37.5837 28.49 37.1468 28.3247 36.6953 28.3302H35C33.6076 28.3302 32.2723 27.7771 31.2877 26.7925C30.3031 25.808 29.75 24.4726 29.75 23.0802V19.5802H43.75C45.6065 19.5802 47.387 20.3177 48.6997 21.6305C50.0125 22.9432 50.75 24.7237 50.75 26.5802ZM9.78469 26.5802C12.1559 26.4927 14 24.4737 14 22.1002V17.069C14 14.6868 12.1559 12.6677 9.78469 12.5802C9.19686 12.5588 8.61074 12.6561 8.06137 12.8663C7.512 13.0765 7.01066 13.3954 6.58734 13.8038C6.16402 14.2122 5.8274 14.7018 5.59762 15.2433C5.36784 15.7848 5.24961 16.367 5.25 16.9552V22.2052C5.24961 22.7935 5.36784 23.3757 5.59762 23.9172C5.8274 24.4587 6.16402 24.9483 6.58734 25.3567C7.01066 25.7651 7.512 26.084 8.06137 26.2942C8.61074 26.5044 9.19686 26.6017 9.78469 26.5802ZM22.0347 26.5802C24.4059 26.4949 26.25 24.4759 26.25 22.1024V11.8212C26.25 9.44773 24.4059 7.42867 22.0347 7.34336C21.448 7.32193 20.8629 7.41881 20.3144 7.62823C19.7659 7.83766 19.2652 8.15534 18.8421 8.56235C18.4189 8.96937 18.082 9.45738 17.8515 9.99733C17.6209 10.5373 17.5014 11.1181 17.5 11.7052V22.2052C17.4996 22.7935 17.6178 23.3757 17.8476 23.9172C18.0774 24.4587 18.414 24.9483 18.8373 25.3567C19.2607 25.7651 19.762 26.084 20.3114 26.2942C20.8607 26.5044 21.4469 26.6017 22.0347 26.5802ZM38.5 11.7052C38.5004 11.117 38.3822 10.5348 38.1524 9.99327C37.9226 9.45178 37.586 8.9622 37.1627 8.55378C36.7393 8.14537 36.238 7.82651 35.6886 7.61628C35.1393 7.40605 34.5531 7.30876 33.9653 7.33023C31.5941 7.41773 29.75 9.43679 29.75 11.8102V16.0802H37.625C37.8571 16.0802 38.0796 15.988 38.2437 15.824C38.4078 15.6599 38.5 15.4373 38.5 15.2052V11.7052Z" fill="#D0D0D0"/>
</svg>
