<svg width="35" height="35" viewBox="0 0 35 35" fill="none" xmlns="http://www.w3.org/2000/svg">
<path d="M23.9054 5.67169C21.0859 5.67169 18.6557 7.01172 17.3302 9.23152C16.0046 7.01172 13.5744 5.67169 10.7549 5.67169C8.73282 5.67413 6.79421 6.47849 5.36435 7.90835C3.93449 9.33822 3.13012 11.2768 3.12769 13.299C3.12769 17.0587 5.49477 20.988 10.15 24.9752C12.2995 26.8043 14.6203 28.4219 17.0803 29.8054C17.1571 29.8468 17.2429 29.8685 17.3302 29.8685C17.4174 29.8685 17.5033 29.8468 17.58 29.8054C20.04 28.4219 22.3609 26.8043 24.5103 24.9752C29.1656 20.988 31.5327 17.0587 31.5327 13.299C31.5302 11.2768 30.7258 9.33822 29.296 7.90835C27.8661 6.47849 25.9275 5.67413 23.9054 5.67169ZM17.3302 28.7402C15.4891 27.6934 4.17972 20.9354 4.17972 13.299C4.18181 11.5557 4.87522 9.88451 6.10787 8.65187C7.34051 7.41923 9.01173 6.72582 10.7549 6.72373C13.531 6.72373 15.8639 8.21104 16.8436 10.6044C16.8832 10.7009 16.9507 10.7834 17.0373 10.8415C17.1239 10.8996 17.2259 10.9306 17.3302 10.9306C17.4345 10.9306 17.5364 10.8996 17.623 10.8415C17.7097 10.7834 17.7771 10.7009 17.8167 10.6044C18.7964 8.21104 21.1293 6.72373 23.9054 6.72373C25.6486 6.72582 27.3198 7.41923 28.5525 8.65187C29.7851 9.88451 30.4785 11.5557 30.4806 13.299C30.4806 20.9262 19.1712 27.6934 17.3302 28.7402Z" fill="#E3E3E3"/>
</svg>
