<svg width="20" height="20" viewBox="0 0 20 20" fill="none" xmlns="http://www.w3.org/2000/svg">
<path fill-rule="evenodd" clip-rule="evenodd" d="M1.34961 10.2261C1.34961 6.63093 1.34961 4.83336 2.2063 3.53863C2.58886 2.96046 3.084 2.46532 3.66216 2.08277C4.9569 1.22607 6.75447 1.22607 10.3496 1.22607C13.9447 1.22607 15.7423 1.22607 17.0371 2.08277C17.6152 2.46532 18.1104 2.96046 18.4929 3.53863C19.3496 4.83336 19.3496 6.63093 19.3496 10.2261C19.3496 13.8212 19.3496 15.6188 18.4929 16.9135C18.1104 17.4917 17.6152 17.9868 17.0371 18.3694C15.7423 19.2261 13.9447 19.2261 10.3496 19.2261C6.75447 19.2261 4.9569 19.2261 3.66216 18.3694C3.084 17.9868 2.58886 17.4917 2.2063 16.9135C1.34961 15.6188 1.34961 13.8212 1.34961 10.2261ZM15.0089 10.2263C15.0089 12.7996 12.9228 14.8857 10.3494 14.8857C7.77613 14.8857 5.69004 12.7996 5.69004 10.2263C5.69004 7.65298 7.77613 5.56689 10.3494 5.56689C12.9228 5.56689 15.0089 7.65298 15.0089 10.2263ZM10.3494 13.3093C12.0521 13.3093 13.4325 11.929 13.4325 10.2263C13.4325 8.52361 12.0521 7.1433 10.3494 7.1433C8.64675 7.1433 7.26645 8.52361 7.26645 10.2263C7.26645 11.929 8.64675 13.3093 10.3494 13.3093ZM15.1929 6.42762C15.7975 6.42762 16.2877 5.93745 16.2877 5.3328C16.2877 4.72815 15.7975 4.23798 15.1929 4.23798C14.5882 4.23798 14.0981 4.72815 14.0981 5.3328C14.0981 5.93745 14.5882 6.42762 15.1929 6.42762Z" fill="white"/>
</svg>
