<svg width="20" height="19" viewBox="0 0 20 19" fill="none" xmlns="http://www.w3.org/2000/svg">
<path d="M1.34961 3.14613C1.34961 2.56891 1.55232 2.09272 1.95772 1.71756C2.36312 1.34237 2.89016 1.15479 3.5388 1.15479C4.17587 1.15479 4.6913 1.33948 5.08513 1.7089C5.49053 2.08985 5.69324 2.58623 5.69324 3.19807C5.69324 3.75219 5.49633 4.21394 5.1025 4.58336C4.69711 4.96431 4.16428 5.15478 3.50405 5.15478H3.48668C2.8496 5.15478 2.33417 4.96431 1.94034 4.58336C1.54651 4.2024 1.34961 3.72332 1.34961 3.14613ZM1.57548 18.2976V6.73054H5.43262V18.2976H1.57548ZM7.56969 18.2976H11.4268V11.8388C11.4268 11.4347 11.4732 11.123 11.5658 10.9037C11.728 10.5112 11.9741 10.1793 12.3042 9.90803C12.6344 9.63674 13.0484 9.5011 13.5465 9.5011C14.8438 9.5011 15.4925 10.3727 15.4925 12.1158V18.2976H19.3496V11.6656C19.3496 9.95708 18.9442 8.66128 18.1334 7.77816C17.3226 6.89504 16.2512 6.45348 14.9191 6.45348C13.4249 6.45348 12.2608 7.09418 11.4268 8.37556V8.41019H11.4095L11.4268 8.37556V6.73054H7.56969C7.59285 7.09994 7.60444 8.24857 7.60444 10.1764C7.60444 12.1043 7.59285 14.8113 7.56969 18.2976Z" fill="white"/>
</svg>
