<svg width="30" height="30" viewBox="0 0 30 30" fill="none" xmlns="http://www.w3.org/2000/svg">
<path d="M9.11353 15V7.74997C9.11353 6.30785 9.6864 4.92481 10.7061 3.90508C11.7259 2.88535 13.1089 2.31247 14.551 2.31247C15.9931 2.31247 17.3762 2.88535 18.3959 3.90508C19.4156 4.92481 19.9885 6.30785 19.9885 7.74997V15C19.9885 16.4421 19.4156 17.8251 18.3959 18.8449C17.3762 19.8646 15.9931 20.4375 14.551 20.4375C13.1089 20.4375 11.7259 19.8646 10.7061 18.8449C9.6864 17.8251 9.11353 16.4421 9.11353 15ZM23.6135 15C23.6135 14.7596 23.518 14.5291 23.3481 14.3592C23.1781 14.1892 22.9476 14.0937 22.7073 14.0937C22.4669 14.0937 22.2364 14.1892 22.0665 14.3592C21.8965 14.5291 21.801 14.7596 21.801 15C21.801 16.9228 21.0372 18.7669 19.6776 20.1265C18.3179 21.4861 16.4738 22.25 14.551 22.25C12.6282 22.25 10.7841 21.4861 9.4245 20.1265C8.06486 18.7669 7.30103 16.9228 7.30103 15C7.30103 14.7596 7.20555 14.5291 7.03559 14.3592C6.86564 14.1892 6.63513 14.0937 6.39478 14.0937C6.15442 14.0937 5.92391 14.1892 5.75396 14.3592C5.58401 14.5291 5.48853 14.7596 5.48853 15C5.49129 17.2458 6.32672 19.4109 7.83327 21.0764C9.33982 22.742 11.4105 23.7898 13.6448 24.0172V26.7812C13.6448 27.0216 13.7403 27.2521 13.9102 27.422C14.0802 27.592 14.3107 27.6875 14.551 27.6875C14.7914 27.6875 15.0219 27.592 15.1918 27.422C15.3618 27.2521 15.4573 27.0216 15.4573 26.7812V24.0172C17.6916 23.7898 19.7622 22.742 21.2688 21.0764C22.7753 19.4109 23.6108 17.2458 23.6135 15Z" fill="white"/>
</svg>
