<svg width="25" height="26" viewBox="0 0 25 26" fill="none" xmlns="http://www.w3.org/2000/svg">
<path fill-rule="evenodd" clip-rule="evenodd" d="M19.9075 1.11716C22.0592 0.39993 24.2812 2.00147 24.2812 4.26956V19.0416C24.2812 21.5442 22.2525 23.5729 19.75 23.5729C17.2475 23.5729 15.2188 21.5442 15.2188 19.0416C15.2188 16.5391 17.2475 14.5104 19.75 14.5104C20.7701 14.5104 21.7114 14.8474 22.4688 15.4163V10.3112C22.4688 9.28028 21.4587 8.5523 20.4807 8.87832L12.4665 11.5497C10.8629 12.0843 9.78125 13.5849 9.78125 15.2753V21.4583C9.78125 23.9608 7.75254 25.9895 5.25 25.9895C2.74746 25.9895 0.71875 23.9608 0.71875 21.4583C0.71875 18.9557 2.74746 16.927 5.25 16.927C6.27008 16.927 7.21143 17.2641 7.96875 17.8329V9.23361C7.96875 6.76312 9.5496 4.5698 11.8933 3.78857L19.9075 1.11716Z" fill="white"/>
</svg>
