<svg width="25" height="25" viewBox="0 0 25 25" fill="none" xmlns="http://www.w3.org/2000/svg">
<g clip-path="url(#clip0_679_4180)">
<path d="M22.0555 5.06953C22.0555 5.06953 22.0555 5.07891 22.0555 5.0836L16.5992 23.078C16.5167 23.3702 16.3467 23.6303 16.112 23.8231C15.8774 24.016 15.5895 24.1325 15.2867 24.157C15.2436 24.1608 15.2005 24.1627 15.1574 24.1627C14.8737 24.1635 14.5956 24.0832 14.3561 23.9312C14.1166 23.7793 13.9255 23.5619 13.8055 23.3048L10.393 16.3017C10.3588 16.2315 10.3474 16.1525 10.3604 16.0755C10.3733 15.9985 10.41 15.9275 10.4652 15.8723L15.8952 10.4423C16.0299 10.3005 16.1039 10.1117 16.1014 9.91617C16.0989 9.72059 16.0201 9.53374 15.8818 9.39544C15.7435 9.25714 15.5566 9.17833 15.361 9.17583C15.1655 9.17332 14.9767 9.24732 14.8349 9.38203L9.40205 14.812C9.34689 14.8673 9.27588 14.9039 9.19891 14.9168C9.12195 14.9298 9.04286 14.9184 8.97268 14.8842L1.96299 11.4727C1.68888 11.3412 1.46121 11.1295 1.31013 10.8656C1.15905 10.6018 1.09171 10.2983 1.11703 9.99535C1.14234 9.69238 1.25912 9.40426 1.45188 9.16917C1.64465 8.93407 1.9043 8.7631 2.19643 8.67891L20.1908 3.22266H20.2049C20.4611 3.15068 20.7318 3.14816 20.9893 3.21535C21.2468 3.28254 21.4818 3.41703 21.6702 3.60501C21.8585 3.793 21.9935 4.02771 22.0612 4.28508C22.1289 4.54244 22.1269 4.81319 22.0555 5.06953Z" fill="black"/>
</g>
<defs>
<clipPath id="clip0_679_4180">
<rect width="24" height="24" fill="white" transform="translate(0.361694 0.912598)"/>
</clipPath>
</defs>
</svg>
