<svg width="67" height="70" viewBox="0 0 67 70" fill="none" xmlns="http://www.w3.org/2000/svg">
<path d="M56.871 47.738L38.0861 15.1152C37.6167 14.316 36.9465 13.6533 36.1421 13.1928C35.3377 12.7324 34.4269 12.4902 33.5 12.4902C32.5731 12.4902 31.6623 12.7324 30.8578 13.1928C30.0534 13.6533 29.3832 14.316 28.9138 15.1152L10.129 47.738C9.67729 48.511 9.43927 49.3903 9.43927 50.2856C9.43927 51.1809 9.67729 52.0601 10.129 52.8332C10.5924 53.6373 11.2614 54.3036 12.0673 54.7637C12.8732 55.2239 13.7871 55.4613 14.7151 55.4517H52.2848C53.2121 55.4606 54.1251 55.2228 54.9302 54.7626C55.7353 54.3025 56.4036 53.6366 56.8667 52.8332C57.319 52.0605 57.5577 51.1815 57.5585 50.2862C57.5592 49.3908 57.322 48.5114 56.871 47.738ZM31.7815 29.6749C31.7815 29.2191 31.9625 28.782 32.2848 28.4597C32.6071 28.1375 33.0442 27.9564 33.5 27.9564C33.9557 27.9564 34.3928 28.1375 34.7151 28.4597C35.0374 28.782 35.2184 29.2191 35.2184 29.6749V38.2671C35.2184 38.7229 35.0374 39.16 34.7151 39.4823C34.3928 39.8045 33.9557 39.9856 33.5 39.9856C33.0442 39.9856 32.6071 39.8045 32.2848 39.4823C31.9625 39.16 31.7815 38.7229 31.7815 38.2671V29.6749ZM33.5 48.5779C32.9901 48.5779 32.4918 48.4267 32.0679 48.1434C31.644 47.8602 31.3136 47.4576 31.1185 46.9866C30.9234 46.5156 30.8723 45.9973 30.9718 45.4973C31.0713 44.9973 31.3168 44.538 31.6773 44.1775C32.0378 43.817 32.497 43.5715 32.9971 43.472C33.4971 43.3726 34.0154 43.4236 34.4864 43.6187C34.9574 43.8138 35.36 44.1442 35.6432 44.5681C35.9265 44.992 36.0776 45.4904 36.0776 46.0002C36.0776 46.6838 35.8061 47.3395 35.3226 47.8229C34.8392 48.3063 34.1836 48.5779 33.5 48.5779Z" fill="#D0D0D0"/>
</svg>
