<svg width="33" height="32" viewBox="0 0 33 32" fill="none" xmlns="http://www.w3.org/2000/svg">
<path opacity="0.2" d="M28.5476 8L27.0276 16.3575C26.9439 16.8183 26.7011 17.2352 26.3415 17.5353C25.982 17.8355 25.5285 17.9999 25.0601 18H9.36636L7.54761 8H28.5476Z" fill="white"/>
<path d="M29.3151 7.35875C29.2212 7.24642 29.1038 7.15607 28.9712 7.09408C28.8386 7.03209 28.694 6.99998 28.5476 7H8.38261L7.62261 2.82125C7.58075 2.59083 7.45935 2.38242 7.27957 2.23234C7.09979 2.08226 6.87304 2.00003 6.63886 2H3.54761C3.28239 2 3.02804 2.10536 2.8405 2.29289C2.65296 2.48043 2.54761 2.73478 2.54761 3C2.54761 3.26522 2.65296 3.51957 2.8405 3.70711C3.02804 3.89464 3.28239 4 3.54761 4H5.79761L8.99261 21.5362C9.08672 22.0563 9.31656 22.5423 9.65886 22.945C9.18642 23.3863 8.84542 23.9498 8.67368 24.573C8.50194 25.1962 8.50617 25.8549 8.68589 26.4759C8.86562 27.0968 9.21382 27.6559 9.69189 28.0911C10.17 28.5263 10.7592 28.8205 11.3943 28.9412C12.0294 29.062 12.6855 29.0044 13.2899 28.775C13.8943 28.5456 14.4234 28.1533 14.8184 27.6416C15.2135 27.1299 15.4591 26.5187 15.528 25.8759C15.5969 25.2332 15.4864 24.5838 15.2089 24H20.8864C20.6626 24.4684 20.5469 24.981 20.5476 25.5C20.5476 26.1922 20.7529 26.8689 21.1375 27.4445C21.522 28.0201 22.0687 28.4687 22.7082 28.7336C23.3478 28.9985 24.0515 29.0678 24.7304 28.9327C25.4094 28.7977 26.033 28.4644 26.5225 27.9749C27.012 27.4854 27.3453 26.8617 27.4804 26.1828C27.6154 25.5039 27.5461 24.8001 27.2812 24.1606C27.0163 23.5211 26.5677 22.9744 25.9921 22.5899C25.4165 22.2053 24.7398 22 24.0476 22H11.9439C11.7097 22 11.4829 21.9177 11.3031 21.7677C11.1234 21.6176 11.002 21.4092 10.9601 21.1787L10.5639 19H25.0639C25.7664 18.9999 26.4467 18.7532 26.986 18.303C27.5253 17.8527 27.8895 17.2275 28.0151 16.5362L29.5351 8.17875C29.5608 8.0343 29.5545 7.88596 29.5164 7.74424C29.4784 7.60253 29.4097 7.47092 29.3151 7.35875ZM13.5476 25.5C13.5476 25.7967 13.4596 26.0867 13.2948 26.3334C13.13 26.58 12.8957 26.7723 12.6216 26.8858C12.3475 26.9993 12.0459 27.0291 11.755 26.9712C11.464 26.9133 11.1967 26.7704 10.9869 26.5607C10.7772 26.3509 10.6343 26.0836 10.5764 25.7926C10.5186 25.5017 10.5483 25.2001 10.6618 24.926C10.7753 24.6519 10.9676 24.4176 11.2143 24.2528C11.4609 24.088 11.7509 24 12.0476 24C12.4454 24 12.827 24.158 13.1083 24.4393C13.3896 24.7206 13.5476 25.1022 13.5476 25.5ZM25.5476 25.5C25.5476 25.7967 25.4596 26.0867 25.2948 26.3334C25.13 26.58 24.8957 26.7723 24.6216 26.8858C24.3475 26.9993 24.0459 27.0291 23.755 26.9712C23.464 26.9133 23.1967 26.7704 22.9869 26.5607C22.7772 26.3509 22.6343 26.0836 22.5764 25.7926C22.5186 25.5017 22.5483 25.2001 22.6618 24.926C22.7753 24.6519 22.9676 24.4176 23.2143 24.2528C23.4609 24.088 23.7509 24 24.0476 24C24.4454 24 24.827 24.158 25.1083 24.4393C25.3896 24.7206 25.5476 25.1022 25.5476 25.5ZM26.0476 16.1787C26.0056 16.4098 25.8837 16.6187 25.7031 16.7689C25.5226 16.919 25.2949 17.0008 25.0601 17H10.2001L8.74636 9H27.3489L26.0476 16.1787Z" fill="white"/>
</svg>
