<svg width="25" height="26" viewBox="0 0 25 26" fill="none" xmlns="http://www.w3.org/2000/svg">
<path fill-rule="evenodd" clip-rule="evenodd" d="M12.8617 25.0833C19.5351 25.0833 24.945 19.6734 24.945 13C24.945 6.32652 19.5351 0.916626 12.8617 0.916626C6.18821 0.916626 0.77832 6.32652 0.77832 13C0.77832 19.6734 6.18821 25.0833 12.8617 25.0833ZM5.89019 10.0714C7.25749 9.52453 9.67143 9.22068 12.3214 9.36872C14.9615 9.51622 17.7073 10.1056 19.7474 11.2391C20.1095 11.4402 20.5661 11.3098 20.7673 10.9477C20.9684 10.5856 20.838 10.129 20.4759 9.92782C18.166 8.64457 15.1722 8.02566 12.4051 7.87106C9.64771 7.71702 6.98665 8.01732 5.33311 8.67872C4.94853 8.83256 4.76146 9.26903 4.9153 9.65362C5.06913 10.0382 5.50561 10.2253 5.89019 10.0714ZM6.43133 13.7185C7.34225 13.4452 9.34244 13.1474 11.6597 13.2211C13.9753 13.2947 16.5098 13.7367 18.5391 14.8641C18.9012 15.0652 19.3578 14.9348 19.5589 14.5727C19.7601 14.2106 19.6296 13.754 19.2676 13.5528C16.9468 12.2635 14.1446 11.7993 11.7074 11.7218C9.27184 11.6444 7.10328 11.9508 6.00031 12.2817C5.60356 12.4008 5.37843 12.8189 5.49745 13.2156C5.61647 13.6124 6.03459 13.8375 6.43133 13.7185ZM6.43133 17.3435C8.3319 16.7733 13.2196 16.2051 17.3308 18.4891C17.6928 18.6902 18.1494 18.5598 18.3506 18.1977C18.5518 17.8356 18.4213 17.379 18.0592 17.1778C13.4704 14.6285 8.12752 15.2686 6.00031 15.9067C5.60356 16.0258 5.37843 16.4439 5.49745 16.8406C5.61647 17.2374 6.03459 17.4625 6.43133 17.3435Z" fill="white"/>
</svg>
