<svg width="20" height="16" viewBox="0 0 20 16" fill="none" xmlns="http://www.w3.org/2000/svg">
<path d="M13.3767 0.927558V0.924316H14.2207L14.529 0.985908C14.7346 1.02589 14.9213 1.0783 15.089 1.14313C15.2567 1.20796 15.4191 1.28361 15.5759 1.37005C15.7328 1.45649 15.8751 1.54456 16.0028 1.63424C16.1294 1.72286 16.243 1.81686 16.3437 1.91627C16.4432 2.01676 16.5985 2.0427 16.8095 1.99407C17.0205 1.94545 17.2477 1.87791 17.4912 1.79147C17.7346 1.70503 17.9754 1.60778 18.2135 1.49971C18.4515 1.39165 18.5965 1.32304 18.6485 1.29387C18.6993 1.26362 18.7264 1.24741 18.7296 1.24524L18.7328 1.24038L18.7491 1.23228L18.7653 1.22417L18.7815 1.21607L18.7978 1.20796L18.801 1.2031L18.8059 1.19986L18.8108 1.19662L18.814 1.19176L18.8302 1.18689L18.8465 1.18365L18.8432 1.20796L18.8383 1.23228L18.8302 1.25659L18.8221 1.2809L18.814 1.29711L18.8059 1.31332L18.7978 1.33763C18.7924 1.35384 18.787 1.37545 18.7815 1.40246C18.7761 1.42948 18.7247 1.53753 18.6273 1.72663C18.53 1.91574 18.4082 2.10753 18.2621 2.30203C18.1161 2.49653 17.9851 2.64348 17.8694 2.7429C17.7525 2.84339 17.6751 2.91362 17.6373 2.95361C17.5994 2.99466 17.5534 3.03248 17.4993 3.06707L17.4181 3.12056L17.4019 3.12866L17.3857 3.13676L17.3824 3.14163L17.3776 3.14487L17.3727 3.14811L17.3694 3.15297L17.3532 3.16108L17.337 3.16918L17.3338 3.17404L17.3289 3.17729L17.324 3.18053L17.3208 3.18539L17.3175 3.19025L17.3126 3.19349L17.3078 3.19674L17.3045 3.2016H17.3857L17.8401 3.10435C18.1431 3.03951 18.4326 2.96118 18.7085 2.86933L19.1467 2.72345L19.1954 2.70724L19.2198 2.69914L19.236 2.69103L19.2522 2.68293L19.2685 2.67482L19.2847 2.66672L19.3171 2.66186L19.3496 2.65862V2.69103L19.3415 2.69427L19.3334 2.69914L19.3301 2.704L19.3253 2.70724L19.3204 2.71048L19.3171 2.71535L19.3139 2.72021L19.309 2.72345L19.3042 2.72669L19.3009 2.73155L19.2977 2.73642L19.2928 2.73966L19.2847 2.75587L19.2766 2.77207L19.2717 2.77532C19.2695 2.77856 19.2008 2.8704 19.0656 3.05086C18.9303 3.23239 18.8573 3.32423 18.8465 3.3264C18.8356 3.32964 18.8205 3.34585 18.801 3.37503C18.7826 3.40527 18.6679 3.52577 18.4569 3.73648C18.2459 3.94718 18.0393 4.13465 17.8369 4.29891C17.6335 4.46423 17.5307 4.66737 17.5285 4.90834C17.5253 5.14823 17.5128 5.41946 17.4912 5.72201C17.4695 6.02457 17.429 6.35143 17.3694 6.70261C17.3099 7.0538 17.218 7.45091 17.0935 7.89393C16.9691 8.33696 16.8176 8.76919 16.6391 9.19061C16.4605 9.61202 16.2739 9.99021 16.0791 10.3252C15.8843 10.6602 15.7058 10.9438 15.5435 11.1761C15.3812 11.4085 15.2162 11.6273 15.0484 11.8326C14.8807 12.0379 14.6687 12.2691 14.4122 12.5263C14.1547 12.7824 14.014 12.9229 13.9902 12.9477C13.9653 12.9715 13.8593 13.0601 13.6721 13.2135C13.486 13.368 13.2858 13.5226 13.0715 13.6771C12.8584 13.8305 12.6625 13.9586 12.484 14.0612C12.3054 14.1639 12.0901 14.2811 11.838 14.413C11.587 14.5459 11.3153 14.669 11.0232 14.7825C10.731 14.896 10.4226 15.0013 10.098 15.0986C9.77341 15.1958 9.45962 15.2715 9.15664 15.3255C8.85368 15.3795 8.51012 15.4254 8.12598 15.4633L7.54979 15.52V15.5281H6.49479V15.52L6.35682 15.5119C6.26486 15.5065 6.18911 15.5011 6.12959 15.4957C6.07009 15.4903 5.84555 15.4606 5.45601 15.4065C5.06647 15.3525 4.7608 15.2985 4.53897 15.2444C4.31716 15.1904 3.98712 15.0878 3.54889 14.9365C3.11066 14.7852 2.73572 14.6323 2.42409 14.4778C2.11355 14.3243 1.91878 14.2271 1.83978 14.186C1.76187 14.1461 1.67423 14.0964 1.57684 14.0369L1.43076 13.9478L1.42753 13.9429L1.42265 13.9397L1.41778 13.9364L1.41453 13.9316L1.3983 13.9235L1.38207 13.9154L1.37884 13.9105L1.37396 13.9073L1.36909 13.904L1.36584 13.8991L1.36261 13.8943L1.35772 13.891H1.34961V13.8586L1.36584 13.8619L1.38207 13.8667L1.45511 13.8748C1.5038 13.8802 1.63636 13.8883 1.85277 13.8991C2.06919 13.91 2.29911 13.91 2.54258 13.8991C2.78604 13.8883 3.03492 13.864 3.28919 13.8262C3.54348 13.7884 3.84375 13.7236 4.19001 13.6317C4.53627 13.5399 4.8544 13.4307 5.1444 13.3043C5.4333 13.1768 5.63888 13.0817 5.76117 13.019C5.88235 12.9574 6.06738 12.8429 6.31625 12.6754L6.68956 12.4242L6.6928 12.4193L6.69767 12.4161L6.70256 12.4128L6.70579 12.408L6.70903 12.4031L6.7139 12.3999L6.71879 12.3966L6.72202 12.3918L6.73825 12.3869L6.75448 12.3837L6.75772 12.3675L6.76259 12.3512L6.76748 12.348L6.77071 12.3431L6.64086 12.335C6.5543 12.3296 6.47044 12.3242 6.38928 12.3188C6.30813 12.3134 6.18099 12.2891 6.00786 12.2459C5.83474 12.2027 5.64809 12.1378 5.4479 12.0514C5.24772 11.9649 5.05295 11.8623 4.86359 11.7434C4.67424 11.6246 4.53735 11.5257 4.45295 11.4468C4.36963 11.369 4.26142 11.2588 4.12833 11.1162C3.99632 10.9725 3.88162 10.8249 3.78424 10.6737C3.68685 10.5224 3.5938 10.3479 3.50508 10.1501L3.37035 9.85515L3.36223 9.83084L3.35412 9.80652L3.34925 9.79032L3.346 9.77411L3.37035 9.77735L3.3947 9.78221L3.57323 9.80652C3.69227 9.82273 3.87893 9.82813 4.1332 9.82273C4.38749 9.81734 4.56332 9.80652 4.6607 9.79032C4.75809 9.77411 4.8176 9.7633 4.83924 9.7579L4.8717 9.74979L4.91228 9.74169L4.95286 9.73359L4.9561 9.72872L4.96097 9.72548L4.96586 9.72224L4.96909 9.71738L4.93662 9.70927L4.90416 9.70117L4.8717 9.69307L4.83924 9.68496L4.80678 9.67686C4.78514 9.67146 4.74728 9.66065 4.69316 9.64444C4.63906 9.62823 4.49299 9.5688 4.25493 9.46615C4.01689 9.3635 3.82752 9.26354 3.68685 9.16629C3.54583 9.06876 3.41137 8.9621 3.28433 8.84699C3.15772 8.73029 3.01869 8.58008 2.86719 8.39639C2.71571 8.2127 2.58046 7.99929 2.46142 7.75616C2.3424 7.51303 2.25313 7.28072 2.19361 7.0592C2.13433 6.83898 2.09522 6.61384 2.07677 6.38655L2.04754 6.04617L2.06377 6.04942L2.08 6.05428L2.09623 6.06238L2.11246 6.07049L2.12869 6.07859L2.14492 6.08669L2.3965 6.20015C2.56423 6.2758 2.77252 6.34063 3.02139 6.39465C3.27027 6.44868 3.41904 6.4784 3.46773 6.4838L3.54077 6.4919H3.68685L3.68362 6.48704L3.67873 6.4838L3.67387 6.48056L3.67062 6.4757L3.66739 6.47083L3.6625 6.46759L3.65763 6.46435L3.65439 6.45949L3.63816 6.45138L3.62193 6.44328L3.6187 6.43842L3.61381 6.43518L3.60894 6.43193L3.6057 6.42707L3.58947 6.41897L3.57323 6.41086L3.57 6.406C3.56676 6.40383 3.52022 6.36926 3.4304 6.30227C3.34167 6.23419 3.24862 6.14613 3.15123 6.03807C3.05385 5.93001 2.95646 5.81655 2.85908 5.69769C2.76151 5.57856 2.67461 5.45111 2.59938 5.31679C2.52365 5.18173 2.44357 5.0099 2.35917 4.80137C2.27585 4.5939 2.21255 4.38481 2.16927 4.1741C2.126 3.96339 2.10165 3.75539 2.09623 3.55008C2.09082 3.34477 2.09623 3.16918 2.11246 3.02331C2.12869 2.87743 2.16115 2.71264 2.20984 2.52895C2.25854 2.34526 2.32888 2.15076 2.42084 1.94545L2.55881 1.63749L2.56692 1.61317L2.57504 1.58886L2.57992 1.58562L2.58315 1.58076L2.5864 1.57589L2.59127 1.57265L2.59615 1.57589L2.59938 1.58076L2.60263 1.58562L2.6075 1.58886L2.61238 1.5921L2.61561 1.59697L2.61886 1.60183L2.62373 1.60507L2.63185 1.62128L2.63996 1.63749L2.64485 1.64073L2.64808 1.64559L2.86719 1.88872C3.01327 2.0508 3.1864 2.2318 3.38658 2.4317C3.58677 2.6316 3.69768 2.73533 3.71931 2.7429C3.74096 2.75154 3.768 2.77639 3.80047 2.81746C3.83293 2.85744 3.94114 2.95307 4.12508 3.10435C4.30904 3.25562 4.5498 3.43122 4.84736 3.63112C5.14493 3.83102 5.47495 4.02823 5.83744 4.22273C6.19994 4.41723 6.58948 4.59281 7.00606 4.7495C7.42265 4.90619 7.71481 5.00884 7.88252 5.05746C8.05025 5.10609 8.33699 5.16821 8.74276 5.24386C9.14853 5.3195 9.45422 5.36813 9.6598 5.38973C9.86539 5.41134 10.0061 5.42377 10.0818 5.42701L10.1954 5.43025L10.1922 5.40594L10.1873 5.38163L10.1548 5.17902C10.1332 5.04396 10.1224 4.85486 10.1224 4.61173C10.1224 4.3686 10.1413 4.14439 10.1792 3.93908C10.2171 3.73377 10.2739 3.52577 10.3496 3.31506C10.4254 3.10435 10.4995 2.93523 10.572 2.80773C10.6456 2.68131 10.7419 2.53705 10.8609 2.37497C10.9799 2.21288 11.1341 2.0454 11.3235 1.87251C11.5128 1.69961 11.7292 1.54563 11.9727 1.41057C12.2162 1.2755 12.4407 1.17284 12.6463 1.10261C12.8519 1.03238 13.025 0.986443 13.1657 0.964837C13.3063 0.943232 13.3767 0.9308 13.3767 0.927558Z" fill="white"/>
</svg>
