<svg width="49" height="50" viewBox="0 0 49 50" fill="none" xmlns="http://www.w3.org/2000/svg">
<path d="M6.24407 20.8367C5.91898 20.5117 5.6611 20.1258 5.48516 19.7012C5.30922 19.2765 5.21866 18.8213 5.21866 18.3616C5.21866 17.9019 5.30922 17.4467 5.48516 17.022C5.6611 16.5973 5.91898 16.2114 6.24407 15.8864L20.2441 1.88642C20.9005 1.22997 21.7909 0.861176 22.7192 0.861176C23.6476 0.861176 24.5379 1.22997 25.1944 1.88642C25.8508 2.54287 26.2196 3.43321 26.2196 4.36158C26.2196 5.28994 25.8508 6.18028 25.1944 6.83673L11.1944 20.8367C10.8694 21.1618 10.4835 21.4197 10.0588 21.5956C9.63411 21.7716 9.17892 21.8621 8.71923 21.8621C8.25953 21.8621 7.80434 21.7716 7.37965 21.5956C6.95496 21.4197 6.56909 21.1618 6.24407 20.8367ZM47.9444 24.6364C47.6194 24.3113 47.2335 24.0534 46.8088 23.8775C46.3841 23.7016 45.9289 23.611 45.4692 23.611C45.0095 23.611 44.5543 23.7016 44.1297 23.8775C43.705 24.0534 43.3191 24.3113 42.9941 24.6364L28.9941 38.6364C28.3382 39.2927 27.9698 40.1826 27.9698 41.1105C27.9698 42.0383 28.3382 42.9282 28.9941 43.5845C29.3191 43.9096 29.705 44.1675 30.1297 44.3435C30.5543 44.5194 31.0095 44.61 31.4692 44.61C31.9289 44.61 32.3841 44.5194 32.8088 44.3435C33.2335 44.1675 33.6194 43.9096 33.9444 43.5845L47.9444 29.5845C48.6003 28.9282 48.9687 28.0383 48.9687 27.1105C48.9687 26.1826 48.6003 25.2927 47.9444 24.6364ZM39.7063 20.6245L29.2063 10.1245C28.8781 9.7966 28.4332 9.61239 27.9692 9.61239C27.5053 9.61239 27.0604 9.7966 26.7322 10.1245L14.4822 22.3745C14.1543 22.7027 13.97 23.1476 13.97 23.6116C13.97 24.0755 14.1543 24.5205 14.4822 24.8486L17.2494 27.6245L0.99407 43.8886C0.3654 44.5503 0.0200963 45.4314 0.0317813 46.3441C0.0434663 47.2568 0.411216 48.1288 1.05662 48.7742C1.70203 49.4196 2.57402 49.7873 3.48669 49.799C4.39935 49.8107 5.28048 49.4654 5.94219 48.8367L22.2063 32.5814L24.9822 35.3574C25.3104 35.6853 25.7553 35.8695 26.2192 35.8695C26.6832 35.8695 27.1281 35.6853 27.4563 35.3574L39.7063 23.1074C39.87 22.9447 39.9999 22.7513 40.0885 22.5382C40.1772 22.3252 40.2228 22.0967 40.2228 21.8659C40.2228 21.6352 40.1772 21.4067 40.0885 21.1937C39.9999 20.9806 39.87 20.7872 39.7063 20.6245Z" fill="#D0D0D0"/>
</svg>
