<svg width="30" height="30" viewBox="0 0 30 30" fill="none" xmlns="http://www.w3.org/2000/svg">
<path d="M27.1479 24.0625C27.1479 24.3028 27.0525 24.5333 26.8825 24.7033C26.7126 24.8732 26.4821 24.9687 26.2417 24.9687H4.4917C4.25135 24.9687 4.02084 24.8732 3.85088 24.7033C3.68093 24.5333 3.58545 24.3028 3.58545 24.0625C3.58545 23.8221 3.68093 23.5916 3.85088 23.4217C4.02084 23.2517 4.25135 23.1562 4.4917 23.1562H26.2417C26.4821 23.1562 26.7126 23.2517 26.8825 23.4217C27.0525 23.5916 27.1479 23.8221 27.1479 24.0625ZM27.1479 6.84372V19.5312C27.1479 20.0119 26.957 20.4729 26.6171 20.8128C26.2772 21.1528 25.8162 21.3437 25.3354 21.3437H5.39795C4.91724 21.3437 4.45623 21.1528 4.11632 20.8128C3.77641 20.4729 3.58545 20.0119 3.58545 19.5312V6.84372C3.58545 6.36301 3.77641 5.902 4.11632 5.56209C4.45623 5.22218 4.91724 5.03122 5.39795 5.03122H25.3354C25.8162 5.03122 26.2772 5.22218 26.6171 5.56209C26.957 5.902 27.1479 6.36301 27.1479 6.84372ZM19.4448 13.1875C19.4448 13.0349 19.4062 12.8849 19.3328 12.7512C19.2593 12.6176 19.1533 12.5046 19.0246 12.4228L14.0402 9.25095C13.9032 9.16391 13.7453 9.11526 13.5831 9.11009C13.4208 9.10491 13.2602 9.14341 13.1179 9.22154C12.9757 9.29968 12.857 9.4146 12.7743 9.55428C12.6916 9.69396 12.648 9.85328 12.6479 10.0156V16.3593C12.648 16.5217 12.6916 16.681 12.7743 16.8207C12.857 16.9603 12.9757 17.0753 13.1179 17.1534C13.2602 17.2315 13.4208 17.27 13.5831 17.2649C13.7453 17.2597 13.9032 17.211 14.0402 17.124L19.0246 13.9521C19.1533 13.8703 19.2593 13.7574 19.3328 13.6237C19.4062 13.49 19.4448 13.34 19.4448 13.1875Z" fill="white"/>
</svg>
