<svg width="55" height="56" viewBox="0 0 55 56" fill="none" xmlns="http://www.w3.org/2000/svg">
<path d="M50.871 40.738L32.0861 8.11524C31.6167 7.316 30.9465 6.6533 30.1421 6.19285C29.3377 5.73239 28.4269 5.49016 27.5 5.49016C26.5731 5.49016 25.6622 5.73239 24.8578 6.19285C24.0534 6.6533 23.3832 7.316 22.9138 8.11524L4.12896 40.738C3.67729 41.511 3.43927 42.3903 3.43927 43.2856C3.43927 44.1809 3.67729 45.0601 4.12896 45.8332C4.59236 46.6373 5.26135 47.3036 6.06729 47.7637C6.87323 48.2239 7.78708 48.4613 8.71508 48.4517H46.2848C47.2121 48.4606 48.1251 48.2228 48.9302 47.7626C49.7353 47.3025 50.4036 46.6366 50.8667 45.8332C51.319 45.0605 51.5577 44.1815 51.5585 43.2862C51.5592 42.3908 51.322 41.5114 50.871 40.738ZM25.7815 22.6749C25.7815 22.2191 25.9625 21.782 26.2848 21.4597C26.6071 21.1375 27.0442 20.9564 27.5 20.9564C27.9557 20.9564 28.3928 21.1375 28.7151 21.4597C29.0374 21.782 29.2184 22.2191 29.2184 22.6749V31.2671C29.2184 31.7229 29.0374 32.16 28.7151 32.4823C28.3928 32.8045 27.9557 32.9856 27.5 32.9856C27.0442 32.9856 26.6071 32.8045 26.2848 32.4823C25.9625 32.16 25.7815 31.7229 25.7815 31.2671V22.6749ZM27.5 41.5779C26.9901 41.5779 26.4918 41.4267 26.0679 41.1434C25.644 40.8602 25.3136 40.4576 25.1185 39.9866C24.9234 39.5156 24.8723 38.9973 24.9718 38.4973C25.0713 37.9973 25.3168 37.538 25.6773 37.1775C26.0378 36.817 26.4971 36.5715 26.9971 36.472C27.4971 36.3726 28.0154 36.4236 28.4864 36.6187C28.9574 36.8138 29.36 37.1442 29.6432 37.5681C29.9265 37.992 30.0776 38.4904 30.0776 39.0002C30.0776 39.6838 29.8061 40.3395 29.3226 40.8229C28.8392 41.3063 28.1836 41.5779 27.5 41.5779Z" fill="#D0D0D0"/>
</svg>
