<svg width="22" height="16" viewBox="0 0 22 16" fill="none" xmlns="http://www.w3.org/2000/svg">
<path d="M11.7882 15.2058L7.72605 15.1298C6.4108 15.1034 5.09228 15.1562 3.80282 14.8821C1.84126 14.4726 1.70229 12.4647 1.55688 10.7804C1.35652 8.41261 1.43409 6.00179 1.81219 3.65372C2.02565 2.3362 2.86568 1.55003 4.16476 1.46448C8.55011 1.154 12.9646 1.1908 17.3403 1.33565C17.8024 1.34892 18.2677 1.4215 18.7234 1.50411C20.9727 1.90703 21.0275 4.18243 21.1733 6.09788C21.3187 8.0331 21.2573 9.97826 20.9794 11.9003C20.7564 13.4917 20.3298 14.8263 18.5294 14.9551C16.2737 15.1236 14.0697 15.2592 11.8076 15.216C11.8077 15.2058 11.7947 15.2058 11.7882 15.2058ZM9.40006 11.1768C11.1 10.1794 12.7674 9.19858 14.4576 8.20786C12.7545 7.21044 11.0902 6.22965 9.40006 5.23893V11.1768Z" fill="white"/>
</svg>
