<svg width="36" height="36" viewBox="0 0 36 36" fill="none" xmlns="http://www.w3.org/2000/svg">
<path opacity="0.2" d="M33.75 15.75C33.75 19.478 26.6991 22.5 18 22.5C9.30094 22.5 2.25 19.478 2.25 15.75C2.25 13.0781 5.88656 10.7592 11.1586 9.66797C10.4795 10.8731 10.1235 12.2334 10.125 13.6167V14.0484C10.1253 14.5547 10.2969 15.046 10.612 15.4423C10.9271 15.8386 11.3671 16.1166 11.8603 16.2309C13.8763 16.675 15.9358 16.8911 18 16.875C20.0633 16.891 22.1219 16.675 24.1369 16.2309C24.6299 16.1158 25.0697 15.8377 25.3851 15.4416C25.7005 15.0456 25.8731 14.5547 25.875 14.0484V13.5C25.8785 12.1628 25.5396 10.847 24.8906 9.67781C30.1345 10.7733 33.75 13.0781 33.75 15.75Z" fill="url(#paint0_linear_22_3855)"/>
<path d="M25.8173 30.0193C25.9117 30.3023 25.8897 30.6113 25.7563 30.8782C25.6229 31.1451 25.3889 31.348 25.1058 31.4424C24.8227 31.5368 24.5137 31.5148 24.2468 31.3813C23.98 31.2479 23.777 31.0139 23.6827 30.7308L22.5577 27.3558C22.5109 27.2157 22.4923 27.0677 22.5028 26.9203C22.5132 26.7729 22.5526 26.629 22.6187 26.4969C22.6848 26.3647 22.7762 26.2469 22.8878 26.1501C22.9995 26.0533 23.1291 25.9794 23.2692 25.9327C23.4094 25.886 23.5574 25.8673 23.7048 25.8778C23.8521 25.8883 23.996 25.9277 24.1282 25.9937C24.2603 26.0598 24.3781 26.1513 24.4749 26.2629C24.5717 26.3745 24.6456 26.5041 24.6923 26.6443L25.8173 30.0193ZM18 25.875C17.7016 25.875 17.4155 25.9936 17.2045 26.2046C16.9935 26.4155 16.875 26.7017 16.875 27V31.5C16.875 31.7984 16.9935 32.0846 17.2045 32.2955C17.4155 32.5065 17.7016 32.625 18 32.625C18.2984 32.625 18.5845 32.5065 18.7955 32.2955C19.0065 32.0846 19.125 31.7984 19.125 31.5V27C19.125 26.7017 19.0065 26.4155 18.7955 26.2046C18.5845 25.9936 18.2984 25.875 18 25.875ZM12.7308 25.9327C12.5906 25.886 12.4426 25.8673 12.2952 25.8778C12.1479 25.8882 12.004 25.9276 11.8718 25.9937C11.7397 26.0598 11.6218 26.1513 11.525 26.2629C11.4282 26.3745 11.3544 26.5041 11.3077 26.6443L10.1827 30.0193C10.0883 30.3023 10.1103 30.6113 10.2437 30.8782C10.3771 31.1451 10.6111 31.348 10.8942 31.4424C11.1773 31.5368 11.4863 31.5148 11.7531 31.3813C12.02 31.2479 12.223 31.0139 12.3173 30.7308L13.4423 27.3558C13.4891 27.2157 13.5077 27.0677 13.4973 26.9203C13.4868 26.7729 13.4474 26.629 13.3813 26.4969C13.3153 26.3647 13.2238 26.2469 13.1122 26.1501C13.0006 26.0533 12.871 25.9794 12.7308 25.9327ZM34.875 15.75C34.875 18.031 32.9948 20.094 29.5805 21.5565C26.4684 22.891 22.3594 23.625 18 23.625C13.6406 23.625 9.53156 22.891 6.41953 21.5565C3.00516 20.094 1.125 18.031 1.125 15.75C1.125 14.573 1.64109 12.8265 4.10203 11.1797C5.70094 10.1096 7.89047 9.24474 10.4555 8.66958C11.1708 7.53629 12.1314 6.57811 13.2666 5.86577C14.4017 5.15344 15.6824 4.70513 17.0139 4.55395C18.3455 4.40277 19.6941 4.55258 20.96 4.99232C22.226 5.43205 23.377 6.15048 24.3281 7.09458C24.8133 7.57465 25.243 8.10768 25.6092 8.68364C31.4198 9.99708 34.875 12.6197 34.875 15.75ZM11.25 13.6168V14.0386C11.2486 14.2914 11.3331 14.537 11.4898 14.7353C11.6464 14.9336 11.8659 15.0728 12.112 15.1299C14.0453 15.5561 16.0203 15.7642 18 15.75C19.9785 15.766 21.9526 15.5598 23.8852 15.1355C24.1317 15.0787 24.3517 14.9398 24.5088 14.7415C24.666 14.5432 24.751 14.2973 24.75 14.0443V13.5C24.7501 12.606 24.5725 11.7208 24.2277 10.896C23.8829 10.0711 23.3776 9.32296 22.7413 8.69497C22.1049 8.06699 21.3501 7.57168 20.5208 7.2378C19.6914 6.90392 18.804 6.73813 17.91 6.75005C14.2383 6.79786 11.25 9.87896 11.25 13.6168ZM32.625 15.75C32.625 14.1047 30.2864 12.3905 26.7328 11.3077C26.9106 12.0249 27.0003 12.7611 27 13.5V14.0513C27.0012 14.8125 26.7434 15.5515 26.2691 16.1469C25.7949 16.7423 25.1322 17.1588 24.39 17.3279C22.2919 17.7904 20.1484 18.0159 18 18C15.8516 18.0158 13.7081 17.7903 11.61 17.3279C10.8678 17.1588 10.2051 16.7423 9.73086 16.1469C9.25658 15.5515 8.99885 14.8125 9 14.0513V13.621C9.00023 12.837 9.1009 12.0563 9.29953 11.2979C5.72625 12.375 3.375 14.0977 3.375 15.75C3.375 18.4107 9.38109 21.375 18 21.375C26.6189 21.375 32.625 18.4107 32.625 15.75Z" fill="url(#paint1_linear_22_3855)"/>
<defs>
<linearGradient id="paint0_linear_22_3855" x1="18" y1="9.66797" x2="18" y2="22.5" gradientUnits="userSpaceOnUse">
<stop stop-color="#E6E9E8"/>
<stop offset="1" stop-color="#BABCC0"/>
</linearGradient>
<linearGradient id="paint1_linear_22_3855" x1="18" y1="4.49683" x2="18" y2="32.625" gradientUnits="userSpaceOnUse">
<stop stop-color="#E6E9E8"/>
<stop offset="1" stop-color="#BABCC0"/>
</linearGradient>
</defs>
</svg>
