<svg width="36" height="36" viewBox="0 0 36 36" fill="none" xmlns="http://www.w3.org/2000/svg">
<path opacity="0.2" d="M29.9658 24.255C28.875 26.3414 27.2576 28.1063 25.274 29.3745C23.2905 30.6427 21.0097 31.3701 18.6581 31.4845L19.1039 29.1727C19.1371 28.9991 19.1289 28.8202 19.08 28.6504C19.0312 28.4806 18.943 28.3247 18.8227 28.1953L16.0467 25.3364C15.8971 25.1749 15.7982 24.973 15.7622 24.7558C15.7262 24.5386 15.7547 24.3155 15.8442 24.1144L17.7708 19.7916C17.8698 19.5694 18.0382 19.3854 18.2507 19.267C18.4631 19.1486 18.7082 19.1022 18.9492 19.1349L22.1583 19.568C22.3137 19.5893 22.4631 19.6424 22.5971 19.7241L29.9658 24.255ZM16.4124 13.3594L18.1406 12.4088C18.2169 12.3675 18.2878 12.317 18.3516 12.2583L22.1358 8.83689C22.3242 8.66558 22.4488 8.43544 22.4894 8.18409C22.5301 7.93275 22.4842 7.67506 22.3594 7.45314L20.8828 4.80798C19.9356 4.60281 18.9692 4.49956 18 4.50002C14.9185 4.49532 11.9289 5.54928 9.53159 7.48548L7.87502 11.4019C7.76313 11.667 7.75709 11.9649 7.85815 12.2344L9.47534 16.5474C9.54178 16.7236 9.65141 16.8803 9.79416 17.0031C9.93691 17.126 10.1082 17.211 10.2924 17.2505L10.6706 17.332L12.5438 14.0625C12.6427 13.8913 12.7849 13.7491 12.9563 13.6503C13.1276 13.5516 13.322 13.4997 13.5197 13.5H15.8696C16.0595 13.5003 16.2464 13.4519 16.4124 13.3594Z" fill="url(#paint0_linear_22_3848)"/>
<path d="M18 3.375C15.1075 3.375 12.2799 4.23274 9.87479 5.83976C7.46972 7.44677 5.5952 9.73089 4.48827 12.4033C3.38134 15.0756 3.09171 18.0162 3.65602 20.8532C4.22033 23.6902 5.61323 26.2961 7.65857 28.3414C9.70391 30.3868 12.3098 31.7797 15.1468 32.344C17.9838 32.9083 20.9244 32.6187 23.5968 31.5117C26.2691 30.4048 28.5532 28.5303 30.1602 26.1252C31.7673 23.7201 32.625 20.8926 32.625 18C32.6209 14.1225 31.0788 10.4049 28.3369 7.66309C25.5951 4.92125 21.8775 3.37909 18 3.375ZM30.375 18C30.3762 19.5876 30.0706 21.1605 29.475 22.6322L23.1891 18.7664C22.9218 18.6015 22.6228 18.4946 22.3116 18.4528L19.1025 18.0197C18.6603 17.962 18.2109 18.0362 17.8107 18.2328C17.4104 18.4294 17.0771 18.7398 16.8525 19.125H15.6263L15.0919 18.0197C14.9441 17.7119 14.7279 17.442 14.4598 17.2307C14.1917 17.0194 13.8788 16.8722 13.545 16.8005L12.42 16.5572L13.5197 14.625H15.8695C16.2498 14.6243 16.6237 14.5275 16.9566 14.3438L18.6792 13.3931C18.8306 13.3088 18.9721 13.2078 19.1011 13.0922L22.8853 9.66938C23.2647 9.32936 23.5169 8.87018 23.6002 8.36757C23.6836 7.86496 23.5931 7.34896 23.3438 6.90469L23.2931 6.81328C25.4107 7.81734 27.2 9.40133 28.4535 11.3814C29.7071 13.3615 30.3733 15.6565 30.375 18ZM20.153 5.81344L21.375 8.00156L17.5908 11.4244L15.8695 12.375H13.5197C13.1242 12.3744 12.7355 12.4781 12.3928 12.6756C12.0501 12.8731 11.7656 13.1575 11.5678 13.5L10.3402 15.6417L8.91282 11.8392L10.4513 8.20125C11.813 7.14908 13.3795 6.39295 15.0504 5.98128C16.7213 5.56961 18.4597 5.51148 20.1544 5.81063L20.153 5.81344ZM5.62501 18C5.62313 16.1607 6.0335 14.3443 6.82594 12.6844L8.42063 16.9411C8.55353 17.2935 8.77278 17.607 9.05827 17.8527C9.34377 18.0984 9.68638 18.2685 10.0547 18.3473L13.0683 18.9956L13.6041 20.1094C13.79 20.4882 14.0782 20.8074 14.436 21.0311C14.7938 21.2547 15.2071 21.3739 15.6291 21.375H15.8372L14.8205 23.6573C14.6413 24.0592 14.584 24.5048 14.6554 24.939C14.7269 25.3731 14.9241 25.7768 15.2227 26.1L15.2423 26.1197L18 28.9603L17.7272 30.3666C14.4954 30.2914 11.4209 28.9561 9.15993 26.6457C6.89891 24.3353 5.63037 21.2327 5.62501 18ZM20.0503 30.2034L20.2092 29.3864C20.2745 29.0393 20.2577 28.6817 20.16 28.3423C20.0623 28.0029 19.8865 27.691 19.6467 27.4317C19.6398 27.4255 19.6332 27.4189 19.627 27.412L16.875 24.5728L18.8016 20.25L22.0106 20.6831L28.44 24.6375C27.5085 26.1003 26.2806 27.3515 24.8355 28.3103C23.3903 29.269 21.7602 29.9139 20.0503 30.2034Z" fill="url(#paint1_linear_22_3848)"/>
<defs>
<linearGradient id="paint0_linear_22_3848" x1="18.8762" y1="4.5" x2="18.8762" y2="31.4845" gradientUnits="userSpaceOnUse">
<stop stop-color="#E6E9E8"/>
<stop offset="1" stop-color="#BABCC0"/>
</linearGradient>
<linearGradient id="paint1_linear_22_3848" x1="18" y1="3.375" x2="18" y2="32.625" gradientUnits="userSpaceOnUse">
<stop stop-color="#E6E9E8"/>
<stop offset="1" stop-color="#BABCC0"/>
</linearGradient>
</defs>
</svg>
