<svg width="37" height="36" viewBox="0 0 37 36" fill="none" xmlns="http://www.w3.org/2000/svg">
<path opacity="0.2" d="M18.5 3.375C15.2179 3.375 12.0703 4.67879 9.74955 6.99955C7.42879 9.32032 6.125 12.4679 6.125 15.75C6.125 22.5844 14 32.625 18.5 32.625C23 32.625 30.875 22.5844 30.875 15.75C30.875 12.4679 29.5712 9.32032 27.2504 6.99955C24.9297 4.67879 21.7821 3.375 18.5 3.375ZM15.125 20.25C13.9315 20.25 12.7869 19.7759 11.943 18.932C11.0991 18.0881 10.625 16.9435 10.625 15.75C10.625 15.4516 10.7435 15.1655 10.9545 14.9545C11.1655 14.7435 11.4516 14.625 11.75 14.625C12.9435 14.625 14.0881 15.0991 14.932 15.943C15.7759 16.7869 16.25 17.9315 16.25 19.125C16.25 19.4234 16.1315 19.7095 15.9205 19.9205C15.7095 20.1315 15.4234 20.25 15.125 20.25ZM21.875 20.25C21.5766 20.25 21.2905 20.1315 21.0795 19.9205C20.8685 19.7095 20.75 19.4234 20.75 19.125C20.75 17.9315 21.2241 16.7869 22.068 15.943C22.9119 15.0991 24.0565 14.625 25.25 14.625C25.5484 14.625 25.8345 14.7435 26.0455 14.9545C26.2565 15.1655 26.375 15.4516 26.375 15.75C26.375 16.9435 25.9009 18.0881 25.057 18.932C24.2131 19.7759 23.0685 20.25 21.875 20.25Z" fill="url(#paint0_linear_22_3841)"/>
<path d="M18.5 2.25C14.9208 2.25409 11.4894 3.67773 8.95858 6.20858C6.42773 8.73943 5.00409 12.1708 5 15.75C5 19.125 6.76625 23.4928 9.72641 27.4219C12.7048 31.3805 15.9842 33.75 18.5 33.75C21.0158 33.75 24.2952 31.3861 27.2736 27.4219C30.2337 23.4844 32 19.125 32 15.75C31.9959 12.1708 30.5723 8.73943 28.0414 6.20858C25.5106 3.67773 22.0792 2.25409 18.5 2.25ZM25.4764 26.0747C23.0338 29.3189 20.2311 31.5 18.5 31.5C16.7689 31.5 13.9663 29.3189 11.5236 26.0747C8.88828 22.5703 7.25 18.6145 7.25 15.75C7.25 12.7663 8.43526 9.90483 10.545 7.79505C12.6548 5.68526 15.5163 4.5 18.5 4.5C21.4837 4.5 24.3452 5.68526 26.455 7.79505C28.5647 9.90483 29.75 12.7663 29.75 15.75C29.75 18.6145 28.1117 22.5703 25.4764 26.0747ZM17.375 19.125C17.375 17.6332 16.7824 16.2024 15.7275 15.1475C14.6726 14.0926 13.2418 13.5 11.75 13.5C11.1533 13.5 10.581 13.7371 10.159 14.159C9.73705 14.581 9.5 15.1533 9.5 15.75C9.5 17.2418 10.0926 18.6726 11.1475 19.7275C12.2024 20.7824 13.6332 21.375 15.125 21.375C15.7217 21.375 16.294 21.1379 16.716 20.716C17.1379 20.294 17.375 19.7217 17.375 19.125ZM11.75 15.75C12.6451 15.75 13.5036 16.1056 14.1365 16.7385C14.7694 17.3714 15.125 18.2299 15.125 19.125C14.2299 19.125 13.3714 18.7694 12.7385 18.1365C12.1056 17.5036 11.75 16.6451 11.75 15.75ZM25.25 13.5C23.7582 13.5 22.3274 14.0926 21.2725 15.1475C20.2176 16.2024 19.625 17.6332 19.625 19.125C19.625 19.7217 19.8621 20.294 20.284 20.716C20.706 21.1379 21.2783 21.375 21.875 21.375C22.6137 21.375 23.3451 21.2295 24.0276 20.9468C24.7101 20.6641 25.3301 20.2498 25.8525 19.7275C26.3748 19.2051 26.7891 18.5851 27.0718 17.9026C27.3545 17.2201 27.5 16.4887 27.5 15.75C27.5 15.1533 27.2629 14.581 26.841 14.159C26.419 13.7371 25.8467 13.5 25.25 13.5ZM21.875 19.125C21.875 18.2299 22.2306 17.3714 22.8635 16.7385C23.4964 16.1056 24.3549 15.75 25.25 15.75C25.25 16.6451 24.8944 17.5036 24.2615 18.1365C23.6286 18.7694 22.7701 19.125 21.875 19.125ZM21.875 25.875C21.875 26.1734 21.7565 26.4595 21.5455 26.6705C21.3345 26.8815 21.0484 27 20.75 27H16.25C15.9516 27 15.6655 26.8815 15.4545 26.6705C15.2435 26.4595 15.125 26.1734 15.125 25.875C15.125 25.5766 15.2435 25.2905 15.4545 25.0795C15.6655 24.8685 15.9516 24.75 16.25 24.75H20.75C21.0484 24.75 21.3345 24.8685 21.5455 25.0795C21.7565 25.2905 21.875 25.5766 21.875 25.875Z" fill="url(#paint1_linear_22_3841)"/>
<defs>
<linearGradient id="paint0_linear_22_3841" x1="18.5" y1="3.375" x2="18.5" y2="32.625" gradientUnits="userSpaceOnUse">
<stop stop-color="#E6E9E8"/>
<stop offset="1" stop-color="#BABCC0"/>
</linearGradient>
<linearGradient id="paint1_linear_22_3841" x1="18.5" y1="2.25" x2="18.5" y2="33.75" gradientUnits="userSpaceOnUse">
<stop stop-color="#E6E9E8"/>
<stop offset="1" stop-color="#BABCC0"/>
</linearGradient>
</defs>
</svg>
