<svg width="37" height="36" viewBox="0 0 37 36" fill="none" xmlns="http://www.w3.org/2000/svg">
<path opacity="0.2" d="M13.8327 27L9.69126 30.1275C9.5421 30.2469 9.36497 30.3264 9.17657 30.3584C8.98818 30.3904 8.79474 30.3739 8.61449 30.3104C8.43424 30.247 8.27313 30.1387 8.14635 29.9957C8.01957 29.8527 7.93129 29.6798 7.88986 29.4932L6.15173 21.6703C6.11428 21.5023 6.11584 21.328 6.15631 21.1608C6.19678 20.9936 6.27508 20.8378 6.38517 20.7056L10.6475 15.5967C10.4844 18.8789 11.286 22.7011 13.8327 27ZM30.6149 20.7056L26.3525 15.5967C26.5227 18.8789 25.7141 22.7011 23.1674 27L27.3088 30.1275C27.4579 30.2469 27.6351 30.3264 27.8235 30.3584C28.0118 30.3904 28.2053 30.3739 28.3855 30.3104C28.5658 30.247 28.7269 30.1387 28.8537 29.9957C28.9805 29.8527 29.0687 29.6798 29.1102 29.4932L30.8483 21.6703C30.8857 21.5023 30.8842 21.328 30.8437 21.1608C30.8032 20.9936 30.7249 20.8378 30.6149 20.7056Z" fill="url(#paint0_linear_22_3862)"/>
<path d="M21.875 31.5C21.875 31.7984 21.7564 32.0846 21.5455 32.2955C21.3345 32.5065 21.0483 32.625 20.75 32.625H16.25C15.9516 32.625 15.6654 32.5065 15.4545 32.2955C15.2435 32.0846 15.125 31.7984 15.125 31.5C15.125 31.2017 15.2435 30.9155 15.4545 30.7045C15.6654 30.4936 15.9516 30.375 16.25 30.375H20.75C21.0483 30.375 21.3345 30.4936 21.5455 30.7045C21.7564 30.9155 21.875 31.2017 21.875 31.5ZM18.5 15.75C18.8337 15.75 19.16 15.6511 19.4375 15.4657C19.715 15.2802 19.9313 15.0167 20.059 14.7083C20.1867 14.4 20.2201 14.0607 20.155 13.7333C20.0899 13.406 19.9292 13.1053 19.6932 12.8693C19.4572 12.6333 19.1565 12.4726 18.8292 12.4075C18.5018 12.3424 18.1625 12.3758 17.8542 12.5035C17.5458 12.6312 17.2823 12.8475 17.0969 13.125C16.9114 13.4025 16.8125 13.7288 16.8125 14.0625C16.8125 14.5101 16.9903 14.9393 17.3067 15.2558C17.6232 15.5723 18.0524 15.75 18.5 15.75ZM31.9465 21.9136L30.2084 29.7366C30.1259 30.1081 29.9506 30.4526 29.6988 30.7379C29.447 31.0232 29.1269 31.24 28.7686 31.368C28.4102 31.496 28.0252 31.531 27.6497 31.4697C27.2741 31.4084 26.9202 31.2529 26.6211 31.0177L22.7904 28.125H14.2123L10.3789 31.0177C10.0797 31.2529 9.72584 31.4084 9.35027 31.4697C8.9747 31.531 8.58973 31.496 8.23136 31.368C7.87299 31.24 7.55293 31.0232 7.30113 30.7379C7.04932 30.4526 6.87398 30.1081 6.79152 29.7366L5.0534 21.9136C4.97967 21.5779 4.9834 21.2298 5.06429 20.8958C5.14519 20.5617 5.30113 20.2505 5.52027 19.9857L9.53652 15.1679C9.67132 13.3973 10.0778 11.658 10.7417 10.0111C12.5557 5.46333 15.8042 2.61004 17.1218 1.59473C17.5162 1.28913 18.001 1.12329 18.5 1.12329C18.9989 1.12329 19.4837 1.28913 19.8781 1.59473C21.1915 2.61004 24.4442 5.46333 26.2582 10.0111C26.9221 11.658 27.3286 13.3973 27.4634 15.1679L31.4797 19.9857C31.6988 20.2505 31.8547 20.5617 31.9356 20.8958C32.0165 21.2298 32.0203 21.5779 31.9465 21.9136ZM14.4823 25.875H22.5176C25.4876 20.596 26.0431 15.5419 24.1686 10.845C22.5148 6.69942 19.4126 4.07817 18.5 3.37504C17.5845 4.07817 14.4823 6.69942 12.8286 10.845C10.9568 15.5419 11.5123 20.596 14.4823 25.875ZM12.3729 26.6977C10.8589 23.9461 9.94012 21.2419 9.61668 18.585L7.24996 21.4257L8.98809 29.25L9.0134 29.2318L12.3729 26.6977ZM29.75 21.4257L27.3832 18.585C27.0626 21.2363 26.1457 23.9405 24.6326 26.6977L27.9865 29.229L28.0118 29.2472L29.75 21.4257Z" fill="url(#paint1_linear_22_3862)"/>
<defs>
<linearGradient id="paint0_linear_22_3862" x1="18.5" y1="15.5967" x2="18.5" y2="30.3743" gradientUnits="userSpaceOnUse">
<stop stop-color="#E6E9E8"/>
<stop offset="1" stop-color="#BABCC0"/>
</linearGradient>
<linearGradient id="paint1_linear_22_3862" x1="18.5" y1="1.12329" x2="18.5" y2="32.625" gradientUnits="userSpaceOnUse">
<stop stop-color="#E6E9E8"/>
<stop offset="1" stop-color="#BABCC0"/>
</linearGradient>
</defs>
</svg>
