<svg width="36" height="36" viewBox="0 0 36 36" fill="none" xmlns="http://www.w3.org/2000/svg">
<path opacity="0.2" d="M30.375 18C30.375 20.4475 29.6492 22.8401 28.2894 24.8752C26.9297 26.9102 24.9969 28.4964 22.7357 29.433C20.4745 30.3696 17.9863 30.6147 15.5858 30.1372C13.1852 29.6597 10.9802 28.4811 9.24956 26.7504C7.51888 25.0198 6.34028 22.8148 5.86279 20.4142C5.3853 18.0137 5.63036 15.5255 6.567 13.2643C7.50363 11.0031 9.08977 9.07035 11.1248 7.71056C13.1599 6.35078 15.5525 5.625 18 5.625C21.2821 5.625 24.4297 6.92879 26.7505 9.24955C29.0712 11.5703 30.375 14.7179 30.375 18Z" fill="url(#paint0_linear_22_3834)"/>
<path d="M34.4686 8.53308C33.3928 6.67824 30.5536 6.26058 26.242 7.31527C24.2459 5.77183 21.857 4.81914 19.3465 4.56544C16.8361 4.31174 14.3048 4.76719 12.0403 5.88005C9.77575 6.99292 7.86871 8.71858 6.53581 10.861C5.20291 13.0034 4.49759 15.4767 4.49997 18C4.50015 18.5787 4.53678 19.1569 4.60966 19.7311C0.715752 23.7656 0.772002 26.1562 1.53278 27.4668C2.24997 28.71 3.74622 29.25 5.71497 29.25C7.08188 29.2217 8.44072 29.0329 9.76357 28.6875C11.7599 30.2294 14.1486 31.1807 16.6583 31.4334C19.1681 31.6861 21.6985 31.2301 23.9622 30.1171C26.2258 29.0041 28.1321 27.2787 29.4645 25.1368C30.7969 22.995 31.5021 20.5224 31.5 18C31.5003 17.424 31.4641 16.8487 31.3917 16.2773C33.1495 14.4492 34.3195 12.7125 34.7175 11.2261C34.9917 10.1967 34.9087 9.29105 34.4686 8.53308ZM18 6.74996C20.548 6.75258 23.0199 7.61893 25.0121 9.20756C27.0043 10.7962 28.3991 13.0133 28.9687 15.4968C26.5697 17.7553 23.3226 20.0714 20.2401 21.8432C16.3659 24.0665 13.005 25.4531 10.3247 26.2125C8.67382 24.6728 7.52477 22.6718 7.02709 20.4699C6.52941 18.2681 6.70616 15.9674 7.53432 13.8674C8.36248 11.7674 9.8037 9.96534 11.6703 8.69589C13.537 7.42644 15.7426 6.74837 18 6.74996ZM3.47903 26.3376C3.27372 25.9846 3.38763 25.3195 3.79122 24.5095C4.19033 23.7506 4.6759 23.0404 5.23825 22.3931C5.79569 24.0082 6.65464 25.5027 7.7695 26.7975C5.34372 27.2053 3.8306 26.9451 3.47903 26.3376ZM18 29.25C16.1031 29.2519 14.237 28.7708 12.5775 27.8521C15.6235 26.7748 18.5626 25.4162 21.3567 23.7937C24.3914 22.0514 27.0773 20.1628 29.2415 18.2981C29.1614 21.2275 27.9423 24.0103 25.8432 26.0553C23.7442 28.1003 20.9305 29.2463 18 29.25ZM32.5434 10.6439C32.3043 11.5312 31.6729 12.5465 30.7673 13.6153C30.2113 11.9983 29.3523 10.502 28.2361 9.20668C30.2343 8.87621 32.085 8.90152 32.5251 9.6623C32.6517 9.88308 32.6587 10.2136 32.5434 10.6439Z" fill="url(#paint1_linear_22_3834)"/>
<defs>
<linearGradient id="paint0_linear_22_3834" x1="18" y1="5.625" x2="18" y2="30.375" gradientUnits="userSpaceOnUse">
<stop stop-color="#E6E9E8"/>
<stop offset="1" stop-color="#BABCC0"/>
</linearGradient>
<linearGradient id="paint1_linear_22_3834" x1="18.0002" y1="4.49707" x2="18.0002" y2="31.5013" gradientUnits="userSpaceOnUse">
<stop stop-color="#E6E9E8"/>
<stop offset="1" stop-color="#BABCC0"/>
</linearGradient>
</defs>
</svg>
