<svg width="1023" height="1252" viewBox="0 0 1023 1252" fill="none" xmlns="http://www.w3.org/2000/svg">
<g filter="url(#filter0_f_22_4189)">
<g opacity="0.82" filter="url(#filter1_f_22_4189)">
<path d="M579.343 656.101C579.343 816.662 513.384 807.752 352.94 807.752C192.497 807.752 161.737 710.832 161.737 550.271C404.06 384.992 271.55 460.772 431.994 460.772C519.286 550.271 534.65 484.928 579.343 656.101Z" fill="#290050"/>
</g>
<path d="M225.242 489.025L223.992 487.492L222.498 488.703L223.748 490.236L225.242 489.025Z" fill="#D6BFFF"/>
<path d="M490.959 420.139L489.709 418.606L488.216 419.817L489.466 421.35L490.959 420.139Z" fill="#D6BFFF"/>
<path d="M177.84 704.346L177.215 703.58L176.469 704.185L177.093 704.951L177.84 704.346Z" fill="#D6BFFF"/>
<path d="M172.088 686.169L171.406 685.333L170.591 685.994L171.273 686.83L172.088 686.169Z" fill="#D6BFFF"/>
<path d="M299.023 468.452L297.944 467.129L296.654 468.175L297.733 469.498L299.023 468.452Z" fill="#D6BFFF"/>
<path d="M325.007 498.859L324.155 497.814L323.137 498.639L323.989 499.684L325.007 498.859Z" fill="#D6BFFF"/>
<path d="M341.769 544.769L340.859 543.654L339.773 544.535L340.682 545.649L341.769 544.769Z" fill="#D6BFFF"/>
<path d="M358.786 475.046L358.161 474.279L357.414 474.885L358.039 475.651L358.786 475.046Z" fill="#D6BFFF"/>
<path d="M291.148 401.142L290.41 400.237L289.527 400.952L290.265 401.858L291.148 401.142Z" fill="#D6BFFF"/>
<path d="M172.245 549.485L171.279 548.301L170.125 549.236L171.091 550.421L172.245 549.485Z" fill="#D6BFFF"/>
<path d="M72.6868 527.458L71.7209 526.274L70.5666 527.209L71.5325 528.394L72.6868 527.458Z" fill="#D6BFFF"/>
<path d="M112.185 606.322L111.219 605.138L110.064 606.073L111.03 607.258L112.185 606.322Z" fill="#D6BFFF"/>
<path d="M188.862 838.166L187.669 836.703L186.243 837.859L187.437 839.322L188.862 838.166Z" fill="#D6BFFF"/>
<path d="M166.766 809.164L165.687 807.841L164.397 808.886L165.476 810.21L166.766 809.164Z" fill="#D6BFFF"/>
<path d="M210.198 743.861L209.403 742.885L208.452 743.656L209.248 744.631L210.198 743.861Z" fill="#D6BFFF"/>
<path d="M221.999 699.068L221.147 698.023L220.129 698.849L220.981 699.894L221.999 699.068Z" fill="#D6BFFF"/>
<path d="M280.902 816.759L280.05 815.714L279.031 816.54L279.884 817.584L280.902 816.759Z" fill="#D6BFFF"/>
<path d="M296.146 852.927L295.578 852.23L294.899 852.781L295.467 853.478L296.146 852.927Z" fill="#D6BFFF"/>
<path d="M219.047 670.844L218.138 669.729L217.051 670.61L217.96 671.724L219.047 670.844Z" fill="#D6BFFF"/>
<path d="M159.803 550.346L158.78 549.092L157.558 550.083L158.581 551.337L159.803 550.346Z" fill="#D6BFFF"/>
<path d="M60.2449 528.319L59.2222 527.065L58 528.056L59.0227 529.31L60.2449 528.319Z" fill="#D6BFFF"/>
<path d="M276.048 655.92L275.082 654.736L273.928 655.672L274.894 656.856L276.048 655.92Z" fill="#D6BFFF"/>
<path d="M524.719 548.353L523.753 547.169L522.598 548.105L523.564 549.289L524.719 548.353Z" fill="#D6BFFF"/>
<path d="M301.322 661.422L300.47 660.377L299.451 661.203L300.303 662.248L301.322 661.422Z" fill="#D6BFFF"/>
<path d="M549.992 553.855L549.14 552.81L548.122 553.636L548.974 554.681L549.992 553.855Z" fill="#D6BFFF"/>
<path d="M181.44 450.469L180.702 449.563L179.819 450.279L180.558 451.184L181.44 450.469Z" fill="#D6BFFF"/>
<path d="M177.464 432.788L176.782 431.952L175.967 432.613L176.649 433.449L177.464 432.788Z" fill="#D6BFFF"/>
<path d="M357.614 668.67L356.932 667.834L356.118 668.495L356.799 669.331L357.614 668.67Z" fill="#D6BFFF"/>
<path d="M606.285 561.103L605.603 560.267L604.788 560.928L605.47 561.764L606.285 561.103Z" fill="#D6BFFF"/>
<path d="M391.374 720.872L390.465 719.758L389.379 720.639L390.288 721.753L391.374 720.872Z" fill="#D6BFFF"/>
<path d="M299.441 559.186L298.703 558.281L297.82 558.996L298.559 559.902L299.441 559.186Z" fill="#D6BFFF"/>
<path d="M251.205 475.001L249.784 473.259L248.087 474.635L249.507 476.377L251.205 475.001Z" fill="#D6BFFF"/>
<path d="M340.819 524.628L339.967 523.583L338.948 524.408L339.801 525.453L340.819 524.628Z" fill="#D6BFFF"/>
<path d="M366.906 508.784L366.167 507.878L365.285 508.594L366.023 509.5L366.906 508.784Z" fill="#D6BFFF"/>
<path d="M463.996 582.509L463.314 581.673L462.499 582.334L463.181 583.169L463.996 582.509Z" fill="#D6BFFF"/>
<path d="M482.511 521.433L481.829 520.597L481.015 521.257L481.696 522.093L482.511 521.433Z" fill="#D6BFFF"/>
<path d="M488.452 652.218L487.599 651.173L486.581 651.999L487.433 653.044L488.452 652.218Z" fill="#D6BFFF"/>
<path d="M581.227 766.59L580.545 765.754L579.73 766.415L580.412 767.251L581.227 766.59Z" fill="#D6BFFF"/>
<path d="M599.6 685.154L598.975 684.387L598.228 684.993L598.853 685.759L599.6 685.154Z" fill="#D6BFFF"/>
<path d="M433.87 531.127L433.131 530.221L432.249 530.937L432.987 531.842L433.87 531.127Z" fill="#D6BFFF"/>
<path d="M452.386 470.051L451.647 469.145L450.764 469.86L451.503 470.766L452.386 470.051Z" fill="#D6BFFF"/>
<path d="M339.732 473.399L338.994 472.493L338.111 473.209L338.85 474.115L339.732 473.399Z" fill="#D6BFFF"/>
<path d="M543.027 810.686L541.947 809.362L540.657 810.408L541.737 811.732L543.027 810.686Z" fill="#D6BFFF"/>
<path d="M489.711 825.923L488.915 824.948L487.965 825.718L488.76 826.694L489.711 825.923Z" fill="#D6BFFF"/>
<path d="M501.61 812.589L500.872 811.684L499.989 812.399L500.728 813.305L501.61 812.589Z" fill="#D6BFFF"/>
<path d="M324.407 668.589L323.669 667.684L322.786 668.399L323.525 669.305L324.407 668.589Z" fill="#D6BFFF"/>
<path d="M573.078 561.023L572.339 560.117L571.456 560.833L572.195 561.738L573.078 561.023Z" fill="#D6BFFF"/>
<path d="M371.974 611.288L370.951 610.034L369.729 611.025L370.751 612.279L371.974 611.288Z" fill="#D6BFFF"/>
<path d="M305.323 588.344L304.528 587.369L303.577 588.14L304.373 589.115L305.323 588.344Z" fill="#D6BFFF"/>
<path d="M408.507 650.028L407.768 649.123L406.886 649.838L407.624 650.744L408.507 650.028Z" fill="#D6BFFF"/>
<path d="M362.504 679.321L361.822 678.485L361.007 679.146L361.689 679.982L362.504 679.321Z" fill="#D6BFFF"/>
<path d="M611.174 571.755L610.493 570.919L609.678 571.579L610.36 572.415L611.174 571.755Z" fill="#D6BFFF"/>
<path d="M448.288 733.106L447.208 731.782L445.918 732.828L446.998 734.152L448.288 733.106Z" fill="#D6BFFF"/>
<path d="M369.328 784.968L368.419 783.853L367.332 784.734L368.241 785.849L369.328 784.968Z" fill="#D6BFFF"/>
<path d="M468.349 849.124L467.383 847.94L466.229 848.875L467.195 850.06L468.349 849.124Z" fill="#D6BFFF"/>
<path d="M370.613 838.539L370.215 838.051L369.74 838.437L370.138 838.924L370.613 838.539Z" fill="#D6BFFF"/>
<path d="M466.892 840.025L465.926 838.84L464.772 839.776L465.738 840.96L466.892 840.025Z" fill="#D6BFFF"/>
<path d="M350.74 951.266L350.172 950.569L349.493 951.119L350.061 951.816L350.74 951.266Z" fill="#D6BFFF"/>
<path d="M306.619 899.014L306.051 898.318L305.372 898.868L305.94 899.565L306.619 899.014Z" fill="#D6BFFF"/>
<path d="M326.251 884.649L325.797 884.091L325.253 884.532L325.708 885.089L326.251 884.649Z" fill="#D6BFFF"/>
<path d="M349.121 869.727L348.837 869.378L348.497 869.654L348.782 870.002L349.121 869.727Z" fill="#D6BFFF"/>
<path d="M292.021 830.57L291.339 829.734L290.524 830.395L291.206 831.231L292.021 830.57Z" fill="#D6BFFF"/>
<path d="M273.207 735.479L272.468 734.573L271.585 735.289L272.324 736.194L273.207 735.479Z" fill="#D6BFFF"/>
<path d="M234.377 719.63L233.524 718.585L232.506 719.411L233.358 720.456L234.377 719.63Z" fill="#D6BFFF"/>
<path d="M219.903 705.344L219.051 704.299L218.032 705.124L218.884 706.169L219.903 705.344Z" fill="#D6BFFF"/>
<path d="M289.704 744.805L288.965 743.9L288.082 744.615L288.821 745.521L289.704 744.805Z" fill="#D6BFFF"/>
<path d="M363.417 825.193L362.962 824.636L362.419 825.076L362.874 825.633L363.417 825.193Z" fill="#D6BFFF"/>
<path d="M415.954 852.986L415.215 852.081L414.332 852.796L415.071 853.702L415.954 852.986Z" fill="#D6BFFF"/>
<path d="M416.718 849.851L415.979 848.945L415.097 849.661L415.835 850.566L416.718 849.851Z" fill="#D6BFFF"/>
<path d="M440.028 860.954L439.062 859.77L437.908 860.705L438.874 861.89L440.028 860.954Z" fill="#D6BFFF"/>
<path d="M423.148 871.249L422.409 870.343L421.526 871.058L422.265 871.964L423.148 871.249Z" fill="#D6BFFF"/>
<path d="M393.893 882.348L393.439 881.79L392.896 882.231L393.35 882.788L393.893 882.348Z" fill="#D6BFFF"/>
<path d="M480.635 889.532L479.556 888.208L478.265 889.254L479.345 890.578L480.635 889.532Z" fill="#D6BFFF"/>
<path d="M485.737 892.01L484.714 890.756L483.492 891.747L484.515 893.001L485.737 892.01Z" fill="#D6BFFF"/>
<path d="M467.411 903.486L466.218 902.023L464.792 903.179L465.985 904.642L467.411 903.486Z" fill="#D6BFFF"/>
<path d="M514.548 868.695L513.639 867.581L512.552 868.462L513.461 869.576L514.548 868.695Z" fill="#D6BFFF"/>
<path d="M614.782 766.788L613.986 765.812L613.036 766.583L613.831 767.558L614.782 766.788Z" fill="#D6BFFF"/>
<path d="M568.482 807.702L567.289 806.239L565.863 807.395L567.056 808.858L568.482 807.702Z" fill="#D6BFFF"/>
<path d="M615.332 733.312L614.65 732.476L613.835 733.137L614.517 733.973L615.332 733.312Z" fill="#D6BFFF"/>
<path d="M609.069 669.112L608.444 668.346L607.697 668.952L608.322 669.718L609.069 669.112Z" fill="#D6BFFF"/>
<path d="M525.525 716.922L524.672 715.877L523.654 716.703L524.506 717.748L525.525 716.922Z" fill="#D6BFFF"/>
<path d="M534.848 693.113L534.052 692.138L533.102 692.908L533.897 693.884L534.848 693.113Z" fill="#D6BFFF"/>
<path d="M470.974 709.287L469.951 708.033L468.729 709.024L469.752 710.278L470.974 709.287Z" fill="#D6BFFF"/>
<path d="M527.25 730.146L526.455 729.171L525.504 729.942L526.299 730.917L527.25 730.146Z" fill="#D6BFFF"/>
<path d="M453.578 801.026L452.556 799.772L451.333 800.763L452.356 802.017L453.578 801.026Z" fill="#D6BFFF"/>
<path d="M514.914 782.572L514.232 781.736L513.417 782.397L514.099 783.233L514.914 782.572Z" fill="#D6BFFF"/>
<path d="M476.804 780.538L475.951 779.493L474.933 780.318L475.785 781.363L476.804 780.538Z" fill="#D6BFFF"/>
<path d="M485.753 734.067L484.73 732.813L483.508 733.804L484.531 735.058L485.753 734.067Z" fill="#D6BFFF"/>
<path d="M422.632 686.653L421.894 685.747L421.011 686.463L421.75 687.369L422.632 686.653Z" fill="#D6BFFF"/>
<path d="M492.635 603.677L491.839 602.702L490.889 603.472L491.684 604.448L492.635 603.677Z" fill="#D6BFFF"/>
<path d="M410.632 596.994L409.61 595.74L408.387 596.731L409.41 597.985L410.632 596.994Z" fill="#D6BFFF"/>
<path d="M491.686 607.991L490.891 607.016L489.94 607.786L490.735 608.762L491.686 607.991Z" fill="#D6BFFF"/>
<path d="M532.687 632.137L531.607 630.813L530.317 631.859L531.397 633.182L532.687 632.137Z" fill="#D6BFFF"/>
<path d="M394.125 417.747L393.045 416.424L391.755 417.469L392.835 418.793L394.125 417.747Z" fill="#D6BFFF"/>
<path d="M561.254 680.898L560.402 679.853L559.384 680.679L560.236 681.724L561.254 680.898Z" fill="#D6BFFF"/>
<path d="M422.692 466.509L421.84 465.464L420.822 466.289L421.674 467.334L422.692 466.509Z" fill="#D6BFFF"/>
<path d="M336.933 606.982L336.024 605.867L334.938 606.748L335.847 607.863L336.933 606.982Z" fill="#D6BFFF"/>
<path d="M312.257 591.392L311.405 590.347L310.387 591.172L311.239 592.217L312.257 591.392Z" fill="#D6BFFF"/>
<path d="M198.181 599.931L197.272 598.816L196.186 599.697L197.095 600.812L198.181 599.931Z" fill="#D6BFFF"/>
<path d="M201.889 589.031L201.037 587.986L200.018 588.812L200.87 589.857L201.889 589.031Z" fill="#D6BFFF"/>
<path d="M194.161 590.63L193.252 589.515L192.165 590.396L193.075 591.511L194.161 590.63Z" fill="#D6BFFF"/>
<path d="M247.535 582.767L246.74 581.792L245.789 582.563L246.585 583.538L247.535 582.767Z" fill="#D6BFFF"/>
<path d="M209.225 531.298L208.316 530.184L207.229 531.065L208.139 532.179L209.225 531.298Z" fill="#D6BFFF"/>
<path d="M109.667 509.272L108.758 508.157L107.671 509.038L108.58 510.152L109.667 509.272Z" fill="#D6BFFF"/>
<path d="M474.942 462.413L474.033 461.298L472.947 462.179L473.856 463.293L474.942 462.413Z" fill="#D6BFFF"/>
<path d="M256.5 510.456L255.534 509.272L254.38 510.208L255.346 511.392L256.5 510.456Z" fill="#D6BFFF"/>
<path d="M522.217 441.571L521.252 440.386L520.097 441.322L521.063 442.506L522.217 441.571Z" fill="#D6BFFF"/>
<path d="M171.82 475.318L171.082 474.412L170.199 475.128L170.938 476.033L171.82 475.318Z" fill="#D6BFFF"/>
<path d="M398.675 858.576L398.164 857.949L397.553 858.444L398.064 859.071L398.675 858.576Z" fill="#D6BFFF"/>
<path d="M309.376 766.75L308.58 765.774L307.63 766.545L308.425 767.52L309.376 766.75Z" fill="#D6BFFF"/>
<path d="M427.556 539.803L426.874 538.967L426.059 539.628L426.741 540.464L427.556 539.803Z" fill="#D6BFFF"/>
<path d="M446.071 478.727L445.389 477.891L444.574 478.551L445.256 479.387L446.071 478.727Z" fill="#D6BFFF"/>
<path d="M477.885 575.559L477.089 574.584L476.139 575.354L476.934 576.33L477.885 575.559Z" fill="#D6BFFF"/>
<path d="M496.4 514.483L495.605 513.507L494.654 514.278L495.45 515.253L496.4 514.483Z" fill="#D6BFFF"/>
<path d="M480.022 597.019L479.284 596.113L478.401 596.828L479.14 597.734L480.022 597.019Z" fill="#D6BFFF"/>
<path d="M468.782 569.704L468.043 568.799L467.161 569.514L467.899 570.42L468.782 569.704Z" fill="#D6BFFF"/>
<path d="M487.298 508.628L486.559 507.722L485.676 508.438L486.415 509.344L487.298 508.628Z" fill="#D6BFFF"/>
<path d="M342.427 510.864L341.574 509.819L340.556 510.645L341.408 511.69L342.427 510.864Z" fill="#D6BFFF"/>
<path d="M331.472 465.489L330.676 464.514L329.726 465.284L330.521 466.26L331.472 465.489Z" fill="#D6BFFF"/>
<path d="M597.561 651.729L596.936 650.962L596.189 651.568L596.814 652.334L597.561 651.729Z" fill="#D6BFFF"/>
<path d="M587.289 686.357L586.266 685.103L585.044 686.094L586.067 687.348L587.289 686.357Z" fill="#D6BFFF"/>
<path d="M541.14 691.997L540.344 691.022L539.394 691.792L540.189 692.768L541.14 691.997Z" fill="#D6BFFF"/>
<path d="M402.578 477.607L401.782 476.632L400.832 477.402L401.627 478.378L402.578 477.607Z" fill="#D6BFFF"/>
<path d="M631.878 641.658L630.799 640.335L629.509 641.381L630.588 642.704L631.878 641.658Z" fill="#D6BFFF"/>
<path d="M639.806 656.467L638.727 655.144L637.437 656.189L638.516 657.513L639.806 656.467Z" fill="#D6BFFF"/>
<path d="M633.743 765.651L633.118 764.885L632.372 765.49L632.997 766.256L633.743 765.651Z" fill="#D6BFFF"/>
<path d="M608.243 624.535L607.334 623.42L606.248 624.301L607.157 625.415L608.243 624.535Z" fill="#D6BFFF"/>
<path d="M633.696 628.299L632.333 626.627L630.703 627.949L632.067 629.621L633.696 628.299Z" fill="#D6BFFF"/>
<path d="M539.975 662.32L539.01 661.136L537.855 662.072L538.821 663.256L539.975 662.32Z" fill="#D6BFFF"/>
<path d="M401.413 447.93L400.448 446.746L399.293 447.682L400.259 448.866L401.413 447.93Z" fill="#D6BFFF"/>
<path d="M518.818 615.644L517.796 614.39L516.573 615.381L517.596 616.635L518.818 615.644Z" fill="#D6BFFF"/>
<path d="M380.257 401.254L379.234 400L378.012 400.991L379.034 402.245L380.257 401.254Z" fill="#D6BFFF"/>
<path d="M459.474 555.447L458.678 554.472L457.728 555.243L458.523 556.218L459.474 555.447Z" fill="#D6BFFF"/>
<path d="M477.99 494.371L477.194 493.396L476.244 494.166L477.039 495.142L477.99 494.371Z" fill="#D6BFFF"/>
</g>
<defs>
<filter id="filter0_f_22_4189" x="56" y="398" width="585.806" height="555.816" filterUnits="userSpaceOnUse" color-interpolation-filters="sRGB">
<feFlood flood-opacity="0" result="BackgroundImageFix"/>
<feBlend mode="normal" in="SourceGraphic" in2="BackgroundImageFix" result="shape"/>
<feGaussianBlur stdDeviation="1" result="effect1_foregroundBlur_22_4189"/>
</filter>
<filter id="filter1_f_22_4189" x="-281.582" y="0.11319" width="1304.24" height="1251.05" filterUnits="userSpaceOnUse" color-interpolation-filters="sRGB">
<feFlood flood-opacity="0" result="BackgroundImageFix"/>
<feBlend mode="normal" in="SourceGraphic" in2="BackgroundImageFix" result="shape"/>
<feGaussianBlur stdDeviation="221.66" result="effect1_foregroundBlur_22_4189"/>
</filter>
</defs>
</svg>
