<svg width="1104" height="623" viewBox="0 0 1104 623" fill="none" xmlns="http://www.w3.org/2000/svg">
<path d="M139.687 608.349L138.492 608.733L138.947 609.998L140.142 609.614L139.687 608.349Z" fill="#D6BFFF"/>
<path d="M103.391 364.994L102.472 365.29L102.821 366.263L103.74 365.967L103.391 364.994Z" fill="#D6BFFF"/>
<path d="M116.384 520.475L115.189 520.859L115.643 522.124L116.838 521.74L116.384 520.475Z" fill="#D6BFFF"/>
<path d="M108.967 350.637L107.956 350.962L108.34 352.032L109.351 351.707L108.967 350.637Z" fill="#D6BFFF"/>
<path d="M149.8 368.555L148.789 368.88L149.173 369.95L150.185 369.625L149.8 368.555Z" fill="#D6BFFF"/>
<path d="M184.192 435.336L182.63 435.838L183.224 437.492L184.786 436.99L184.192 435.336Z" fill="#D6BFFF"/>
<path d="M200.377 340.279L198.814 340.781L199.408 342.435L200.971 341.933L200.377 340.279Z" fill="#D6BFFF"/>
<path d="M228.37 463.639L227.726 463.846L227.971 464.527L228.614 464.32L228.37 463.639Z" fill="#D6BFFF"/>
<path d="M378.66 290.496L377.832 290.762L378.147 291.637L378.974 291.371L378.66 290.496Z" fill="#D6BFFF"/>
<path d="M217.071 113.301L216.244 113.567L216.559 114.442L217.386 114.176L217.071 113.301Z" fill="#D6BFFF"/>
<path d="M422.101 150.377L421.366 150.614L421.645 151.392L422.381 151.156L422.101 150.377Z" fill="#D6BFFF"/>
<path d="M580.19 204.813L578.72 205.286L579.279 206.842L580.749 206.37L580.19 204.813Z" fill="#D6BFFF"/>
<path d="M633.107 122.733L631.82 123.146L632.309 124.508L633.596 124.095L633.107 122.733Z" fill="#D6BFFF"/>
<path d="M798.669 5.46303L799.956 5.87659L799.467 7.23869L798.18 6.82514L798.669 5.46303Z" fill="#D6BFFF"/>
<path d="M751.264 189.572L749.242 190.222L750.01 192.362L752.033 191.712L751.264 189.572Z" fill="#D6BFFF"/>
<path d="M595.135 164.25L593.572 164.752L594.166 166.406L595.729 165.904L595.135 164.25Z" fill="#D6BFFF"/>
<path d="M102.239 357.569L101.228 357.894L101.612 358.964L102.623 358.639L102.239 357.569Z" fill="#D6BFFF"/>
<path d="M187.673 325.583L186.018 326.115L186.647 327.866L188.302 327.334L187.673 325.583Z" fill="#D6BFFF"/>
<path d="M437.233 267.107L435.854 267.55L436.379 269.009L437.757 268.566L437.233 267.107Z" fill="#D6BFFF"/>
<path d="M306.467 412.817L305.64 413.082L305.955 413.958L306.782 413.692L306.467 412.817Z" fill="#D6BFFF"/>
<path d="M217.166 518.665L216.246 518.96L216.596 519.933L217.515 519.638L217.166 518.665Z" fill="#D6BFFF"/>
<path d="M333.999 446.654L332.62 447.097L333.144 448.557L334.523 448.114L333.999 446.654Z" fill="#D6BFFF"/>
<path d="M621.78 309.501L620.493 309.914L620.982 311.277L622.269 310.863L621.78 309.501Z" fill="#D6BFFF"/>
<path d="M664.103 293.542L663.092 293.867L663.477 294.937L664.488 294.612L664.103 293.542Z" fill="#D6BFFF"/>
<path d="M252.522 450.788L251.971 450.966L252.181 451.549L252.732 451.372L252.522 450.788Z" fill="#D6BFFF"/>
<path d="M215.757 487.145L215.022 487.381L215.301 488.159L216.037 487.923L215.757 487.145Z" fill="#D6BFFF"/>
<path d="M607.68 380.196L606.761 380.492L607.11 381.465L608.029 381.169L607.68 380.196Z" fill="#D6BFFF"/>
<path d="M684.997 425.64L683.802 426.024L684.256 427.289L685.451 426.905L684.997 425.64Z" fill="#D6BFFF"/>
<path d="M287.766 511.999L286.571 512.383L287.025 513.648L288.22 513.264L287.766 511.999Z" fill="#D6BFFF"/>
<path d="M228.195 610L227 610.384L227.454 611.649L228.649 611.265L228.195 610Z" fill="#D6BFFF"/>
<path d="M199.499 537.55L198.488 537.875L198.872 538.945L199.883 538.62L199.499 537.55Z" fill="#D6BFFF"/>
<path d="M601.076 403.351L600.157 403.647L600.507 404.62L601.426 404.324L601.076 403.351Z" fill="#D6BFFF"/>
<path d="M340.939 522.447L339.284 522.979L339.913 524.73L341.568 524.198L340.939 522.447Z" fill="#D6BFFF"/>
<path d="M281.368 620.447L279.714 620.979L280.342 622.73L281.997 622.199L281.368 620.447Z" fill="#D6BFFF"/>
<path d="M437.391 463.076L436.564 463.342L436.878 464.217L437.705 463.951L437.391 463.076Z" fill="#D6BFFF"/>
<path d="M436.701 437.433L435.69 437.758L436.075 438.828L437.086 438.503L436.701 437.433Z" fill="#D6BFFF"/>
<path d="M299.688 426.738L298.952 426.974L299.232 427.752L299.967 427.516L299.688 426.738Z" fill="#D6BFFF"/>
<path d="M210.069 322.83L208.139 323.451L208.873 325.494L210.803 324.873L210.069 322.83Z" fill="#D6BFFF"/>
<path d="M117.15 333.387L116.047 333.741L116.467 334.909L117.57 334.554L117.15 333.387Z" fill="#D6BFFF"/>
<path d="M141.131 281.83L139.66 282.303L140.219 283.859L141.69 283.387L141.131 281.83Z" fill="#D6BFFF"/>
<path d="M170.494 328.465L169.115 328.908L169.639 330.367L171.018 329.924L170.494 328.465Z" fill="#D6BFFF"/>
<path d="M78.8918 418.198L77.6049 418.612L78.094 419.974L79.381 419.56L78.8918 418.198Z" fill="#D6BFFF"/>
<path d="M360.609 335.915L359.782 336.181L360.096 337.057L360.924 336.791L360.609 335.915Z" fill="#D6BFFF"/>
<path d="M374.428 319.708L373.509 320.004L373.858 320.976L374.778 320.681L374.428 319.708Z" fill="#D6BFFF"/>
<path d="M553.197 186.31L551.45 186.871L552.114 188.72L553.861 188.159L553.197 186.31Z" fill="#D6BFFF"/>
<path d="M327.232 293.604L326.588 293.811L326.833 294.492L327.476 294.286L327.232 293.604Z" fill="#D6BFFF"/>
<path d="M165.643 116.41L165 116.616L165.245 117.297L165.888 117.091L165.643 116.41Z" fill="#D6BFFF"/>
<path d="M648.252 117.27L646.873 117.713L647.397 119.172L648.776 118.729L648.252 117.27Z" fill="#D6BFFF"/>
<path d="M783.524 -5.36538e-05L784.903 0.443054L784.379 1.90245L783 1.45934L783.524 -5.36538e-05Z" fill="#D6BFFF"/>
<path d="M758.464 103.484L756.717 104.045L757.381 105.893L759.128 105.332L758.464 103.484Z" fill="#D6BFFF"/>
<path d="M800.825 87.9359L799.446 88.379L799.97 89.8384L801.349 89.3953L800.825 87.9359Z" fill="#D6BFFF"/>
<path d="M855.943 88.2215L854.472 88.6941L855.031 90.2508L856.502 89.7781L855.943 88.2215Z" fill="#D6BFFF"/>
<path d="M378.329 165.459L377.685 165.666L377.93 166.347L378.573 166.14L378.329 165.459Z" fill="#D6BFFF"/>
<path d="M382.135 190.04L381.4 190.277L381.679 191.055L382.414 190.819L382.135 190.04Z" fill="#D6BFFF"/>
<path d="M356.472 291.698L355.829 291.905L356.073 292.586L356.717 292.379L356.472 291.698Z" fill="#D6BFFF"/>
<path d="M194.884 114.503L194.24 114.71L194.485 115.391L195.129 115.184L194.884 114.503Z" fill="#D6BFFF"/>
<path d="M552.703 322.925L550.588 323.605L551.392 325.842L553.506 325.163L552.703 322.925Z" fill="#D6BFFF"/>
<path d="M529.312 335.835L527.198 336.514L528.001 338.752L530.116 338.073L529.312 335.835Z" fill="#D6BFFF"/>
<path d="M463.325 245.359L461.946 245.802L462.47 247.262L463.849 246.819L463.325 245.359Z" fill="#D6BFFF"/>
<path d="M480.148 326.661L478.034 327.34L478.838 329.578L480.952 328.899L480.148 326.661Z" fill="#D6BFFF"/>
<path d="M472.095 288.948L470.165 289.569L470.899 291.612L472.829 290.992L472.095 288.948Z" fill="#D6BFFF"/>
<path d="M474.333 397.498L472.494 398.089L473.193 400.035L475.031 399.444L474.333 397.498Z" fill="#D6BFFF"/>
<path d="M794.426 269.332L792.863 269.834L793.457 271.488L795.02 270.986L794.426 269.332Z" fill="#D6BFFF"/>
<path d="M940.081 423.833L941.644 424.335L941.05 425.989L939.487 425.487L940.081 423.833Z" fill="#D6BFFF"/>
<path d="M765.751 336L764.372 336.443L764.896 337.902L766.275 337.459L765.751 336Z" fill="#D6BFFF"/>
<path d="M735.285 354.484L734.182 354.839L734.601 356.006L735.704 355.652L735.285 354.484Z" fill="#D6BFFF"/>
<path d="M715.931 359.37L714.92 359.695L715.304 360.765L716.315 360.44L715.931 359.37Z" fill="#D6BFFF"/>
<path d="M428.097 491.685L427.177 491.98L427.527 492.953L428.446 492.658L428.097 491.685Z" fill="#D6BFFF"/>
<path d="M465.001 463.518L464.173 463.784L464.488 464.66L465.315 464.394L465.001 463.518Z" fill="#D6BFFF"/>
<path d="M941.118 267.449L939.647 267.921L940.206 269.478L941.677 269.005L941.118 267.449Z" fill="#D6BFFF"/>
<path d="M790.452 282.826L788.798 283.358L789.427 285.109L791.081 284.577L790.452 282.826Z" fill="#D6BFFF"/>
<path d="M747.529 292.021L745.874 292.553L746.503 294.304L748.158 293.772L747.529 292.021Z" fill="#D6BFFF"/>
<path d="M947.694 201.318L946.131 201.821L946.725 203.475L948.287 202.972L947.694 201.318Z" fill="#D6BFFF"/>
<path d="M1070.56 316.166L1069 316.668L1069.59 318.322L1071.16 317.82L1070.56 316.166Z" fill="#D6BFFF"/>
<path d="M963.434 176.752L962.055 177.195L962.579 178.655L963.958 178.212L963.434 176.752Z" fill="#D6BFFF"/>
<path d="M1086.3 291.599L1084.92 292.043L1085.45 293.502L1086.83 293.059L1086.3 291.599Z" fill="#D6BFFF"/>
<path d="M693.344 220.768L692.149 221.152L692.603 222.417L693.798 222.033L693.344 220.768Z" fill="#D6BFFF"/>
<path d="M573.007 244.004L571.261 244.565L571.925 246.414L573.671 245.853L573.007 244.004Z" fill="#D6BFFF"/>
<path d="M538.678 264.85L536.563 265.53L537.367 267.767L539.481 267.088L538.678 264.85Z" fill="#D6BFFF"/>
<path d="M673.092 218.037L671.989 218.392L672.408 219.559L673.511 219.205L673.092 218.037Z" fill="#D6BFFF"/>
<path d="M993.192 120.071L992.088 120.426L992.508 121.593L993.611 121.239L993.192 120.071Z" fill="#D6BFFF"/>
<path d="M1061.62 104.848L1060.15 105.321L1060.71 106.877L1062.18 106.405L1061.62 104.848Z" fill="#D6BFFF"/>
<path d="M854.595 138.636L853.4 139.02L853.855 140.285L855.05 139.901L854.595 138.636Z" fill="#D6BFFF"/>
<path d="M746.608 156.615L744.31 157.354L745.183 159.786L747.482 159.048L746.608 156.615Z" fill="#D6BFFF"/>
<path d="M834.276 81.3248L832.897 81.7679L833.422 83.2273L834.8 82.7842L834.276 81.3248Z" fill="#D6BFFF"/>
<path d="M980.076 155.153L978.881 155.537L979.336 156.802L980.53 156.418L980.076 155.153Z" fill="#D6BFFF"/>
<path d="M1102.95 270L1101.75 270.384L1102.2 271.649L1103.4 271.265L1102.95 270Z" fill="#D6BFFF"/>
<path d="M938.124 82.3748L936.47 82.9065L937.098 84.6578L938.753 84.126L938.124 82.3748Z" fill="#D6BFFF"/>
<path d="M887.732 143.855L886.445 144.268L886.934 145.63L888.221 145.217L887.732 143.855Z" fill="#D6BFFF"/>
<path d="M993.44 58.9419L992.245 59.3259L992.699 60.5907L993.894 60.2067L993.44 58.9419Z" fill="#D6BFFF"/>
<path d="M1006.37 119.078L1005.27 119.433L1005.69 120.6L1006.79 120.246L1006.37 119.078Z" fill="#D6BFFF"/>
<path d="M1096.87 49.4636L1095.13 50.0248L1095.79 51.8734L1097.54 51.3121L1096.87 49.4636Z" fill="#D6BFFF"/>
<path d="M1080.59 16.1312L1078.93 16.6629L1079.56 18.4142L1081.22 17.8825L1080.59 16.1312Z" fill="#D6BFFF"/>
<path d="M1037.71 58.3721L1036.51 58.7561L1036.97 60.0209L1038.16 59.6369L1037.71 58.3721Z" fill="#D6BFFF"/>
<path d="M938.175 35.8885L936.52 36.4202L937.149 38.1715L938.804 37.6398L938.175 35.8885Z" fill="#D6BFFF"/>
<path d="M919.833 117.74L918.362 118.212L918.921 119.769L920.392 119.296L919.833 117.74Z" fill="#D6BFFF"/>
<path d="M893.671 137.717L892.292 138.16L892.816 139.62L894.195 139.177L893.671 137.717Z" fill="#D6BFFF"/>
<path d="M857.947 261.695L856.477 262.168L857.036 263.725L858.506 263.252L857.947 261.695Z" fill="#D6BFFF"/>
<path d="M876.559 416.196L878.03 416.669L877.471 418.226L876 417.753L876.559 416.196Z" fill="#D6BFFF"/>
<path d="M847.879 253.499L846.5 253.942L847.024 255.401L848.403 254.958L847.879 253.499Z" fill="#D6BFFF"/>
<path d="M886.627 408L888.006 408.443L887.482 409.902L886.103 409.459L886.627 408Z" fill="#D6BFFF"/>
<path d="M846.535 262.298L845.064 262.77L845.623 264.327L847.094 263.854L846.535 262.298Z" fill="#D6BFFF"/>
<path d="M887.971 416.799L889.442 417.271L888.883 418.828L887.412 418.355L887.971 416.799Z" fill="#D6BFFF"/>
<path d="M859.165 202.774L857.878 203.188L858.368 204.55L859.654 204.136L859.165 202.774Z" fill="#D6BFFF"/>
<path d="M789.705 223.094L788.234 223.567L788.793 225.124L790.264 224.651L789.705 223.094Z" fill="#D6BFFF"/>
<path d="M786.207 164.927L784.645 165.429L785.238 167.083L786.801 166.581L786.207 164.927Z" fill="#D6BFFF"/>
<path d="M715.847 240.688L714.652 241.072L715.106 242.337L716.301 241.953L715.847 240.688Z" fill="#D6BFFF"/>
<path d="M639.864 213.484L638.853 213.809L639.237 214.879L640.248 214.554L639.864 213.484Z" fill="#D6BFFF"/>
<path d="M651.853 314.073L650.75 314.427L651.169 315.595L652.272 315.24L651.853 314.073Z" fill="#D6BFFF"/>
<path d="M214.185 344.248L212.53 344.779L213.159 346.531L214.814 345.999L214.185 344.248Z" fill="#D6BFFF"/>
<path d="M172.798 496.561L171.879 496.857L172.228 497.829L173.148 497.534L172.798 496.561Z" fill="#D6BFFF"/>
<path d="M98.9799 550.68L97.9688 551.005L98.3531 552.075L99.3642 551.75L98.9799 550.68Z" fill="#D6BFFF"/>
<path d="M14.9023 383.495L13.8911 383.82L14.2754 384.89L15.2866 384.565L14.9023 383.495Z" fill="#D6BFFF"/>
<path d="M213.48 271.075L210.722 271.961L211.77 274.88L214.528 273.994L213.48 271.075Z" fill="#D6BFFF"/>
<path d="M361.136 267.195L360.401 267.431L360.68 268.21L361.415 267.973L361.136 267.195Z" fill="#D6BFFF"/>
<path d="M199.548 89.9999L198.812 90.2363L199.092 91.0146L199.827 90.7783L199.548 89.9999Z" fill="#D6BFFF"/>
<path d="M447.744 140.079L446.733 140.404L447.117 141.474L448.128 141.15L447.744 140.079Z" fill="#D6BFFF"/>
<path d="M820.352 74.226L818.974 74.6691L819.498 76.1285L820.877 75.6854L820.352 74.226Z" fill="#D6BFFF"/>
<path d="M433.087 158.473L432.259 158.739L432.574 159.615L433.401 159.349L433.087 158.473Z" fill="#D6BFFF"/>
<path d="M293.575 309.893L292.655 310.189L293.005 311.162L293.924 310.866L293.575 309.893Z" fill="#D6BFFF"/>
<path d="M229.255 311.558L227.049 312.266L227.887 314.602L230.093 313.893L229.255 311.558Z" fill="#D6BFFF"/>
<path d="M167.014 413.393L165.175 413.984L165.874 415.93L167.712 415.339L167.014 413.393Z" fill="#D6BFFF"/>
<path d="M100.717 372.978L99.7979 373.274L100.147 374.246L101.066 373.951L100.717 372.978Z" fill="#D6BFFF"/>
<path d="M341.719 327.548L341.076 327.755L341.32 328.436L341.964 328.229L341.719 327.548Z" fill="#D6BFFF"/>
<path d="M404.909 292.875L403.714 293.259L404.168 294.524L405.363 294.14L404.909 292.875Z" fill="#D6BFFF"/>
<path d="M91.2204 522.895L89.8416 523.339L90.3656 524.798L91.7445 524.355L91.2204 522.895Z" fill="#D6BFFF"/>
<path d="M7.14277 355.71L5.76392 356.153L6.28798 357.613L7.66684 357.17L7.14277 355.71Z" fill="#D6BFFF"/>
<path d="M117.181 370.449L116.354 370.715L116.668 371.591L117.496 371.325L117.181 370.449Z" fill="#D6BFFF"/>
<path d="M165.898 523.196L164.979 523.491L165.329 524.464L166.248 524.169L165.898 523.196Z" fill="#D6BFFF"/>
<path d="M86.6403 508.185L85.0776 508.687L85.6716 510.341L87.2343 509.839L86.6403 508.185Z" fill="#D6BFFF"/>
<path d="M2.5627 341L1 341.502L1.59393 343.156L3.15663 342.654L2.5627 341Z" fill="#D6BFFF"/>
</svg>
