<svg width="1440" height="609" viewBox="0 0 1440 609" fill="none" xmlns="http://www.w3.org/2000/svg">
<path d="M23.2 541.4H22.4V542.2H23.2V541.4Z" fill="#D6BFFF"/>
<path d="M100.2 486.2H98.7V487.7H100.2V486.2Z" fill="#D6BFFF"/>
<path d="M112.5 476.9H110.9V478.5H112.5V476.9Z" fill="#D6BFFF"/>
<path d="M111 485.1H109.4V486.7H111V485.1Z" fill="#D6BFFF"/>
<path d="M79.7 547.5H78.6V548.6H79.7V547.5Z" fill="#D6BFFF"/>
<path d="M35.4 558.3H34.7V559H35.4V558.3Z" fill="#D6BFFF"/>
<path d="M93.8 564.5H92.4V565.9H93.8V564.5Z" fill="#D6BFFF"/>
<path d="M223.6 575.9H221.5V578H223.6V575.9Z" fill="#D6BFFF"/>
<path d="M48.1 602H46.6V603.5H48.1V602Z" fill="#D6BFFF"/>
<path d="M15.8 600.5H14.8V601.5H15.8V600.5Z" fill="#D6BFFF"/>
<path d="M42.5 602H41.1V603.4H42.5V602Z" fill="#D6BFFF"/>
<path d="M131.7 540.2H130.3V541.6H131.7V540.2Z" fill="#D6BFFF"/>
<path d="M83.5 475.1H82.2V476.4H83.5V475.1Z" fill="#D6BFFF"/>
<path d="M20.2 463.1H19.4V463.9H20.2V463.1Z" fill="#D6BFFF"/>
<path d="M113.3 434H111.8V435.5H113.3V434Z" fill="#D6BFFF"/>
<path d="M76.3 450.7H75.1V451.9H76.3V450.7Z" fill="#D6BFFF"/>
<path d="M185.5 401.3H184.2V402.6H185.5V401.3Z" fill="#D6BFFF"/>
<path d="M23 352.3H22.2V353.1H23V352.3Z" fill="#D6BFFF"/>
<path d="M53.4 355.4H52.6V356.2H53.4V355.4Z" fill="#D6BFFF"/>
<path d="M27.5 387.2H26.7V388H27.5V387.2Z" fill="#D6BFFF"/>
<path d="M36.5 307.3H35.6V308.2H36.5V307.3Z" fill="#D6BFFF"/>
<path d="M70 210.4H69.1V211.3H70V210.4Z" fill="#D6BFFF"/>
<path d="M109 27.5H107.6V28.9H109V27.5Z" fill="#D6BFFF"/>
<path d="M51.6 219.4H50.5V220.5H51.6V219.4Z" fill="#D6BFFF"/>
<path d="M80.8 105.7H78.8V107.7H80.8V105.7Z" fill="#D6BFFF"/>
<path d="M61.1 299.5H60V300.6H61.1V299.5Z" fill="#D6BFFF"/>
<path d="M229.4 159.2H228.4V160.2H229.4V159.2Z" fill="#D6BFFF"/>
<path d="M191.7 310.6H190.4V311.9H191.7V310.6Z" fill="#D6BFFF"/>
<path d="M239.3 147.4H238.2V148.5H239.3V147.4Z" fill="#D6BFFF"/>
<path d="M145.3 337.8H144.1V339H145.3V337.8Z" fill="#D6BFFF"/>
<path d="M112 224.4H110.9V225.5H112V224.4Z" fill="#D6BFFF"/>
<path d="M130.3 204.2H129.3V205.2H130.3V204.2Z" fill="#D6BFFF"/>
<path d="M170.6 145.5H168.8V147.3H170.6V145.5Z" fill="#D6BFFF"/>
<path d="M272.2 177.5H271.1V178.6H272.2V177.5Z" fill="#D6BFFF"/>
<path d="M283.3 251.8H281.6V253.5H283.3V251.8Z" fill="#D6BFFF"/>
<path d="M329.2 167H327.5V168.7H329.2V167Z" fill="#D6BFFF"/>
<path d="M316 292.8H315.3V293.5H316V292.8Z" fill="#D6BFFF"/>
<path d="M478.1 16.2H476.5V17.8H478.1V16.2Z" fill="#D6BFFF"/>
<path d="M514 177.2H513.1V178.1H514V177.2Z" fill="#D6BFFF"/>
<path d="M600.2 58.5H599.4V59.3H600.2V58.5Z" fill="#D6BFFF"/>
<path d="M687.2 111.9H685.4V113.7H687.2V111.9Z" fill="#D6BFFF"/>
<path d="M732.4 160.9H730.8V162.5H732.4V160.9Z" fill="#D6BFFF"/>
<path d="M808.9 100.2H807.5V101.6H808.9V100.2Z" fill="#D6BFFF"/>
<path d="M899.3 201.5H897.1V203.7H899.3V201.5Z" fill="#D6BFFF"/>
<path d="M759.6 127.3H757.9V129H759.6V127.3Z" fill="#D6BFFF"/>
<path d="M230.7 151.8H229.6V152.9H230.7V151.8Z" fill="#D6BFFF"/>
<path d="M321.9 149H320.1V150.8H321.9V149Z" fill="#D6BFFF"/>
<path d="M577 173.9H575.5V175.4H577V173.9Z" fill="#D6BFFF"/>
<path d="M406.3 269.8H405.4V270.7H406.3V269.8Z" fill="#D6BFFF"/>
<path d="M287.7 341.3H286.7V342.3H287.7V341.3Z" fill="#D6BFFF"/>
<path d="M421.5 310.7H420V312.2H421.5V310.7Z" fill="#D6BFFF"/>
<path d="M738.1 273.4H736.7V274.8H738.1V273.4Z" fill="#D6BFFF"/>
<path d="M783.3 271.9H782.2V273H783.3V271.9Z" fill="#D6BFFF"/>
<path d="M343 288.4H342.4V289H343V288.4Z" fill="#D6BFFF"/>
<path d="M296.5 311H295.7V311.8H296.5V311Z" fill="#D6BFFF"/>
<path d="M702 335.8H701V336.8H702V335.8Z" fill="#D6BFFF"/>
<path d="M760.6 403.7H759.3V405H760.6V403.7Z" fill="#D6BFFF"/>
<path d="M420.5 464.7H418.4V466.8H420.5V464.7Z" fill="#D6BFFF"/>
<path d="M285.3 493.3H283.3V495.3H285.3V493.3Z" fill="#D6BFFF"/>
<path d="M551 422.9H549.3V424.6H551V422.9Z" fill="#D6BFFF"/>
<path d="M1054 396.2H1052.9V397.3H1054V396.2Z" fill="#D6BFFF"/>
<path d="M1034 388.3H1032.8V389.5H1034V388.3Z" fill="#D6BFFF"/>
<path d="M356.7 357.7H355.4V359H356.7V357.7Z" fill="#D6BFFF"/>
<path d="M264.9 353.5H263.8V354.6H264.9V353.5Z" fill="#D6BFFF"/>
<path d="M688.3 355.6H687.3V356.6H688.3V355.6Z" fill="#D6BFFF"/>
<path d="M374.8 452.9H373.5V454.2H374.8V452.9Z" fill="#D6BFFF"/>
<path d="M403.7 384.7H401.9V386.5H403.7V384.7Z" fill="#D6BFFF"/>
<path d="M514.1 359.5H513.2V360.4H514.1V359.5Z" fill="#D6BFFF"/>
<path d="M123.5 390.7H122.3V391.9H123.5V390.7Z" fill="#D6BFFF"/>
<path d="M521.7 335H520.6V336.1H521.7V335Z" fill="#D6BFFF"/>
<path d="M395.4 280.8H394.6V281.6H395.4V280.8Z" fill="#D6BFFF"/>
<path d="M344 153.6H341.9V155.7H344V153.6Z" fill="#D6BFFF"/>
<path d="M252.6 133.7H251.4V134.9H252.6V133.7Z" fill="#D6BFFF"/>
<path d="M291.9 92.6001H290.3V94.2001H291.9V92.6001Z" fill="#D6BFFF"/>
<path d="M4.59999 90.5H3.29999V91.8H4.59999V90.5Z" fill="#D6BFFF"/>
<path d="M237.3 62H235.8V63.5H237.3V62Z" fill="#D6BFFF"/>
<path d="M34.9 94.5H33.2V96.2H34.9V94.5Z" fill="#D6BFFF"/>
<path d="M173.4 56.3H172V57.7001H173.4V56.3Z" fill="#D6BFFF"/>
<path d="M210 71.3H208.2V73.1001H210V71.3Z" fill="#D6BFFF"/>
<path d="M448.5 67.2H447.2V68.5H448.5V67.2Z" fill="#D6BFFF"/>
<path d="M254.2 83.6001H252.5V85.3001H254.2V83.6001Z" fill="#D6BFFF"/>
<path d="M337.4 74.1001H335.5V76.0001H337.4V74.1001Z" fill="#D6BFFF"/>
<path d="M304.7 146.2H303.2V147.7H304.7V146.2Z" fill="#D6BFFF"/>
<path d="M183.2 153.7H181.7V155.2H183.2V153.7Z" fill="#D6BFFF"/>
<path d="M189.1 201.7H187.7V203.1H189.1V201.7Z" fill="#D6BFFF"/>
<path d="M111.8 208.7H110.9V209.6H111.8V208.7Z" fill="#D6BFFF"/>
<path d="M482.3 214.4H481.4V215.3H482.3V214.4Z" fill="#D6BFFF"/>
<path d="M500.6 203.5H499.6V204.5H500.6V203.5Z" fill="#D6BFFF"/>
<path d="M712.8 134.7H710.9V136.6H712.8V134.7Z" fill="#D6BFFF"/>
<path d="M464.3 163.6H463.6V164.3H464.3V163.6Z" fill="#D6BFFF"/>
<path d="M825 99.8999H823.5V101.4H825V99.8999Z" fill="#D6BFFF"/>
<path d="M933.8 122.3H931.9V124.2H933.8V122.3Z" fill="#D6BFFF"/>
<path d="M978.9 121.2H977.4V122.7H978.9V121.2Z" fill="#D6BFFF"/>
<path d="M1031 139.2H1029.4V140.8H1031V139.2Z" fill="#D6BFFF"/>
<path d="M667 94.3999H665.4V95.9999H667V94.3999Z" fill="#D6BFFF"/>
<path d="M553.9 58.7H553.2V59.4H553.9V58.7Z" fill="#D6BFFF"/>
<path d="M555.5 36.8999H554.6V37.7999H555.5V36.8999Z" fill="#D6BFFF"/>
<path d="M982.1 74.7H981V75.7999H982.1V74.7Z" fill="#D6BFFF"/>
<path d="M869.3 81.3H868V82.6001H869.3V81.3Z" fill="#D6BFFF"/>
<path d="M549.6 83.2H548.8V84H549.6V83.2Z" fill="#D6BFFF"/>
<path d="M663.6 107.7H662V109.3H663.6V107.7Z" fill="#D6BFFF"/>
<path d="M492.6 171.2H491.9V171.9H492.6V171.2Z" fill="#D6BFFF"/>
<path d="M668.4 263.9H666.1V266.2H668.4V263.9Z" fill="#D6BFFF"/>
<path d="M642.1 268.6H639.8V270.9H642.1V268.6Z" fill="#D6BFFF"/>
<path d="M608.7 161.7H607.2V163.2H608.7V161.7Z" fill="#D6BFFF"/>
<path d="M598.5 244.1H596.2V246.4H598.5V244.1Z" fill="#D6BFFF"/>
<path d="M603 205.8H600.9V207.9H603V205.8Z" fill="#D6BFFF"/>
<path d="M570.2 309.3H568.2V311.3H570.2V309.3Z" fill="#D6BFFF"/>
<path d="M914.5 290.9H912.8V292.6H914.5V290.9Z" fill="#D6BFFF"/>
<path d="M865.9 344.8H864.4V346.3H865.9V344.8Z" fill="#D6BFFF"/>
<path d="M831.1 352.5H829.9V353.7H831.1V352.5Z" fill="#D6BFFF"/>
<path d="M811.2 350.9H810.1V352H811.2V350.9Z" fill="#D6BFFF"/>
<path d="M502.4 403.6H501.3V404.7H502.4V403.6Z" fill="#D6BFFF"/>
<path d="M496.1 383.6H495.1V384.6H496.1V383.6Z" fill="#D6BFFF"/>
<path d="M540.1 368.8H539.2V369.7H540.1V368.8Z" fill="#D6BFFF"/>
<path d="M921.5 383.9H919.8V385.6H921.5V383.9Z" fill="#D6BFFF"/>
<path d="M953.4 411H951.3V413.1H953.4V411Z" fill="#D6BFFF"/>
<path d="M1022.1 426.3H1020.9V427.5H1022.1V426.3Z" fill="#D6BFFF"/>
<path d="M1073.4 465.7H1072.2V466.9H1073.4V465.7Z" fill="#D6BFFF"/>
<path d="M1262.9 551.4H1262.2V552.1H1262.9V551.4Z" fill="#D6BFFF"/>
<path d="M1299.4 551.2H1298.5V552.1H1299.4V551.2Z" fill="#D6BFFF"/>
<path d="M1227.2 601.9H1225.3V603.8H1227.2V601.9Z" fill="#D6BFFF"/>
<path d="M1420.5 586.2H1419.1V587.6H1420.5V586.2Z" fill="#D6BFFF"/>
<path d="M1302.5 606.7H1301.1V608.1H1302.5V606.7Z" fill="#D6BFFF"/>
<path d="M1434.4 562.6H1433.2V563.8H1434.4V562.6Z" fill="#D6BFFF"/>
<path d="M1371.7 567.5H1370.2V569H1371.7V567.5Z" fill="#D6BFFF"/>
<path d="M1417.1 573.2H1415.7V574.6H1417.1V573.2Z" fill="#D6BFFF"/>
<path d="M1411.8 530.9H1410.3V532.4H1411.8V530.9Z" fill="#D6BFFF"/>
<path d="M1267.9 505.8H1266.7V507H1267.9V505.8Z" fill="#D6BFFF"/>
<path d="M1189.5 516.3H1187.6V518.2H1189.5V516.3Z" fill="#D6BFFF"/>
<path d="M1292.3 505.6H1291.1V506.8H1292.3V505.6Z" fill="#D6BFFF"/>
<path d="M1374.8 514H1373.1V515.7H1374.8V514Z" fill="#D6BFFF"/>
<path d="M1394.8 521.7H1393.3V523.2H1394.8V521.7Z" fill="#D6BFFF"/>
<path d="M1240.9 490.5H1239.2V492.2H1240.9V490.5Z" fill="#D6BFFF"/>
<path d="M1096.3 453.5H1095.1V454.7H1096.3V453.5Z" fill="#D6BFFF"/>
<path d="M1023.8 453.6H1022.2V455.2H1023.8V453.6Z" fill="#D6BFFF"/>
<path d="M1218.7 443.4H1216.6V445.5H1218.7V443.4Z" fill="#D6BFFF"/>
<path d="M1405 449H1403.9V450.1H1405V449Z" fill="#D6BFFF"/>
<path d="M1403.7 469.4H1402.6V470.5H1403.7V469.4Z" fill="#D6BFFF"/>
<path d="M1177.6 442.1H1175.7V444H1177.6V442.1Z" fill="#D6BFFF"/>
<path d="M1111.6 396H1110.2V397.4H1111.6V396Z" fill="#D6BFFF"/>
<path d="M1080.8 353.8H1079.3V355.3H1080.8V353.8Z" fill="#D6BFFF"/>
<path d="M1225.7 386H1224.2V387.5H1225.7V386Z" fill="#D6BFFF"/>
<path d="M1268.2 398.4H1267.2V399.4H1268.2V398.4Z" fill="#D6BFFF"/>
<path d="M1054 336.3H1052.4V337.9H1054V336.3Z" fill="#D6BFFF"/>
<path d="M906.4 302.4H904.6V304.2H906.4V302.4Z" fill="#D6BFFF"/>
<path d="M862.8 297.3H861V299.1H862.8V297.3Z" fill="#D6BFFF"/>
<path d="M1081.5 275.8H1079.8V277.5H1081.5V275.8Z" fill="#D6BFFF"/>
<path d="M1104.3 257.6H1102.8V259.1H1104.3V257.6Z" fill="#D6BFFF"/>
<path d="M834.4 212.4H833.1V213.7H834.4V212.4Z" fill="#D6BFFF"/>
<path d="M713 195.7H711.1V197.6H713V195.7Z" fill="#D6BFFF"/>
<path d="M673.8 204.4H671.5V206.7H673.8V204.4Z" fill="#D6BFFF"/>
<path d="M816.1 203.3H814.9V204.5H816.1V203.3Z" fill="#D6BFFF"/>
<path d="M1150.7 213.5H1149.5V214.7H1150.7V213.5Z" fill="#D6BFFF"/>
<path d="M1220.4 221.1H1218.8V222.7H1220.4V221.1Z" fill="#D6BFFF"/>
<path d="M1013.5 186.5H1012.2V187.8H1013.5V186.5Z" fill="#D6BFFF"/>
<path d="M905.5 168.8H903V171.3H905.5V168.8Z" fill="#D6BFFF"/>
<path d="M1012.7 125.7H1011.2V127.2H1012.7V125.7Z" fill="#D6BFFF"/>
<path d="M1017.4 91.6001H1016.1V92.9001H1017.4V91.6001Z" fill="#D6BFFF"/>
<path d="M942.6 61.2H941.5V62.2999H942.6V61.2Z" fill="#D6BFFF"/>
<path d="M1151 59.1001H1149.8V60.3001H1151V59.1001Z" fill="#D6BFFF"/>
<path d="M1229.4 87.3H1227.9V88.8H1229.4V87.3Z" fill="#D6BFFF"/>
<path d="M1395.5 87.5H1394.3V88.7H1395.5V87.5Z" fill="#D6BFFF"/>
<path d="M1418.6 76.5H1417.5V77.6H1418.6V76.5Z" fill="#D6BFFF"/>
<path d="M1084.6 48.8999H1083.3V50.1999H1084.6V48.8999Z" fill="#D6BFFF"/>
<path d="M921.2 49.1001H920.1V50.2001H921.2V49.1001Z" fill="#D6BFFF"/>
<path d="M819.6 48.8999H818.6V49.8999H819.6V48.8999Z" fill="#D6BFFF"/>
<path d="M761.4 48.7H759.8V50.2999H761.4V48.7Z" fill="#D6BFFF"/>
<path d="M734.1 50.3999H732.2V52.2999H734.1V50.3999Z" fill="#D6BFFF"/>
<path d="M705.6 52.1001H703.7V54.0001H705.6V52.1001Z" fill="#D6BFFF"/>
<path d="M693.6 52.1001H691.8V53.9001H693.6V52.1001Z" fill="#D6BFFF"/>
<path d="M766.6 81.1001H765.1V82.6001H766.6V81.1001Z" fill="#D6BFFF"/>
<path d="M810.7 86.8H809.4V88.1001H810.7V86.8Z" fill="#D6BFFF"/>
<path d="M967.1 90.2H965.8V91.5H967.1V90.2Z" fill="#D6BFFF"/>
<path d="M1406.9 152.3H1405V154.2H1406.9V152.3Z" fill="#D6BFFF"/>
<path d="M1382.3 209.8H1380.9V211.2H1382.3V209.8Z" fill="#D6BFFF"/>
<path d="M1379.1 189.9H1377.8V191.2H1379.1V189.9Z" fill="#D6BFFF"/>
<path d="M1127 242.5H1125.7V243.8H1127V242.5Z" fill="#D6BFFF"/>
<path d="M1110.7 160.1H1108.9V161.9H1110.7V160.1Z" fill="#D6BFFF"/>
<path d="M1043.2 202.1H1041.8V203.5H1043.2V202.1Z" fill="#D6BFFF"/>
<path d="M1170.6 155.7H1169.3V157H1170.6V155.7Z" fill="#D6BFFF"/>
<path d="M1163.5 216.8H1162.3V218H1163.5V216.8Z" fill="#D6BFFF"/>
<path d="M1271.6 180H1269.7V181.9H1271.6V180Z" fill="#D6BFFF"/>
<path d="M1260.8 286H1259.2V287.6H1260.8V286Z" fill="#D6BFFF"/>
<path d="M1387.4 245H1385.7V246.7H1387.4V245Z" fill="#D6BFFF"/>
<path d="M1308.6 323H1307.9V323.7H1308.6V323Z" fill="#D6BFFF"/>
<path d="M1378.4 239.8H1376.7V241.5H1378.4V239.8Z" fill="#D6BFFF"/>
<path d="M1352.4 343.2H1351.7V343.9H1352.4V343.2Z" fill="#D6BFFF"/>
<path d="M1436.9 323.8H1434.9V325.8H1436.9V323.8Z" fill="#D6BFFF"/>
<path d="M1437.9 375H1436.5V376.4H1437.9V375Z" fill="#D6BFFF"/>
<path d="M1437.7 423.4H1436.6V424.5H1437.7V423.4Z" fill="#D6BFFF"/>
<path d="M1413.5 455.5H1412.4V456.6H1413.5V455.5Z" fill="#D6BFFF"/>
<path d="M1393.1 420.6H1392.1V421.6H1393.1V420.6Z" fill="#D6BFFF"/>
<path d="M1290.7 434.9H1289.7V435.9H1290.7V434.9Z" fill="#D6BFFF"/>
<path d="M1304.7 407.5H1303.9V408.3H1304.7V407.5Z" fill="#D6BFFF"/>
<path d="M1292.1 407.5H1291.3V408.3H1292.1V407.5Z" fill="#D6BFFF"/>
<path d="M1320.6 364H1320.1V364.5H1320.6V364Z" fill="#D6BFFF"/>
<path d="M1245.7 386.1H1244.5V387.3H1245.7V386.1Z" fill="#D6BFFF"/>
<path d="M1149.1 334.9H1147.8V336.2H1149.1V334.9Z" fill="#D6BFFF"/>
<path d="M1107.6 357.6H1106.1V359.1H1107.6V357.6Z" fill="#D6BFFF"/>
<path d="M1084.8 360.1H1083.3V361.6H1084.8V360.1Z" fill="#D6BFFF"/>
<path d="M1169 327.1H1167.7V328.4H1169V327.1Z" fill="#D6BFFF"/>
<path d="M1291.8 319.8H1291V320.6H1291.8V319.8Z" fill="#D6BFFF"/>
<path d="M1353.5 293.6H1352.2V294.9H1353.5V293.6Z" fill="#D6BFFF"/>
<path d="M1351.3 290.7H1350V292H1351.3V290.7Z" fill="#D6BFFF"/>
<path d="M1377.6 278.2H1375.9V279.9H1377.6V278.2Z" fill="#D6BFFF"/>
<path d="M1374.6 300.3H1373.3V301.6H1374.6V300.3Z" fill="#D6BFFF"/>
<path d="M1363.5 333.8H1362.7V334.6H1363.5V333.8Z" fill="#D6BFFF"/>
<path d="M1431.5 263H1429.6V264.9H1431.5V263Z" fill="#D6BFFF"/>
<path d="M1437.3 260.3H1435.5V262.1H1437.3V260.3Z" fill="#D6BFFF"/>
<path d="M1434.3 284.5H1432.2V286.6H1434.3V284.5Z" fill="#D6BFFF"/>
<path d="M1437.4 218.5H1435.8V220.1H1437.4V218.5Z" fill="#D6BFFF"/>
<path d="M1422.4 127.9H1420.3V130H1422.4V127.9Z" fill="#D6BFFF"/>
<path d="M1428.2 86H1427V87.2H1428.2V86Z" fill="#D6BFFF"/>
<path d="M1411.3 56.8H1410.2V57.9001H1411.3V56.8Z" fill="#D6BFFF"/>
<path d="M1312.4 100.9H1310.9V102.4H1312.4V100.9Z" fill="#D6BFFF"/>
<path d="M1298.2 75.8H1296.8V77.2001H1298.2V75.8Z" fill="#D6BFFF"/>
<path d="M1266.9 143.2H1265.1V145H1266.9V143.2Z" fill="#D6BFFF"/>
<path d="M1325.2 108.8H1323.8V110.2H1325.2V108.8Z" fill="#D6BFFF"/>
<path d="M1334.8 223.7H1333V225.5H1334.8V223.7Z" fill="#D6BFFF"/>
<path d="M1362.3 156.9H1361.1V158.1H1362.3V156.9Z" fill="#D6BFFF"/>
<path d="M1333.4 188.8H1331.9V190.3H1333.4V188.8Z" fill="#D6BFFF"/>
<path d="M1299.1 147.9H1297.3V149.7H1299.1V147.9Z" fill="#D6BFFF"/>
<path d="M1212.7 169.4H1211.4V170.7H1212.7V169.4Z" fill="#D6BFFF"/>
<path d="M1189.9 49.1001H1188.5V50.5001H1189.9V49.1001Z" fill="#D6BFFF"/>
<path d="M1125.7 116.1H1123.9V117.9H1125.7V116.1Z" fill="#D6BFFF"/>
<path d="M1193 53H1191.6V54.4H1193V53Z" fill="#D6BFFF"/>
<path d="M1243.3 34.3H1241.4V36.2001H1243.3V34.3Z" fill="#D6BFFF"/>
<path d="M1306.3 44H1304.8V45.5H1306.3V44Z" fill="#D6BFFF"/>
<path d="M1082 187.7H1080.4V189.3H1082V187.7Z" fill="#D6BFFF"/>
<path d="M1050.8 198.2H1049.3V199.7H1050.8V198.2Z" fill="#D6BFFF"/>
<path d="M977.1 304.1H975.5V305.7H977.1V304.1Z" fill="#D6BFFF"/>
<path d="M970.2 293.1H968.7V294.6H970.2V293.1Z" fill="#D6BFFF"/>
<path d="M966.1 301H964.5V302.6H966.1V301Z" fill="#D6BFFF"/>
<path d="M997.2 248.7H995.8V250.1H997.2V248.7Z" fill="#D6BFFF"/>
<path d="M924.9 245.6H923.3V247.2H924.9V245.6Z" fill="#D6BFFF"/>
<path d="M940.3 189.4H938.6V191.1H940.3V189.4Z" fill="#D6BFFF"/>
<path d="M849.3 238.5H848V239.8H849.3V238.5Z" fill="#D6BFFF"/>
<path d="M786.1 188.3H785V189.4H786.1V188.3Z" fill="#D6BFFF"/>
<path d="M765.1 287.4H763.9V288.6H765.1V287.4Z" fill="#D6BFFF"/>
<path d="M1346.1 312.7H1345.2V313.6H1346.1V312.7Z" fill="#D6BFFF"/>
<path d="M1433.1 402.2H1431.9V403.4H1433.1V402.2Z" fill="#D6BFFF"/>
<path d="M1202.2 325.5H1200.8V326.9H1202.2V325.5Z" fill="#D6BFFF"/>
<path d="M341 175.2H339.2V177H341V175.2Z" fill="#D6BFFF"/>
<path d="M252.8 306.1H251.8V307.1H252.8V306.1Z" fill="#D6BFFF"/>
<path d="M165.5 333.6H164.4V334.7H165.5V333.6Z" fill="#D6BFFF"/>
<path d="M156.8 294.7H155.1V296.4H156.8V294.7Z" fill="#D6BFFF"/>
<path d="M57.9 399.3H57V400.2H57.9V399.3Z" fill="#D6BFFF"/>
<path d="M3.70003 424.8H2.90002V425.6H3.70003V424.8Z" fill="#D6BFFF"/>
<path d="M56.7 547.6H55.8V548.5H56.7V547.6Z" fill="#D6BFFF"/>
<path d="M59.3 437H58.3V438H59.3V437Z" fill="#D6BFFF"/>
<path d="M28.9 287.2H27.8V288.3H28.9V287.2Z" fill="#D6BFFF"/>
<path d="M23.2 226.7H21.7V228.2H23.2V226.7Z" fill="#D6BFFF"/>
<path d="M39.1 42.1001H38V43.2001H39.1V42.1001Z" fill="#D6BFFF"/>
<path d="M92 14.8999H90.4V16.4999H92V14.8999Z" fill="#D6BFFF"/>
<path d="M182.6 1.8999H180.4V4.0999H182.6V1.8999Z" fill="#D6BFFF"/>
<path d="M197 21.2H195.3V22.9H197V21.2Z" fill="#D6BFFF"/>
<path d="M239 29.6001H237.4V31.2001H239V29.6001Z" fill="#D6BFFF"/>
<path d="M311.2 26.7H309.6V28.3H311.2V26.7Z" fill="#D6BFFF"/>
<path d="M348 7.69995H345.8V9.89995H348V7.69995Z" fill="#D6BFFF"/>
<path d="M363.9 105.7H360.9V108.7H363.9V105.7Z" fill="#D6BFFF"/>
<path d="M406.7 20.8999H404.9V22.6999H406.7V20.8999Z" fill="#D6BFFF"/>
<path d="M428.8 76.3H427.1V78.0001H428.8V76.3Z" fill="#D6BFFF"/>
<path d="M480.3 5.30005H478.2V7.40005H480.3V5.30005Z" fill="#D6BFFF"/>
<path d="M504.9 149.5H504.1V150.3H504.9V149.5Z" fill="#D6BFFF"/>
<path d="M596 24.8H594.8V26H596V24.8Z" fill="#D6BFFF"/>
<path d="M627.8 57H626.7V58.1H627.8V57Z" fill="#D6BFFF"/>
<path d="M673.6 12.8999H671.2V15.2999H673.6V12.8999Z" fill="#D6BFFF"/>
<path d="M707 21.7H704.6V24.1H707V21.7Z" fill="#D6BFFF"/>
<path d="M861.5 46.1001H860.5V47.1001H861.5V46.1001Z" fill="#D6BFFF"/>
<path d="M1014.2 7.19995H1011.9V9.49995H1014.2V7.19995Z" fill="#D6BFFF"/>
<path d="M1052.5 0H1049.4V3.1H1052.5V0Z" fill="#D6BFFF"/>
<path d="M1064.1 19.8H1062.1V21.8H1064.1V19.8Z" fill="#D6BFFF"/>
<path d="M1087.7 60.6001H1086.5V61.8001H1087.7V60.6001Z" fill="#D6BFFF"/>
<path d="M1154.8 42H1153.4V43.4H1154.8V42Z" fill="#D6BFFF"/>
<path d="M1175.1 55.3999H1173.8V56.6999H1175.1V55.3999Z" fill="#D6BFFF"/>
<path d="M1143.2 45.8H1141.9V47.1001H1143.2V45.8Z" fill="#D6BFFF"/>
<path d="M1001.8 114.5H1000.3V116H1001.8V114.5Z" fill="#D6BFFF"/>
<path d="M954.3 91.8H952.9V93.2001H954.3V91.8Z" fill="#D6BFFF"/>
<path d="M777.8 87.7H776.4V89.1H777.8V87.7Z" fill="#D6BFFF"/>
<path d="M608 69.7H607.1V70.6H608V69.7Z" fill="#D6BFFF"/>
<path d="M427.2 168.2H426.2V169.2H427.2V168.2Z" fill="#D6BFFF"/>
<path d="M365.8 149.1H363.4V151.5H365.8V149.1Z" fill="#D6BFFF"/>
<path d="M274.1 225.5H272.1V227.5H274.1V225.5Z" fill="#D6BFFF"/>
<path d="M224.3 165.9H223.3V166.9H224.3V165.9Z" fill="#D6BFFF"/>
<path d="M467.1 200.4H466.4V201.1H467.1V200.4Z" fill="#D6BFFF"/>
<path d="M538.1 187.9H536.8V189.2H538.1V187.9Z" fill="#D6BFFF"/>
<path d="M167.1 304.8H165.6V306.3H167.1V304.8Z" fill="#D6BFFF"/>
<path d="M60.5 199.2H59.6V200.1H60.5V199.2Z" fill="#D6BFFF"/>
<path d="M133.5 138.3H131.8V140H133.5V138.3Z" fill="#D6BFFF"/>
<path d="M108.2 133.3H106.6V134.9H108.2V133.3Z" fill="#D6BFFF"/>
<path d="M41.2 126.6H39.3V128.5H41.2V126.6Z" fill="#D6BFFF"/>
<path d="M240.7 168.8H239.8V169.7H240.7V168.8Z" fill="#D6BFFF"/>
<path d="M184.3 171.3H183.1V172.5H184.3V171.3Z" fill="#D6BFFF"/>
<path d="M41.5 108.9H39.5V110.9H41.5V108.9Z" fill="#D6BFFF"/>
<path d="M100.6 137.4H99.2V138.8H100.6V137.4Z" fill="#D6BFFF"/>
<path d="M237.7 329.1H236.7V330.1H237.7V329.1Z" fill="#D6BFFF"/>
<path d="M124.9 377.8H123.7V379H124.9V377.8Z" fill="#D6BFFF"/>
<path d="M253.6 461.2H251.3V463.5H253.6V461.2Z" fill="#D6BFFF"/>
<path d="M103.4 399.4H102.2V400.6H103.4V399.4Z" fill="#D6BFFF"/>
<path d="M167.5 289.4H165.8V291.1H167.5V289.4Z" fill="#D6BFFF"/>
<path d="M1387.9 54.5H1386.8V55.6H1387.9V54.5Z" fill="#D6BFFF"/>
<path d="M1329.6 25.1001H1327.8V26.9001H1329.6V25.1001Z" fill="#D6BFFF"/>
<path d="M1301.7 69.5H1300.3V70.9H1301.7V69.5Z" fill="#D6BFFF"/>
<path d="M1403.5 17.3H1401.6V19.2H1403.5V17.3Z" fill="#D6BFFF"/>
<path d="M1422.1 20.8999H1420.2V22.7999H1422.1V20.8999Z" fill="#D6BFFF"/>
<path d="M1371.7 25.8H1370.1V27.4H1371.7V25.8Z" fill="#D6BFFF"/>
<path d="M1393.1 6.19995H1390.7V8.59995H1393.1V6.19995Z" fill="#D6BFFF"/>
<path d="M1274.9 49.3999H1273.2V51.0999H1274.9V49.3999Z" fill="#D6BFFF"/>
<path d="M1219 34.7H1217.2V36.5H1219V34.7Z" fill="#D6BFFF"/>
<path d="M1124.1 43.8H1122.7V45.2001H1124.1V43.8Z" fill="#D6BFFF"/>
<path d="M1126 5.69995H1123.1V8.59995H1126V5.69995Z" fill="#D6BFFF"/>
<path d="M1007.8 64H1006.7V65.1H1007.8V64Z" fill="#D6BFFF"/>
<path d="M935.1 31.3H933.8V32.6001H935.1V31.3Z" fill="#D6BFFF"/>
<path d="M867.1 11H865.5V12.6H867.1V11Z" fill="#D6BFFF"/>
<path d="M743.4 9.80005H740.8V12.4H743.4V9.80005Z" fill="#D6BFFF"/>
<path d="M517.7 42.1001H516.8V43.0001H517.7V42.1001Z" fill="#D6BFFF"/>
<path d="M386.4 7.8999H384.2V10.0999H386.4V7.8999Z" fill="#D6BFFF"/>
<path d="M332.2 31H330.6V32.6H332.2V31Z" fill="#D6BFFF"/>
<path d="M279.4 39H278V40.4H279.4V39Z" fill="#D6BFFF"/>
</svg>
